<svg width="192" height="48" viewBox="0 0 192 48" fill="none" xmlns="http://www.w3.org/2000/svg">
<path d="M1 27.384L2.04865 24.9179L11.4865 24.0958L25.1189 23.2738H36.654L55.5297 24.9179L61.8216 23.2738L67.0648 21.6297L74.4053 19.346L77.5513 18.3415L84.8918 15.8754L94.5 15.0612L99 14.0612L103 12.5872L109.778 12L115 12.5872L104.816 14.0612L101.5 15.0612L95.3783 16.6974L76.5026 19.9856H77.5513L88.0377 20.8076L105.865 22.4517L122.643 24.0958L132.081 24.9179H140.47H143.616L148.859 24.0958L154.103 23.2738L157.248 22.4517L163.54 20.8076L169.305 19.1635L172.978 18.3415L180.319 16.6974L183.465 15.8754L187.659 14.2313L184.513 16.6974L181.367 17.5195L172.978 19.346L167.735 20.8076L163.54 22.4517L153.054 24.9179L137.324 26.562L122.643 25.7399L109.011 24.9179L95.3783 23.2738L88.0377 22.4517L74.4053 20.8076L69.1621 21.6297L58.6756 25.7399L64.9675 27.384L76.5026 30.6722L84.8918 33.9604L91.1837 36.4265L98.5242 38.0706L110.059 41.3588V42.1809L104.816 40.5368L100.622 39.7147L96.4269 38.8927L89.0864 37.2486L77.5513 33.1383L69.1621 30.6722L58.6756 28.2061L52.3837 27.384H49.2378L43.9945 25.7399H30.3621L16.7297 26.562L1 27.384Z" fill="url(#paint0_linear_13_2231)" stroke="black" stroke-width="0.1"/>
<path d="M54.348 24.1315L53.8118 25.0763L53.1843 25.7805L52.1861 26.2922L51.1009 26.4674L50.4294 26.3834L49.8692 26.1841L49.1909 25.2558L50.1666 24.7421L49.0794 24.9086L49.1444 23.9271L49.4435 23.3137L49.9528 22.8926L50.9293 22.3787L52.054 22.261L52.9197 22.2985L53.9019 22.7426L54.348 24.1315Z" fill="#FDD8EE" stroke="black" stroke-width="0.1"/>
<path d="M55.8954 24.0845L56.6272 24.8815L57.1043 25.6953L57.2885 26.8098L57.1288 27.9085L56.8482 28.5315L56.4921 29.0128L55.4118 29.3924L55.219 28.2991L55.0504 29.3972L54.1428 29.0439L53.653 28.5737L53.4079 27.9577L53.215 26.8636L53.441 25.7437L53.7358 24.9197L54.339 24.1695L55.8954 24.0845Z" fill="#FFBDE5" stroke="black" stroke-width="0.1"/>
<path d="M53.8932 22.787L52.8215 22.6826L51.9295 22.3949L51.0596 21.6863L50.4577 20.7587L50.2587 20.1053L50.2095 19.507L50.7696 18.4991L51.6321 19.1862L51.0373 18.2531L51.9493 17.9082L52.6252 17.9307L53.2134 18.2263L54.0764 18.914L54.6426 19.9018L54.9628 20.7148L54.9639 21.8031L53.8932 22.787Z" fill="#FDD8EE" stroke="black" stroke-width="0.1"/>
<path d="M56.1067 22.6787L57.0903 22.3014L58.0082 22.1103L59.1109 22.2967L60.0859 22.8066L60.5763 23.277L60.9093 23.7737L60.9091 24.9287L59.8233 24.7574L60.7948 25.2755L60.166 26.0274L59.5653 26.3423L58.9087 26.3761L57.8221 26.2045L56.8491 25.6247L56.1755 25.0752L55.647 24.128L56.1067 22.6787Z" fill="#FDD8EE" stroke="black" stroke-width="0.1"/>
<path d="M54.9391 21.8731L54.7696 20.7987L54.8208 19.8533L55.2805 18.8221L56.0173 17.997L56.5927 17.6359L57.1531 17.4352L58.2588 17.7257L57.8178 18.7441L58.5615 17.9246L59.121 18.7283L59.2692 19.3947L59.1341 20.0452L58.6927 21.0643L57.8894 21.8698L57.1916 22.3903L56.1501 22.6688L54.9391 21.8731Z" fill="#FFBDE5" stroke="black" stroke-width="0.1"/>
<path d="M55.6153 24.1015L56.1067 22.6787L54.9126 21.8373L53.9141 22.8474L54.339 24.1695L55.6153 24.1015Z" fill="#FF9EE2" stroke="black" stroke-width="0.1"/>
<path d="M55.0242 23.0555L56.4823 24.5466" stroke="white" stroke-width="0.1"/>
<path d="M55.0242 23.0555L55.3367 25.1766" stroke="white" stroke-width="0.1"/>
<path d="M55.0242 23.0555L57.2679 23.884" stroke="white" stroke-width="0.1"/>
<path d="M55.0242 23.0555L57.1866 22.7763" stroke="white" stroke-width="0.1"/>
<path d="M55.0242 23.0555L56.7124 21.9999" stroke="white" stroke-width="0.1"/>
<path d="M55.0242 23.0555L55.6983 21.1747" stroke="white" stroke-width="0.1"/>
<path d="M55.0242 23.0555L54.6513 20.7133" stroke="white" stroke-width="0.1"/>
<path d="M55.0242 23.0555L53.2756 23.89" stroke="white" stroke-width="0.1"/>
<path d="M55.0242 23.0555L53.08 22.0385" stroke="white" stroke-width="0.1"/>
<path d="M55.0242 23.0555L53.8985 21.0121" stroke="white" stroke-width="0.1"/>
<ellipse cx="57.3665" cy="22.7926" rx="0.182648" ry="0.180707" transform="rotate(95.1632 57.3665 22.7926)" fill="#FEE035"/>
<ellipse cx="57.2679" cy="23.884" rx="0.182648" ry="0.180707" transform="rotate(95.1632 57.2679 23.884)" fill="#FEE035"/>
<ellipse cx="56.4822" cy="24.5466" rx="0.182647" ry="0.180707" transform="rotate(95.1632 56.4822 24.5466)" fill="#FEE035"/>
<ellipse cx="55.3367" cy="25.1766" rx="0.182648" ry="0.180707" transform="rotate(95.1632 55.3367 25.1766)" fill="#FEE035"/>
<ellipse cx="53.2756" cy="23.8901" rx="0.182647" ry="0.180707" transform="rotate(95.1632 53.2756 23.8901)" fill="#FEE035"/>
<ellipse cx="53.08" cy="22.0385" rx="0.182647" ry="0.180707" transform="rotate(95.1632 53.08 22.0385)" fill="#FEE035"/>
<ellipse cx="53.8985" cy="21.0121" rx="0.182648" ry="0.180707" transform="rotate(95.1632 53.8985 21.0121)" fill="#FEE035"/>
<ellipse cx="54.6513" cy="20.7133" rx="0.182648" ry="0.180707" transform="rotate(95.1632 54.6513 20.7133)" fill="#FEE035"/>
<ellipse cx="55.6983" cy="21.1747" rx="0.182648" ry="0.180707" transform="rotate(95.1632 55.6983 21.1747)" fill="#FEE035"/>
<ellipse cx="56.7124" cy="21.9999" rx="0.182648" ry="0.180707" transform="rotate(95.1632 56.7124 21.9999)" fill="#FEE035"/>
<path d="M55.3407 23.5443L55.5795 22.8965L54.9835 22.5079L54.4913 22.9655L54.7071 23.5707L55.3407 23.5443Z" fill="white" stroke="black" stroke-width="0.1"/>
<path d="M103.348 14.1315L102.812 15.0763L102.184 15.7805L101.186 16.2922L100.101 16.4674L99.4294 16.3835L98.8692 16.1841L98.1909 15.2558L99.1666 14.7421L98.0794 14.9086L98.1444 13.9271L98.4435 13.3137L98.9528 12.8926L99.9293 12.3787L101.054 12.261L101.92 12.2985L102.902 12.7426L103.348 14.1315Z" fill="#FDD8EE" stroke="black" stroke-width="0.1"/>
<path d="M104.895 14.0845L105.627 14.8815L106.104 15.6953L106.289 16.8098L106.129 17.9085L105.848 18.5315L105.492 19.0128L104.412 19.3924L104.219 18.2991L104.05 19.3972L103.143 19.0439L102.653 18.5737L102.408 17.9577L102.215 16.8636L102.441 15.7437L102.736 14.9197L103.339 14.1695L104.895 14.0845Z" fill="#FFBDE5" stroke="black" stroke-width="0.1"/>
<path d="M102.893 12.787L101.821 12.6826L100.93 12.3949L100.06 11.6863L99.4577 10.7587L99.2587 10.1053L99.2095 9.50702L99.7696 8.49907L100.632 9.18617L100.037 8.2531L100.949 7.90819L101.625 7.93074L102.213 8.22633L103.076 8.91402L103.643 9.90179L103.963 10.7148L103.964 11.8031L102.893 12.787Z" fill="#FDD8EE" stroke="black" stroke-width="0.1"/>
<path d="M105.107 12.6787L106.09 12.3014L107.008 12.1103L108.111 12.2967L109.086 12.8066L109.576 13.277L109.909 13.7737L109.909 14.9287L108.823 14.7574L109.795 15.2755L109.166 16.0274L108.565 16.3423L107.909 16.3761L106.822 16.2045L105.849 15.6247L105.175 15.0752L104.647 14.128L105.107 12.6787Z" fill="#FDD8EE" stroke="black" stroke-width="0.1"/>
<path d="M103.939 11.8731L103.77 10.7987L103.821 9.85329L104.281 8.82206L105.017 7.99701L105.593 7.63591L106.153 7.43515L107.259 7.72566L106.818 8.74412L107.562 7.9246L108.121 8.7283L108.269 9.39474L108.134 10.0452L107.693 11.0643L106.889 11.8698L106.192 12.3903L105.15 12.6688L103.939 11.8731Z" fill="#FFBDE5" stroke="black" stroke-width="0.1"/>
<path d="M104.615 14.1015L105.107 12.6787L103.913 11.8373L102.914 12.8474L103.339 14.1695L104.615 14.1015Z" fill="#FF9EE2" stroke="black" stroke-width="0.1"/>
<path d="M104.024 13.0555L105.482 14.5466" stroke="white" stroke-width="0.1"/>
<path d="M104.024 13.0555L104.337 15.1766" stroke="white" stroke-width="0.1"/>
<path d="M104.024 13.0555L106.268 13.884" stroke="white" stroke-width="0.1"/>
<path d="M104.024 13.0555L106.187 12.7763" stroke="white" stroke-width="0.1"/>
<path d="M104.024 13.0555L105.712 11.9999" stroke="white" stroke-width="0.1"/>
<path d="M104.024 13.0555L104.698 11.1747" stroke="white" stroke-width="0.1"/>
<path d="M104.024 13.0555L103.651 10.7133" stroke="white" stroke-width="0.1"/>
<path d="M104.024 13.0555L102.276 13.89" stroke="white" stroke-width="0.1"/>
<path d="M104.024 13.0555L102.08 12.0385" stroke="white" stroke-width="0.1"/>
<path d="M104.024 13.0555L102.899 11.0121" stroke="white" stroke-width="0.1"/>
<ellipse cx="106.367" cy="12.7926" rx="0.182648" ry="0.180707" transform="rotate(95.1632 106.367 12.7926)" fill="#FEE035"/>
<ellipse cx="106.268" cy="13.884" rx="0.182648" ry="0.180707" transform="rotate(95.1632 106.268 13.884)" fill="#FEE035"/>
<ellipse cx="105.482" cy="14.5466" rx="0.182647" ry="0.180707" transform="rotate(95.1632 105.482 14.5466)" fill="#FEE035"/>
<ellipse cx="104.337" cy="15.1766" rx="0.182648" ry="0.180707" transform="rotate(95.1632 104.337 15.1766)" fill="#FEE035"/>
<ellipse cx="102.276" cy="13.89" rx="0.182647" ry="0.180707" transform="rotate(95.1632 102.276 13.89)" fill="#FEE035"/>
<ellipse cx="102.08" cy="12.0385" rx="0.182647" ry="0.180707" transform="rotate(95.1632 102.08 12.0385)" fill="#FEE035"/>
<ellipse cx="102.899" cy="11.0121" rx="0.182648" ry="0.180707" transform="rotate(95.1632 102.899 11.0121)" fill="#FEE035"/>
<ellipse cx="103.651" cy="10.7133" rx="0.182648" ry="0.180707" transform="rotate(95.1632 103.651 10.7133)" fill="#FEE035"/>
<ellipse cx="104.698" cy="11.1747" rx="0.182648" ry="0.180707" transform="rotate(95.1632 104.698 11.1747)" fill="#FEE035"/>
<ellipse cx="105.712" cy="11.9999" rx="0.182648" ry="0.180707" transform="rotate(95.1632 105.712 11.9999)" fill="#FEE035"/>
<path d="M104.341 13.5443L104.58 12.8965L103.983 12.5079L103.491 12.9655L103.707 13.5707L104.341 13.5443Z" fill="white" stroke="black" stroke-width="0.1"/>
<path d="M95.9108 9.63331L94.971 10.1782L94.0738 10.4693L92.9538 10.4071L91.9286 10.0105L91.3913 9.59905L91.0084 9.14423L90.8915 8.00042L91.9931 8.04955L90.9705 7.64439L91.5221 6.83003L92.09 6.45147L92.7422 6.34511L93.8446 6.3944L94.8749 6.86061L95.6032 7.32993L96.2269 8.20919L95.9108 9.63331Z" fill="#FDD8EE" stroke="black" stroke-width="0.1"/>
<path d="M97.2703 10.3739L97.4996 11.4313L97.5007 12.3747L97.0971 13.4297L96.4045 14.2975L95.8479 14.6936L95.2975 14.9293L94.1734 14.7117L94.5588 13.6706L93.859 14.5333L93.2539 13.7702L93.0684 13.1171L93.1677 12.4616L93.5536 11.4198L94.314 10.5672L94.9844 10.0047L95.8839 9.6616L97.2703 10.3739Z" fill="#FFBDE5" stroke="black" stroke-width="0.1"/>
<path d="M96.197 8.2431L95.3245 7.61199L94.6997 6.91337L94.3065 5.86249L94.2552 4.75787L94.4133 4.09349L94.6729 3.55214L95.6652 2.96482L96.0629 3.99334L96.0204 2.88761L96.9819 3.05031L97.5539 3.41093L97.9124 3.96303L98.3102 4.99234L98.3003 6.13082L98.1664 6.99434L97.6179 7.93428L96.197 8.2431Z" fill="#FDD8EE" stroke="black" stroke-width="0.1"/>
<path d="M98.1624 9.26707L99.2019 9.43788L100.091 9.7363L100.949 10.4539L101.533 11.3862L101.719 12.0398L101.755 12.6367L101.172 13.6337L100.321 12.9376L100.898 13.8752L99.976 14.2069L99.2984 14.1755L98.7146 13.8732L97.8632 13.1766L97.3161 12.1848L97.0119 11.3705L97.0339 10.286L98.1624 9.26707Z" fill="#FDD8EE" stroke="black" stroke-width="0.1"/>
<path d="M97.5611 7.98216L97.9572 6.96918L98.4787 6.17892L99.3961 5.52081L100.449 5.18053L101.128 5.15931L101.713 5.2689L102.52 6.07785L101.626 6.73441L102.681 6.40242L102.759 7.3786L102.55 8.02875L102.105 8.52201L101.21 9.17893L100.11 9.46872L99.2445 9.56573L98.2048 9.28043L97.5611 7.98216Z" fill="#FFBDE5" stroke="black" stroke-width="0.1"/>
<path d="M97.0199 10.2471L98.1624 9.26707L97.5564 7.93791L96.1846 8.30582L95.8839 9.6616L97.0199 10.2471Z" fill="#FF9EE2" stroke="black" stroke-width="0.1"/>
<path d="M97.0377 9.04579L97.5436 11.069" stroke="white" stroke-width="0.1"/>
<path d="M97.0377 9.0458L96.2367 11.0346" stroke="white" stroke-width="0.1"/>
<path d="M97.0377 9.0458L98.5563 10.8937" stroke="white" stroke-width="0.1"/>
<path d="M97.0377 9.04581L99.0453 9.89643" stroke="white" stroke-width="0.1"/>
<path d="M97.0377 9.04579L99.0279 8.98683" stroke="white" stroke-width="0.1"/>
<path d="M97.0377 9.0458L98.5691 7.76257" stroke="white" stroke-width="0.1"/>
<path d="M97.0377 9.0458L97.8982 6.83575" stroke="white" stroke-width="0.1"/>
<path d="M97.0377 9.0458L95.107 8.88352" stroke="white" stroke-width="0.1"/>
<path d="M97.0377 9.0458L95.8729 7.18645" stroke="white" stroke-width="0.1"/>
<path d="M97.0377 9.0458L97.0976 6.71364" stroke="white" stroke-width="0.1"/>
<ellipse cx="99.1924" cy="10.0013" rx="0.182648" ry="0.180707" transform="rotate(125.482 99.1924 10.0013)" fill="#FEE035"/>
<ellipse cx="98.5563" cy="10.8937" rx="0.182648" ry="0.180707" transform="rotate(125.482 98.5563 10.8937)" fill="#FEE035"/>
<ellipse cx="97.5436" cy="11.069" rx="0.182647" ry="0.180707" transform="rotate(125.482 97.5436 11.069)" fill="#FEE035"/>
<ellipse cx="96.2367" cy="11.0346" rx="0.182648" ry="0.180707" transform="rotate(125.482 96.2367 11.0346)" fill="#FEE035"/>
<ellipse cx="95.107" cy="8.88352" rx="0.182647" ry="0.180707" transform="rotate(125.482 95.107 8.88352)" fill="#FEE035"/>
<ellipse cx="95.8729" cy="7.18645" rx="0.182647" ry="0.180707" transform="rotate(125.482 95.8729 7.18645)" fill="#FEE035"/>
<ellipse cx="97.0976" cy="6.71364" rx="0.182648" ry="0.180707" transform="rotate(125.482 97.0976 6.71364)" fill="#FEE035"/>
<ellipse cx="97.8982" cy="6.83575" rx="0.182648" ry="0.180707" transform="rotate(125.482 97.8982 6.83575)" fill="#FEE035"/>
<ellipse cx="98.5691" cy="7.76257" rx="0.182648" ry="0.180707" transform="rotate(125.482 98.5691 7.76257)" fill="#FEE035"/>
<ellipse cx="99.0279" cy="8.98683" rx="0.182648" ry="0.180707" transform="rotate(125.482 99.0279 8.98683)" fill="#FEE035"/>
<path d="M97.0642 9.62751L97.5974 9.1889L97.279 8.5526L96.6232 8.69913L96.5039 9.3305L97.0642 9.62751Z" fill="white" stroke="black" stroke-width="0.1"/>
<path d="M142.348 25.1315L141.812 26.0763L141.184 26.7805L140.186 27.2922L139.101 27.4674L138.429 27.3834L137.869 27.1841L137.191 26.2558L138.167 25.7421L137.079 25.9086L137.144 24.9271L137.444 24.3137L137.953 23.8926L138.929 23.3787L140.054 23.261L140.92 23.2985L141.902 23.7426L142.348 25.1315Z" fill="#FDD8EE" stroke="black" stroke-width="0.1"/>
<path d="M143.895 25.0845L144.627 25.8815L145.104 26.6953L145.289 27.8098L145.129 28.9085L144.848 29.5315L144.492 30.0128L143.412 30.3924L143.219 29.2991L143.05 30.3972L142.143 30.0439L141.653 29.5737L141.408 28.9577L141.215 27.8636L141.441 26.7437L141.736 25.9197L142.339 25.1695L143.895 25.0845Z" fill="#FFBDE5" stroke="black" stroke-width="0.1"/>
<path d="M141.893 23.787L140.821 23.6826L139.93 23.3949L139.06 22.6863L138.458 21.7587L138.259 21.1053L138.209 20.507L138.77 19.4991L139.632 20.1862L139.037 19.2531L139.949 18.9082L140.625 18.9307L141.213 19.2263L142.076 19.914L142.643 20.9018L142.963 21.7148L142.964 22.8031L141.893 23.787Z" fill="#FDD8EE" stroke="black" stroke-width="0.1"/>
<path d="M144.107 23.6787L145.09 23.3014L146.008 23.1103L147.111 23.2967L148.086 23.8066L148.576 24.277L148.909 24.7737L148.909 25.9287L147.823 25.7574L148.795 26.2755L148.166 27.0274L147.565 27.3423L146.909 27.3761L145.822 27.2045L144.849 26.6247L144.175 26.0752L143.647 25.128L144.107 23.6787Z" fill="#FDD8EE" stroke="black" stroke-width="0.1"/>
<path d="M142.939 22.8731L142.77 21.7987L142.821 20.8533L143.281 19.8221L144.017 18.997L144.593 18.6359L145.153 18.4352L146.259 18.7257L145.818 19.7441L146.562 18.9246L147.121 19.7283L147.269 20.3947L147.134 21.0452L146.693 22.0643L145.889 22.8698L145.192 23.3903L144.15 23.6688L142.939 22.8731Z" fill="#FFBDE5" stroke="black" stroke-width="0.1"/>
<path d="M143.615 25.1015L144.107 23.6787L142.913 22.8373L141.914 23.8474L142.339 25.1695L143.615 25.1015Z" fill="#FF9EE2" stroke="black" stroke-width="0.1"/>
<path d="M143.024 24.0555L144.482 25.5466" stroke="white" stroke-width="0.1"/>
<path d="M143.024 24.0555L143.337 26.1766" stroke="white" stroke-width="0.1"/>
<path d="M143.024 24.0555L145.268 24.884" stroke="white" stroke-width="0.1"/>
<path d="M143.024 24.0555L145.187 23.7763" stroke="white" stroke-width="0.1"/>
<path d="M143.024 24.0555L144.712 22.9999" stroke="white" stroke-width="0.1"/>
<path d="M143.024 24.0555L143.698 22.1747" stroke="white" stroke-width="0.1"/>
<path d="M143.024 24.0555L142.651 21.7133" stroke="white" stroke-width="0.1"/>
<path d="M143.024 24.0555L141.276 24.89" stroke="white" stroke-width="0.1"/>
<path d="M143.024 24.0555L141.08 23.0385" stroke="white" stroke-width="0.1"/>
<path d="M143.024 24.0555L141.899 22.0121" stroke="white" stroke-width="0.1"/>
<ellipse cx="145.367" cy="23.7926" rx="0.182648" ry="0.180707" transform="rotate(95.1632 145.367 23.7926)" fill="#FEE035"/>
<ellipse cx="145.268" cy="24.884" rx="0.182648" ry="0.180707" transform="rotate(95.1632 145.268 24.884)" fill="#FEE035"/>
<ellipse cx="144.482" cy="25.5466" rx="0.182647" ry="0.180707" transform="rotate(95.1632 144.482 25.5466)" fill="#FEE035"/>
<ellipse cx="143.337" cy="26.1766" rx="0.182648" ry="0.180707" transform="rotate(95.1632 143.337 26.1766)" fill="#FEE035"/>
<ellipse cx="141.276" cy="24.8901" rx="0.182647" ry="0.180707" transform="rotate(95.1632 141.276 24.8901)" fill="#FEE035"/>
<ellipse cx="141.08" cy="23.0385" rx="0.182647" ry="0.180707" transform="rotate(95.1632 141.08 23.0385)" fill="#FEE035"/>
<ellipse cx="141.899" cy="22.0121" rx="0.182648" ry="0.180707" transform="rotate(95.1632 141.899 22.0121)" fill="#FEE035"/>
<ellipse cx="142.651" cy="21.7133" rx="0.182648" ry="0.180707" transform="rotate(95.1632 142.651 21.7133)" fill="#FEE035"/>
<ellipse cx="143.698" cy="22.1747" rx="0.182648" ry="0.180707" transform="rotate(95.1632 143.698 22.1747)" fill="#FEE035"/>
<ellipse cx="144.712" cy="22.9999" rx="0.182648" ry="0.180707" transform="rotate(95.1632 144.712 22.9999)" fill="#FEE035"/>
<path d="M143.341 24.5443L143.58 23.8965L142.983 23.5079L142.491 23.9655L142.707 24.5707L143.341 24.5443Z" fill="white" stroke="black" stroke-width="0.1"/>
<path d="M176.348 19.1315L175.812 20.0763L175.184 20.7805L174.186 21.2922L173.101 21.4674L172.429 21.3834L171.869 21.1841L171.191 20.2558L172.167 19.7421L171.079 19.9086L171.144 18.9271L171.444 18.3137L171.953 17.8926L172.929 17.3787L174.054 17.261L174.92 17.2985L175.902 17.7426L176.348 19.1315Z" fill="#FDD8EE" stroke="black" stroke-width="0.1"/>
<path d="M177.895 19.0845L178.627 19.8815L179.104 20.6953L179.289 21.8098L179.129 22.9085L178.848 23.5315L178.492 24.0128L177.412 24.3924L177.219 23.2991L177.05 24.3972L176.143 24.0439L175.653 23.5737L175.408 22.9577L175.215 21.8636L175.441 20.7437L175.736 19.9197L176.339 19.1695L177.895 19.0845Z" fill="#FFBDE5" stroke="black" stroke-width="0.1"/>
<path d="M175.893 17.787L174.821 17.6826L173.929 17.3949L173.06 16.6863L172.458 15.7587L172.259 15.1053L172.209 14.507L172.77 13.4991L173.632 14.1862L173.037 13.2531L173.949 12.9082L174.625 12.9307L175.213 13.2263L176.076 13.914L176.643 14.9018L176.963 15.7148L176.964 16.8031L175.893 17.787Z" fill="#FDD8EE" stroke="black" stroke-width="0.1"/>
<path d="M178.107 17.6787L179.09 17.3014L180.008 17.1103L181.111 17.2967L182.086 17.8066L182.576 18.277L182.909 18.7737L182.909 19.9287L181.823 19.7574L182.795 20.2755L182.166 21.0274L181.565 21.3423L180.909 21.3761L179.822 21.2045L178.849 20.6247L178.175 20.0752L177.647 19.128L178.107 17.6787Z" fill="#FDD8EE" stroke="black" stroke-width="0.1"/>
<path d="M176.939 16.8731L176.77 15.7987L176.821 14.8533L177.28 13.8221L178.017 12.997L178.593 12.6359L179.153 12.4352L180.259 12.7257L179.818 13.7441L180.562 12.9246L181.121 13.7283L181.269 14.3947L181.134 15.0452L180.693 16.0643L179.889 16.8698L179.192 17.3903L178.15 17.6688L176.939 16.8731Z" fill="#FFBDE5" stroke="black" stroke-width="0.1"/>
<path d="M177.615 19.1015L178.107 17.6787L176.913 16.8373L175.914 17.8474L176.339 19.1695L177.615 19.1015Z" fill="#FF9EE2" stroke="black" stroke-width="0.1"/>
<path d="M177.024 18.0555L178.482 19.5466" stroke="white" stroke-width="0.1"/>
<path d="M177.024 18.0555L177.337 20.1766" stroke="white" stroke-width="0.1"/>
<path d="M177.024 18.0555L179.268 18.884" stroke="white" stroke-width="0.1"/>
<path d="M177.024 18.0555L179.187 17.7763" stroke="white" stroke-width="0.1"/>
<path d="M177.024 18.0555L178.712 16.9999" stroke="white" stroke-width="0.1"/>
<path d="M177.024 18.0555L177.698 16.1747" stroke="white" stroke-width="0.1"/>
<path d="M177.024 18.0555L176.651 15.7133" stroke="white" stroke-width="0.1"/>
<path d="M177.024 18.0555L175.276 18.89" stroke="white" stroke-width="0.1"/>
<path d="M177.024 18.0555L175.08 17.0385" stroke="white" stroke-width="0.1"/>
<path d="M177.024 18.0555L175.899 16.0121" stroke="white" stroke-width="0.1"/>
<ellipse cx="179.367" cy="17.7926" rx="0.182648" ry="0.180707" transform="rotate(95.1632 179.367 17.7926)" fill="#FEE035"/>
<ellipse cx="179.268" cy="18.884" rx="0.182648" ry="0.180707" transform="rotate(95.1632 179.268 18.884)" fill="#FEE035"/>
<ellipse cx="178.482" cy="19.5466" rx="0.182647" ry="0.180707" transform="rotate(95.1632 178.482 19.5466)" fill="#FEE035"/>
<ellipse cx="177.337" cy="20.1766" rx="0.182648" ry="0.180707" transform="rotate(95.1632 177.337 20.1766)" fill="#FEE035"/>
<ellipse cx="175.276" cy="18.89" rx="0.182647" ry="0.180707" transform="rotate(95.1632 175.276 18.89)" fill="#FEE035"/>
<ellipse cx="175.08" cy="17.0385" rx="0.182647" ry="0.180707" transform="rotate(95.1632 175.08 17.0385)" fill="#FEE035"/>
<ellipse cx="175.899" cy="16.0121" rx="0.182648" ry="0.180707" transform="rotate(95.1632 175.899 16.0121)" fill="#FEE035"/>
<ellipse cx="176.651" cy="15.7133" rx="0.182648" ry="0.180707" transform="rotate(95.1632 176.651 15.7133)" fill="#FEE035"/>
<ellipse cx="177.698" cy="16.1747" rx="0.182648" ry="0.180707" transform="rotate(95.1632 177.698 16.1747)" fill="#FEE035"/>
<ellipse cx="178.712" cy="16.9999" rx="0.182648" ry="0.180707" transform="rotate(95.1632 178.712 16.9999)" fill="#FEE035"/>
<path d="M177.341 18.5443L177.58 17.8965L176.983 17.5079L176.491 17.9655L176.707 18.5707L177.341 18.5443Z" fill="white" stroke="black" stroke-width="0.1"/>
<path d="M136.501 24.584L136.84 25.6161L136.94 26.5541L136.647 27.6371L136.048 28.5583L135.534 28.999L135.01 29.2797L133.867 29.1579L134.142 28.0903L133.535 29.0071L132.852 28.2992L132.599 27.6654L132.629 27.0052L132.905 25.9369L133.574 25.025L134.184 24.4093L135.173 23.9806L136.501 24.584Z" fill="#FDD8EE" stroke="black" stroke-width="0.1"/>
<path d="M137.506 23.4068L138.588 23.4008L139.512 23.5946L140.461 24.2073L141.167 25.0642L141.439 25.6907L141.556 26.2779L141.111 27.3328L140.172 26.7406L140.872 27.6036L140 28.0381L139.323 28.0847L138.702 27.8521L137.762 27.2594L137.085 26.3393L136.673 25.5672L136.523 24.6162L137.506 23.4068Z" fill="#FFBDE5" stroke="black" stroke-width="0.1"/>
<path d="M135.2 24.0169L134.402 24.7403L133.59 25.2073L132.48 25.375L131.389 25.197L130.771 24.9051L130.295 24.5394L129.926 23.4472L131.014 23.2705L129.923 23.0837L130.281 22.1765L130.752 21.6914L131.366 21.4546L132.456 21.2779L133.568 21.5227L134.385 21.8321L135.191 22.5629L135.2 24.0169Z" fill="#FDD8EE" stroke="black" stroke-width="0.1"/>
<path d="M136.608 22.3054L136.989 21.3236L137.465 20.5155L138.344 19.8244L139.377 19.4452L140.055 19.3985L140.647 19.4858L141.502 20.2623L140.645 20.9511L141.682 20.5801L141.816 21.551L141.645 22.2075L141.229 22.7163L140.371 23.4055L139.288 23.736L138.428 23.8654L137.372 23.62L136.608 22.3054Z" fill="#FDD8EE" stroke="black" stroke-width="0.1"/>
<path d="M135.226 22.6283L134.317 22.0316L133.651 21.3581L133.197 20.3246L133.081 19.2245L133.201 18.5558L133.429 18.0059L134.387 17.3826L134.845 18.3937L134.738 17.2922L135.709 17.4182L136.302 17.7564L136.693 18.2937L137.151 19.3056L137.207 20.4417L137.123 21.3083L136.629 22.2666L135.226 22.6283Z" fill="#FFBDE5" stroke="black" stroke-width="0.1"/>
<path d="M137.331 23.6256L136.608 22.3054L135.182 22.6238L135.259 24.0421L136.523 24.6162L137.331 23.6256Z" fill="#FF9EE2" stroke="black" stroke-width="0.1"/>
<path d="M136.159 23.3601L138.243 23.2829" stroke="white" stroke-width="0.1"/>
<path d="M136.159 23.3601L137.939 24.5546" stroke="white" stroke-width="0.1"/>
<path d="M136.159 23.3601L138.281 22.2559" stroke="white" stroke-width="0.1"/>
<path d="M136.159 23.3601L137.406 21.5715" stroke="white" stroke-width="0.1"/>
<path d="M136.159 23.3601L136.512 21.4006" stroke="white" stroke-width="0.1"/>
<path d="M136.159 23.3601L135.22 21.5967" stroke="white" stroke-width="0.1"/>
<path d="M136.159 23.3601L134.174 22.0617" stroke="white" stroke-width="0.1"/>
<path d="M136.159 23.3601L135.601 25.2157" stroke="white" stroke-width="0.1"/>
<path d="M136.159 23.3601L134.099 24.1158" stroke="white" stroke-width="0.1"/>
<path d="M136.159 23.3601L133.889 22.8199" stroke="white" stroke-width="0.1"/>
<ellipse cx="137.539" cy="21.4492" rx="0.182648" ry="0.180707" transform="rotate(47.4009 137.539 21.4492)" fill="#FEE035"/>
<ellipse cx="138.281" cy="22.2559" rx="0.182648" ry="0.180707" transform="rotate(47.4009 138.281 22.2559)" fill="#FEE035"/>
<ellipse cx="138.243" cy="23.2829" rx="0.182647" ry="0.180707" transform="rotate(47.4009 138.243 23.2829)" fill="#FEE035"/>
<ellipse cx="137.939" cy="24.5546" rx="0.182648" ry="0.180707" transform="rotate(47.4009 137.939 24.5546)" fill="#FEE035"/>
<ellipse cx="135.601" cy="25.2157" rx="0.182647" ry="0.180707" transform="rotate(47.4009 135.601 25.2157)" fill="#FEE035"/>
<ellipse cx="134.099" cy="24.1158" rx="0.182647" ry="0.180707" transform="rotate(47.4009 134.099 24.1158)" fill="#FEE035"/>
<ellipse cx="133.889" cy="22.8199" rx="0.182648" ry="0.180707" transform="rotate(47.4009 133.889 22.8199)" fill="#FEE035"/>
<ellipse cx="134.174" cy="22.0617" rx="0.182648" ry="0.180707" transform="rotate(47.4009 134.174 22.0617)" fill="#FEE035"/>
<ellipse cx="135.22" cy="21.5967" rx="0.182648" ry="0.180707" transform="rotate(47.4009 135.22 21.5967)" fill="#FEE035"/>
<ellipse cx="136.512" cy="21.4007" rx="0.182648" ry="0.180707" transform="rotate(47.4009 136.512 21.4007)" fill="#FEE035"/>
<path d="M136.734 23.4543L136.414 22.842L135.726 23.0221L135.734 23.6941L136.327 23.9412L136.734 23.4543Z" fill="white" stroke="black" stroke-width="0.1"/>
<path d="M149.348 22.1315L148.812 23.0763L148.184 23.7805L147.186 24.2922L146.101 24.4674L145.429 24.3834L144.869 24.1841L144.191 23.2558L145.167 22.7421L144.079 22.9086L144.144 21.9271L144.444 21.3137L144.953 20.8926L145.929 20.3787L147.054 20.261L147.92 20.2985L148.902 20.7426L149.348 22.1315Z" fill="#FDD8EE" stroke="black" stroke-width="0.1"/>
<path d="M150.895 22.0845L151.627 22.8815L152.104 23.6953L152.289 24.8098L152.129 25.9085L151.848 26.5315L151.492 27.0128L150.412 27.3924L150.219 26.2991L150.05 27.3972L149.143 27.0439L148.653 26.5737L148.408 25.9577L148.215 24.8636L148.441 23.7437L148.736 22.9197L149.339 22.1695L150.895 22.0845Z" fill="#FFBDE5" stroke="black" stroke-width="0.1"/>
<path d="M148.893 20.787L147.821 20.6826L146.93 20.3949L146.06 19.6863L145.458 18.7587L145.259 18.1053L145.209 17.507L145.77 16.4991L146.632 17.1862L146.037 16.2531L146.949 15.9082L147.625 15.9307L148.213 16.2263L149.076 16.914L149.643 17.9018L149.963 18.7148L149.964 19.8031L148.893 20.787Z" fill="#FDD8EE" stroke="black" stroke-width="0.1"/>
<path d="M151.107 20.6787L152.09 20.3014L153.008 20.1103L154.111 20.2967L155.086 20.8066L155.576 21.277L155.909 21.7737L155.909 22.9287L154.823 22.7574L155.795 23.2755L155.166 24.0274L154.565 24.3423L153.909 24.3761L152.822 24.2045L151.849 23.6247L151.175 23.0752L150.647 22.128L151.107 20.6787Z" fill="#FDD8EE" stroke="black" stroke-width="0.1"/>
<path d="M149.939 19.8731L149.77 18.7987L149.821 17.8533L150.281 16.8221L151.017 15.997L151.593 15.6359L152.153 15.4352L153.259 15.7257L152.818 16.7441L153.562 15.9246L154.121 16.7283L154.269 17.3947L154.134 18.0452L153.693 19.0643L152.889 19.8698L152.192 20.3903L151.15 20.6688L149.939 19.8731Z" fill="#FFBDE5" stroke="black" stroke-width="0.1"/>
<path d="M150.615 22.1015L151.107 20.6787L149.913 19.8373L148.914 20.8474L149.339 22.1695L150.615 22.1015Z" fill="#FF9EE2" stroke="black" stroke-width="0.1"/>
<path d="M150.024 21.0555L151.482 22.5466" stroke="white" stroke-width="0.1"/>
<path d="M150.024 21.0555L150.337 23.1766" stroke="white" stroke-width="0.1"/>
<path d="M150.024 21.0555L152.268 21.884" stroke="white" stroke-width="0.1"/>
<path d="M150.024 21.0555L152.187 20.7763" stroke="white" stroke-width="0.1"/>
<path d="M150.024 21.0555L151.712 19.9999" stroke="white" stroke-width="0.1"/>
<path d="M150.024 21.0555L150.698 19.1747" stroke="white" stroke-width="0.1"/>
<path d="M150.024 21.0555L149.651 18.7133" stroke="white" stroke-width="0.1"/>
<path d="M150.024 21.0555L148.276 21.89" stroke="white" stroke-width="0.1"/>
<path d="M150.024 21.0555L148.08 20.0385" stroke="white" stroke-width="0.1"/>
<path d="M150.024 21.0555L148.899 19.0121" stroke="white" stroke-width="0.1"/>
<ellipse cx="152.367" cy="20.7926" rx="0.182648" ry="0.180707" transform="rotate(95.1632 152.367 20.7926)" fill="#FEE035"/>
<ellipse cx="152.268" cy="21.884" rx="0.182648" ry="0.180707" transform="rotate(95.1632 152.268 21.884)" fill="#FEE035"/>
<ellipse cx="151.482" cy="22.5466" rx="0.182647" ry="0.180707" transform="rotate(95.1632 151.482 22.5466)" fill="#FEE035"/>
<ellipse cx="150.337" cy="23.1766" rx="0.182648" ry="0.180707" transform="rotate(95.1632 150.337 23.1766)" fill="#FEE035"/>
<ellipse cx="148.276" cy="21.8901" rx="0.182647" ry="0.180707" transform="rotate(95.1632 148.276 21.8901)" fill="#FEE035"/>
<ellipse cx="148.08" cy="20.0385" rx="0.182647" ry="0.180707" transform="rotate(95.1632 148.08 20.0385)" fill="#FEE035"/>
<ellipse cx="148.899" cy="19.0121" rx="0.182648" ry="0.180707" transform="rotate(95.1632 148.899 19.0121)" fill="#FEE035"/>
<ellipse cx="149.651" cy="18.7133" rx="0.182648" ry="0.180707" transform="rotate(95.1632 149.651 18.7133)" fill="#FEE035"/>
<ellipse cx="150.698" cy="19.1747" rx="0.182648" ry="0.180707" transform="rotate(95.1632 150.698 19.1747)" fill="#FEE035"/>
<ellipse cx="151.712" cy="19.9999" rx="0.182648" ry="0.180707" transform="rotate(95.1632 151.712 19.9999)" fill="#FEE035"/>
<path d="M150.341 21.5443L150.58 20.8965L149.983 20.5079L149.491 20.9655L149.707 21.5707L150.341 21.5443Z" fill="white" stroke="black" stroke-width="0.1"/>
<path d="M183.348 16.1315L182.812 17.0763L182.184 17.7805L181.186 18.2922L180.101 18.4674L179.429 18.3835L178.869 18.1841L178.191 17.2558L179.167 16.7421L178.079 16.9086L178.144 15.9271L178.444 15.3137L178.953 14.8926L179.929 14.3787L181.054 14.261L181.92 14.2985L182.902 14.7426L183.348 16.1315Z" fill="#FDD8EE" stroke="black" stroke-width="0.1"/>
<path d="M184.895 16.0845L185.627 16.8815L186.104 17.6953L186.289 18.8098L186.129 19.9085L185.848 20.5315L185.492 21.0128L184.412 21.3924L184.219 20.2991L184.05 21.3972L183.143 21.0439L182.653 20.5737L182.408 19.9577L182.215 18.8636L182.441 17.7437L182.736 16.9197L183.339 16.1695L184.895 16.0845Z" fill="#FFBDE5" stroke="black" stroke-width="0.1"/>
<path d="M182.893 14.787L181.821 14.6826L180.929 14.3949L180.06 13.6863L179.458 12.7587L179.259 12.1053L179.209 11.507L179.77 10.4991L180.632 11.1862L180.037 10.2531L180.949 9.90819L181.625 9.93074L182.213 10.2263L183.076 10.914L183.643 11.9018L183.963 12.7148L183.964 13.8031L182.893 14.787Z" fill="#FDD8EE" stroke="black" stroke-width="0.1"/>
<path d="M185.107 14.6787L186.09 14.3014L187.008 14.1103L188.111 14.2967L189.086 14.8066L189.576 15.277L189.909 15.7737L189.909 16.9287L188.823 16.7574L189.795 17.2755L189.166 18.0274L188.565 18.3423L187.909 18.3761L186.822 18.2045L185.849 17.6247L185.175 17.0752L184.647 16.128L185.107 14.6787Z" fill="#FDD8EE" stroke="black" stroke-width="0.1"/>
<path d="M183.939 13.8731L183.77 12.7987L183.821 11.8533L184.28 10.8221L185.017 9.99701L185.593 9.63591L186.153 9.43515L187.259 9.72566L186.818 10.7441L187.562 9.9246L188.121 10.7283L188.269 11.3947L188.134 12.0452L187.693 13.0643L186.889 13.8698L186.192 14.3903L185.15 14.6688L183.939 13.8731Z" fill="#FFBDE5" stroke="black" stroke-width="0.1"/>
<path d="M184.615 16.1015L185.107 14.6787L183.913 13.8373L182.914 14.8474L183.339 16.1695L184.615 16.1015Z" fill="#FF9EE2" stroke="black" stroke-width="0.1"/>
<path d="M184.024 15.0555L185.482 16.5466" stroke="white" stroke-width="0.1"/>
<path d="M184.024 15.0555L184.337 17.1766" stroke="white" stroke-width="0.1"/>
<path d="M184.024 15.0555L186.268 15.884" stroke="white" stroke-width="0.1"/>
<path d="M184.024 15.0555L186.187 14.7763" stroke="white" stroke-width="0.1"/>
<path d="M184.024 15.0555L185.712 13.9999" stroke="white" stroke-width="0.1"/>
<path d="M184.024 15.0555L184.698 13.1747" stroke="white" stroke-width="0.1"/>
<path d="M184.024 15.0555L183.651 12.7133" stroke="white" stroke-width="0.1"/>
<path d="M184.024 15.0555L182.276 15.89" stroke="white" stroke-width="0.1"/>
<path d="M184.024 15.0555L182.08 14.0385" stroke="white" stroke-width="0.1"/>
<path d="M184.024 15.0555L182.899 13.0121" stroke="white" stroke-width="0.1"/>
<ellipse cx="186.367" cy="14.7926" rx="0.182648" ry="0.180707" transform="rotate(95.1632 186.367 14.7926)" fill="#FEE035"/>
<ellipse cx="186.268" cy="15.884" rx="0.182648" ry="0.180707" transform="rotate(95.1632 186.268 15.884)" fill="#FEE035"/>
<ellipse cx="185.482" cy="16.5466" rx="0.182647" ry="0.180707" transform="rotate(95.1632 185.482 16.5466)" fill="#FEE035"/>
<ellipse cx="184.337" cy="17.1766" rx="0.182648" ry="0.180707" transform="rotate(95.1632 184.337 17.1766)" fill="#FEE035"/>
<ellipse cx="182.276" cy="15.89" rx="0.182647" ry="0.180707" transform="rotate(95.1632 182.276 15.89)" fill="#FEE035"/>
<ellipse cx="182.08" cy="14.0385" rx="0.182647" ry="0.180707" transform="rotate(95.1632 182.08 14.0385)" fill="#FEE035"/>
<ellipse cx="182.899" cy="13.0121" rx="0.182648" ry="0.180707" transform="rotate(95.1632 182.899 13.0121)" fill="#FEE035"/>
<ellipse cx="183.651" cy="12.7133" rx="0.182648" ry="0.180707" transform="rotate(95.1632 183.651 12.7133)" fill="#FEE035"/>
<ellipse cx="184.698" cy="13.1747" rx="0.182648" ry="0.180707" transform="rotate(95.1632 184.698 13.1747)" fill="#FEE035"/>
<ellipse cx="185.712" cy="13.9999" rx="0.182648" ry="0.180707" transform="rotate(95.1632 185.712 13.9999)" fill="#FEE035"/>
<path d="M184.341 15.5443L184.58 14.8965L183.983 14.5079L183.491 14.9655L183.707 15.5707L184.341 15.5443Z" fill="white" stroke="black" stroke-width="0.1"/>
<path d="M141.501 21.3849L141.84 22.417L141.94 23.3549L141.647 24.4379L141.048 25.3591L140.534 25.7999L140.01 26.0806L138.867 25.9588L139.142 24.8911L138.535 25.8079L137.852 25.1L137.599 24.4662L137.629 23.8061L137.905 22.7377L138.574 21.8259L139.184 21.2102L140.173 20.7815L141.501 21.3849Z" fill="#FDD8EE" stroke="black" stroke-width="0.1"/>
<path d="M142.506 20.2076L143.588 20.2016L144.512 20.3954L145.461 21.0082L146.167 21.8651L146.439 22.4915L146.556 23.0788L146.111 24.1337L145.172 23.5415L145.872 24.4045L145 24.8389L144.323 24.8855L143.702 24.6529L142.762 24.0602L142.085 23.1402L141.673 22.368L141.523 21.4171L142.506 20.2076Z" fill="#FFBDE5" stroke="black" stroke-width="0.1"/>
<path d="M140.2 20.8178L139.402 21.5411L138.59 22.0081L137.48 22.1758L136.389 21.9979L135.771 21.706L135.295 21.3403L134.926 20.248L136.014 20.0713L134.923 19.8845L135.281 18.9774L135.752 18.4922L136.366 18.2554L137.456 18.0787L138.568 18.3235L139.385 18.633L140.191 19.3637L140.2 20.8178Z" fill="#FDD8EE" stroke="black" stroke-width="0.1"/>
<path d="M141.608 19.1062L141.989 18.1244L142.465 17.3164L143.344 16.6252L144.377 16.2461L145.055 16.1993L145.647 16.2866L146.502 17.0632L145.645 17.7519L146.682 17.3809L146.816 18.3519L146.645 19.0083L146.229 19.5172L145.371 20.2063L144.288 20.5369L143.428 20.6662L142.372 20.4208L141.608 19.1062Z" fill="#FDD8EE" stroke="black" stroke-width="0.1"/>
<path d="M140.226 19.4291L139.317 18.8324L138.651 18.159L138.197 17.1254L138.081 16.0254L138.201 15.3566L138.429 14.8068L139.387 14.1834L139.845 15.1945L139.738 14.093L140.709 14.2191L141.302 14.5573L141.693 15.0946L142.151 16.1064L142.207 17.2426L142.123 18.1091L141.629 19.0675L140.226 19.4291Z" fill="#FFBDE5" stroke="black" stroke-width="0.1"/>
<path d="M142.331 20.4264L141.608 19.1062L140.182 19.4246L140.259 20.8429L141.523 21.4171L142.331 20.4264Z" fill="#FF9EE2" stroke="black" stroke-width="0.1"/>
<path d="M141.159 20.1609L143.243 20.0838" stroke="white" stroke-width="0.1"/>
<path d="M141.159 20.1609L142.939 21.3554" stroke="white" stroke-width="0.1"/>
<path d="M141.159 20.1609L143.281 19.0567" stroke="white" stroke-width="0.1"/>
<path d="M141.159 20.1609L142.406 18.3723" stroke="white" stroke-width="0.1"/>
<path d="M141.159 20.1609L141.512 18.2015" stroke="white" stroke-width="0.1"/>
<path d="M141.159 20.1609L140.22 18.3976" stroke="white" stroke-width="0.1"/>
<path d="M141.159 20.1609L139.174 18.8626" stroke="white" stroke-width="0.1"/>
<path d="M141.159 20.1609L140.601 22.0165" stroke="white" stroke-width="0.1"/>
<path d="M141.159 20.1609L139.099 20.9167" stroke="white" stroke-width="0.1"/>
<path d="M141.159 20.1609L138.889 19.6207" stroke="white" stroke-width="0.1"/>
<ellipse cx="142.539" cy="18.25" rx="0.182648" ry="0.180707" transform="rotate(47.4009 142.539 18.25)" fill="#FEE035"/>
<ellipse cx="143.281" cy="19.0567" rx="0.182648" ry="0.180707" transform="rotate(47.4009 143.281 19.0567)" fill="#FEE035"/>
<ellipse cx="143.243" cy="20.0838" rx="0.182647" ry="0.180707" transform="rotate(47.4009 143.243 20.0838)" fill="#FEE035"/>
<ellipse cx="142.939" cy="21.3554" rx="0.182648" ry="0.180707" transform="rotate(47.4009 142.939 21.3554)" fill="#FEE035"/>
<ellipse cx="140.601" cy="22.0165" rx="0.182647" ry="0.180707" transform="rotate(47.4009 140.601 22.0165)" fill="#FEE035"/>
<ellipse cx="139.099" cy="20.9167" rx="0.182647" ry="0.180707" transform="rotate(47.4009 139.099 20.9167)" fill="#FEE035"/>
<ellipse cx="138.889" cy="19.6207" rx="0.182648" ry="0.180707" transform="rotate(47.4009 138.889 19.6207)" fill="#FEE035"/>
<ellipse cx="139.174" cy="18.8626" rx="0.182648" ry="0.180707" transform="rotate(47.4009 139.174 18.8626)" fill="#FEE035"/>
<ellipse cx="140.22" cy="18.3976" rx="0.182648" ry="0.180707" transform="rotate(47.4009 140.22 18.3976)" fill="#FEE035"/>
<ellipse cx="141.512" cy="18.2015" rx="0.182648" ry="0.180707" transform="rotate(47.4009 141.512 18.2015)" fill="#FEE035"/>
<path d="M141.734 20.2552L141.414 19.6429L140.726 19.823L140.734 20.4949L141.327 20.742L141.734 20.2552Z" fill="white" stroke="black" stroke-width="0.1"/>
<path d="M81.348 20.1315L80.8118 21.0763L80.1843 21.7805L79.1861 22.2922L78.1009 22.4674L77.4294 22.3834L76.8692 22.1841L76.1909 21.2558L77.1666 20.7421L76.0794 20.9086L76.1444 19.9271L76.4435 19.3137L76.9528 18.8926L77.9293 18.3787L79.054 18.261L79.9197 18.2985L80.9019 18.7426L81.348 20.1315Z" fill="#FDD8EE" stroke="black" stroke-width="0.1"/>
<path d="M82.8954 20.0845L83.6272 20.8815L84.1043 21.6953L84.2885 22.8098L84.1288 23.9085L83.8482 24.5315L83.4921 25.0128L82.4118 25.3924L82.219 24.2991L82.0504 25.3972L81.1428 25.0439L80.653 24.5737L80.4079 23.9577L80.215 22.8636L80.441 21.7437L80.7358 20.9197L81.339 20.1695L82.8954 20.0845Z" fill="#FFBDE5" stroke="black" stroke-width="0.1"/>
<path d="M80.8932 18.787L79.8215 18.6826L78.9295 18.3949L78.0596 17.6863L77.4577 16.7587L77.2587 16.1053L77.2095 15.507L77.7696 14.4991L78.6321 15.1862L78.0373 14.2531L78.9493 13.9082L79.6252 13.9307L80.2134 14.2263L81.0764 14.914L81.6426 15.9018L81.9628 16.7148L81.9639 17.8031L80.8932 18.787Z" fill="#FDD8EE" stroke="black" stroke-width="0.1"/>
<path d="M83.1067 18.6787L84.0903 18.3014L85.0082 18.1103L86.1109 18.2967L87.0859 18.8066L87.5763 19.277L87.9093 19.7737L87.9091 20.9287L86.8233 20.7574L87.7948 21.2755L87.166 22.0274L86.5653 22.3423L85.9087 22.3761L84.8221 22.2045L83.8491 21.6247L83.1755 21.0752L82.647 20.128L83.1067 18.6787Z" fill="#FDD8EE" stroke="black" stroke-width="0.1"/>
<path d="M81.9391 17.8731L81.7696 16.7987L81.8208 15.8533L82.2805 14.8221L83.0173 13.997L83.5927 13.6359L84.1531 13.4352L85.2588 13.7257L84.8178 14.7441L85.5615 13.9246L86.121 14.7283L86.2692 15.3947L86.1341 16.0452L85.6927 17.0643L84.8894 17.8698L84.1916 18.3903L83.1501 18.6688L81.9391 17.8731Z" fill="#FFBDE5" stroke="black" stroke-width="0.1"/>
<path d="M82.6153 20.1015L83.1067 18.6787L81.9126 17.8373L80.9141 18.8474L81.339 20.1695L82.6153 20.1015Z" fill="#FF9EE2" stroke="black" stroke-width="0.1"/>
<path d="M82.0242 19.0555L83.4823 20.5466" stroke="white" stroke-width="0.1"/>
<path d="M82.0242 19.0555L82.3367 21.1766" stroke="white" stroke-width="0.1"/>
<path d="M82.0242 19.0555L84.2679 19.884" stroke="white" stroke-width="0.1"/>
<path d="M82.0242 19.0555L84.1866 18.7763" stroke="white" stroke-width="0.1"/>
<path d="M82.0242 19.0555L83.7124 17.9999" stroke="white" stroke-width="0.1"/>
<path d="M82.0242 19.0555L82.6983 17.1747" stroke="white" stroke-width="0.1"/>
<path d="M82.0242 19.0555L81.6513 16.7133" stroke="white" stroke-width="0.1"/>
<path d="M82.0242 19.0555L80.2756 19.89" stroke="white" stroke-width="0.1"/>
<path d="M82.0242 19.0555L80.08 18.0385" stroke="white" stroke-width="0.1"/>
<path d="M82.0242 19.0555L80.8985 17.0121" stroke="white" stroke-width="0.1"/>
<ellipse cx="84.3665" cy="18.7926" rx="0.182648" ry="0.180707" transform="rotate(95.1632 84.3665 18.7926)" fill="#FEE035"/>
<ellipse cx="84.2679" cy="19.884" rx="0.182648" ry="0.180707" transform="rotate(95.1632 84.2679 19.884)" fill="#FEE035"/>
<ellipse cx="83.4822" cy="20.5466" rx="0.182647" ry="0.180707" transform="rotate(95.1632 83.4822 20.5466)" fill="#FEE035"/>
<ellipse cx="82.3367" cy="21.1766" rx="0.182648" ry="0.180707" transform="rotate(95.1632 82.3367 21.1766)" fill="#FEE035"/>
<ellipse cx="80.2756" cy="19.89" rx="0.182647" ry="0.180707" transform="rotate(95.1632 80.2756 19.89)" fill="#FEE035"/>
<ellipse cx="80.08" cy="18.0385" rx="0.182647" ry="0.180707" transform="rotate(95.1632 80.08 18.0385)" fill="#FEE035"/>
<ellipse cx="80.8985" cy="17.0121" rx="0.182648" ry="0.180707" transform="rotate(95.1632 80.8985 17.0121)" fill="#FEE035"/>
<ellipse cx="81.6513" cy="16.7133" rx="0.182648" ry="0.180707" transform="rotate(95.1632 81.6513 16.7133)" fill="#FEE035"/>
<ellipse cx="82.6983" cy="17.1747" rx="0.182648" ry="0.180707" transform="rotate(95.1632 82.6983 17.1747)" fill="#FEE035"/>
<ellipse cx="83.7124" cy="17.9999" rx="0.182648" ry="0.180707" transform="rotate(95.1632 83.7124 17.9999)" fill="#FEE035"/>
<path d="M82.3407 19.5443L82.5795 18.8965L81.9835 18.5079L81.4913 18.9655L81.7071 19.5707L82.3407 19.5443Z" fill="white" stroke="black" stroke-width="0.1"/>
<path d="M68.3125 20.5738L67.7828 21.4463L67.1604 22.0951L66.1661 22.563L65.0827 22.7183L64.411 22.6361L63.8499 22.4476L63.1659 21.5823L64.1376 21.1124L63.0522 21.2596L63.1107 20.3501L63.4056 19.7832L63.9118 19.3961L64.8843 18.926L66.0076 18.8243L66.873 18.8647L67.8576 19.283L68.3125 20.5738Z" fill="#FDD8EE" stroke="black" stroke-width="0.1"/>
<path d="M69.8587 20.5404L70.5953 21.2842L71.0775 22.0419L71.269 23.0765L71.1165 24.0942L70.8402 24.67L70.4874 25.1139L69.4103 25.4588L69.2104 24.4438L69.0492 25.4608L68.1398 25.1273L67.6471 24.6881L67.3981 24.1153L67.1982 23.0996L67.4167 22.0627L67.7059 21.3006L68.3038 20.609L69.8587 20.5404Z" fill="#FFBDE5" stroke="black" stroke-width="0.1"/>
<path d="M67.8492 19.3241L66.7774 19.2203L65.8841 18.9477L65.01 18.2849L64.4023 17.4208L64.1992 16.8137L64.1461 16.2586L64.6992 15.3277L65.5658 15.9705L64.9651 15.1014L65.8744 14.7876L66.5499 14.813L67.1397 15.0909L68.0068 15.7342L68.5791 16.6538L68.9046 17.4098L68.9128 18.4189L67.8492 19.3241Z" fill="#FDD8EE" stroke="black" stroke-width="0.1"/>
<path d="M70.0606 19.2383L71.0411 18.8949L71.9572 18.7238L73.0606 18.9038L74.0383 19.383L74.5315 19.8224L74.8676 20.2851L74.875 21.3561L73.7887 21.1901L74.763 21.6769L74.1395 22.3699L73.5413 22.658L72.8852 22.685L71.7982 22.5188L70.822 21.9747L70.1451 21.4608L69.6107 20.5791L70.0606 19.2383Z" fill="#FDD8EE" stroke="black" stroke-width="0.1"/>
<path d="M68.8884 18.4836L68.712 17.4863L68.7569 16.61L69.2096 15.6569L69.9405 14.8967L70.5132 14.5657L71.0719 14.3832L72.1789 14.6598L71.7449 15.6013L72.4827 14.8463L73.0471 15.5952L73.1997 16.2141L73.069 16.8163L72.6345 17.7584L71.837 18.4999L71.143 18.9779L70.1039 19.2294L68.8884 18.4836Z" fill="#FFBDE5" stroke="black" stroke-width="0.1"/>
<path d="M69.5789 20.5542L70.0607 19.2383L68.8618 18.4502L67.8705 19.3803L68.3038 20.609L69.5789 20.5542Z" fill="#FF9EE2" stroke="black" stroke-width="0.1"/>
<path d="M68.9812 19.5805L70.4483 20.9727" stroke="white" stroke-width="0.1"/>
<path d="M68.9812 19.5805L69.3075 21.5493" stroke="white" stroke-width="0.1"/>
<path d="M68.9813 19.5805L71.2291 20.3635" stroke="white" stroke-width="0.1"/>
<path d="M68.9813 19.5805L71.1405 19.3359" stroke="white" stroke-width="0.1"/>
<path d="M68.9812 19.5805L70.6615 18.6128" stroke="white" stroke-width="0.1"/>
<path d="M68.9812 19.5805L69.6426 17.841" stroke="white" stroke-width="0.1"/>
<path d="M68.9813 19.5805L68.5932 17.4063" stroke="white" stroke-width="0.1"/>
<path d="M68.9812 19.5805L67.2392 20.3428" stroke="white" stroke-width="0.1"/>
<path d="M68.9812 19.5805L67.0316 18.6247" stroke="white" stroke-width="0.1"/>
<path d="M68.9813 19.5805L67.8428 17.6784" stroke="white" stroke-width="0.1"/>
<ellipse cx="71.3205" cy="19.3521" rx="0.169247" ry="0.180707" transform="rotate(95.1632 71.3205 19.3521)" fill="#FEE035"/>
<ellipse cx="71.2291" cy="20.3635" rx="0.169247" ry="0.180707" transform="rotate(95.1632 71.2291 20.3635)" fill="#FEE035"/>
<ellipse cx="70.4483" cy="20.9727" rx="0.169247" ry="0.180707" transform="rotate(95.1632 70.4483 20.9727)" fill="#FEE035"/>
<ellipse cx="69.3075" cy="21.5493" rx="0.169246" ry="0.180707" transform="rotate(95.1632 69.3075 21.5493)" fill="#FEE035"/>
<ellipse cx="67.2392" cy="20.3428" rx="0.169247" ry="0.180707" transform="rotate(95.1632 67.2392 20.3428)" fill="#FEE035"/>
<ellipse cx="67.0316" cy="18.6247" rx="0.169246" ry="0.180707" transform="rotate(95.1632 67.0316 18.6247)" fill="#FEE035"/>
<ellipse cx="67.8428" cy="17.6784" rx="0.169247" ry="0.180707" transform="rotate(95.1632 67.8428 17.6784)" fill="#FEE035"/>
<ellipse cx="68.5932" cy="17.4063" rx="0.169247" ry="0.180707" transform="rotate(95.1632 68.5932 17.4063)" fill="#FEE035"/>
<ellipse cx="69.6426" cy="17.841" rx="0.169247" ry="0.180707" transform="rotate(95.1632 69.6426 17.841)" fill="#FEE035"/>
<ellipse cx="70.6615" cy="18.6128" rx="0.169247" ry="0.180707" transform="rotate(95.1632 70.6615 18.6128)" fill="#FEE035"/>
<path d="M69.3008 20.0358L69.5352 19.4367L68.937 19.0725L68.4481 19.4936L68.6678 20.0561L69.3008 20.0358Z" fill="white" stroke="black" stroke-width="0.1"/>
<path d="M74.348 18.1315L73.8118 19.0763L73.1843 19.7805L72.1861 20.2922L71.1009 20.4674L70.4294 20.3834L69.8692 20.1841L69.1909 19.2558L70.1666 18.7421L69.0794 18.9086L69.1444 17.9271L69.4435 17.3137L69.9528 16.8926L70.9293 16.3787L72.054 16.261L72.9197 16.2985L73.9019 16.7426L74.348 18.1315Z" fill="#FDD8EE" stroke="black" stroke-width="0.1"/>
<path d="M75.8954 18.0845L76.6272 18.8815L77.1043 19.6953L77.2885 20.8098L77.1288 21.9085L76.8482 22.5315L76.4921 23.0128L75.4118 23.3924L75.219 22.2991L75.0504 23.3972L74.1428 23.0439L73.653 22.5737L73.4079 21.9577L73.215 20.8636L73.441 19.7437L73.7358 18.9197L74.339 18.1695L75.8954 18.0845Z" fill="#FFBDE5" stroke="black" stroke-width="0.1"/>
<path d="M73.8932 16.787L72.8215 16.6826L71.9295 16.3949L71.0596 15.6863L70.4577 14.7587L70.2587 14.1053L70.2095 13.507L70.7696 12.4991L71.6321 13.1862L71.0373 12.2531L71.9493 11.9082L72.6252 11.9307L73.2134 12.2263L74.0764 12.914L74.6426 13.9018L74.9628 14.7148L74.9639 15.8031L73.8932 16.787Z" fill="#FDD8EE" stroke="black" stroke-width="0.1"/>
<path d="M76.1067 16.6787L77.0903 16.3014L78.0082 16.1103L79.1109 16.2967L80.0859 16.8066L80.5763 17.277L80.9093 17.7737L80.9091 18.9287L79.8233 18.7574L80.7948 19.2755L80.166 20.0274L79.5653 20.3423L78.9087 20.3761L77.8221 20.2045L76.8491 19.6247L76.1755 19.0752L75.647 18.128L76.1067 16.6787Z" fill="#FDD8EE" stroke="black" stroke-width="0.1"/>
<path d="M74.9391 15.8731L74.7696 14.7987L74.8208 13.8533L75.2805 12.8221L76.0173 11.997L76.5927 11.6359L77.1531 11.4352L78.2588 11.7257L77.8178 12.7441L78.5615 11.9246L79.121 12.7283L79.2692 13.3947L79.1341 14.0452L78.6927 15.0643L77.8894 15.8698L77.1916 16.3903L76.1501 16.6688L74.9391 15.8731Z" fill="#FFBDE5" stroke="black" stroke-width="0.1"/>
<path d="M75.6153 18.1015L76.1067 16.6787L74.9126 15.8373L73.9141 16.8474L74.339 18.1695L75.6153 18.1015Z" fill="#FF9EE2" stroke="black" stroke-width="0.1"/>
<path d="M75.0242 17.0555L76.4823 18.5466" stroke="white" stroke-width="0.1"/>
<path d="M75.0242 17.0555L75.3367 19.1766" stroke="white" stroke-width="0.1"/>
<path d="M75.0242 17.0555L77.2679 17.884" stroke="white" stroke-width="0.1"/>
<path d="M75.0242 17.0555L77.1866 16.7763" stroke="white" stroke-width="0.1"/>
<path d="M75.0242 17.0555L76.7124 15.9999" stroke="white" stroke-width="0.1"/>
<path d="M75.0242 17.0555L75.6983 15.1747" stroke="white" stroke-width="0.1"/>
<path d="M75.0242 17.0555L74.6513 14.7133" stroke="white" stroke-width="0.1"/>
<path d="M75.0242 17.0555L73.2756 17.89" stroke="white" stroke-width="0.1"/>
<path d="M75.0242 17.0555L73.08 16.0385" stroke="white" stroke-width="0.1"/>
<path d="M75.0242 17.0555L73.8985 15.0121" stroke="white" stroke-width="0.1"/>
<ellipse cx="77.3665" cy="16.7926" rx="0.182648" ry="0.180707" transform="rotate(95.1632 77.3665 16.7926)" fill="#FEE035"/>
<ellipse cx="77.2679" cy="17.884" rx="0.182648" ry="0.180707" transform="rotate(95.1632 77.2679 17.884)" fill="#FEE035"/>
<ellipse cx="76.4822" cy="18.5466" rx="0.182647" ry="0.180707" transform="rotate(95.1632 76.4822 18.5466)" fill="#FEE035"/>
<ellipse cx="75.3367" cy="19.1766" rx="0.182648" ry="0.180707" transform="rotate(95.1632 75.3367 19.1766)" fill="#FEE035"/>
<ellipse cx="73.2756" cy="17.89" rx="0.182647" ry="0.180707" transform="rotate(95.1632 73.2756 17.89)" fill="#FEE035"/>
<ellipse cx="73.08" cy="16.0385" rx="0.182647" ry="0.180707" transform="rotate(95.1632 73.08 16.0385)" fill="#FEE035"/>
<ellipse cx="73.8985" cy="15.0121" rx="0.182648" ry="0.180707" transform="rotate(95.1632 73.8985 15.0121)" fill="#FEE035"/>
<ellipse cx="74.6513" cy="14.7133" rx="0.182648" ry="0.180707" transform="rotate(95.1632 74.6513 14.7133)" fill="#FEE035"/>
<ellipse cx="75.6983" cy="15.1747" rx="0.182648" ry="0.180707" transform="rotate(95.1632 75.6983 15.1747)" fill="#FEE035"/>
<ellipse cx="76.7124" cy="15.9999" rx="0.182648" ry="0.180707" transform="rotate(95.1632 76.7124 15.9999)" fill="#FEE035"/>
<path d="M75.3407 17.5443L75.5795 16.8965L74.9835 16.5079L74.4913 16.9655L74.7071 17.5707L75.3407 17.5443Z" fill="white" stroke="black" stroke-width="0.1"/>
<path d="M92.4703 39.1086L92.935 40.0825L93.1542 40.9863L93.0106 42.0668L92.5461 43.0175L92.1031 43.4928L91.6289 43.8133L90.499 43.7981L90.6285 42.7341L90.1559 43.6812L89.3983 43.054L89.0691 42.46L89.013 41.8147L89.1427 40.75L89.6758 39.8022L90.1896 39.1479L91.0976 38.6413L92.4703 39.1086Z" fill="#FDD8EE" stroke="black" stroke-width="0.1"/>
<path d="M93.2967 37.8721L94.3502 37.7685L95.2751 37.8737L96.2795 38.3844L97.0791 39.1546L97.4263 39.7396L97.6167 40.3006L97.3203 41.3675L96.3282 40.876L97.1223 41.6527L96.3295 42.1542L95.6755 42.2608L95.0403 42.0905L94.0476 41.5985L93.2679 40.7642L92.766 40.0499L92.4961 39.138L93.2967 37.8721Z" fill="#FFBDE5" stroke="black" stroke-width="0.1"/>
<path d="M91.1287 38.6742L90.4456 39.4502L89.7146 39.9781L88.6554 40.2416L87.5688 40.167L86.9292 39.9386L86.4177 39.6257L85.9152 38.5961L86.9528 38.3258L85.8657 38.2425L86.0962 37.3273L86.4919 36.8126L87.0596 36.5266L88.098 36.2563L89.2133 36.3941L90.0499 36.6215L90.9308 37.2598L91.1287 38.6742Z" fill="#FDD8EE" stroke="black" stroke-width="0.1"/>
<path d="M92.2775 36.8813L92.5217 35.8913L92.8799 35.0619L93.6467 34.3098L94.6037 33.8475L95.2582 33.7408L95.846 33.7723L96.7802 34.4509L96.0351 35.1986L96.9968 34.7439L97.2539 35.6767L97.1731 36.3311L96.8336 36.8639L96.0879 37.612L95.0753 38.0316L94.2545 38.2352L93.1931 38.0917L92.2775 36.8813Z" fill="#FDD8EE" stroke="black" stroke-width="0.1"/>
<path d="M90.9736 37.3203L90.0098 36.8217L89.2736 36.2264L88.6962 35.2616L88.4403 34.2014L88.4697 33.5397L88.6203 32.984L89.4729 32.2908L90.0505 33.2335L89.803 32.1711L90.7656 32.2061L91.3876 32.4817L91.8383 32.9693L92.4161 33.9127L92.619 35.0134L92.6502 35.8643L92.2938 36.8416L90.9736 37.3203Z" fill="#FFBDE5" stroke="black" stroke-width="0.1"/>
<path d="M93.1539 38.1009L92.2775 36.8813L90.9298 37.32L91.1892 38.6933L92.4961 39.138L93.1539 38.1009Z" fill="#FF9EE2" stroke="black" stroke-width="0.1"/>
<path d="M91.9776 37.9483L93.9983 37.685" stroke="white" stroke-width="0.1"/>
<path d="M91.9776 37.9483L93.868 38.9501" stroke="white" stroke-width="0.1"/>
<path d="M91.9776 37.9483L93.9012 36.682" stroke="white" stroke-width="0.1"/>
<path d="M91.9776 37.9483L92.9597 36.095" stroke="white" stroke-width="0.1"/>
<path d="M91.9776 37.9483L92.0667 36.0094" stroke="white" stroke-width="0.1"/>
<path d="M91.9776 37.9483L90.8327 36.317" stroke="white" stroke-width="0.1"/>
<path d="M91.9776 37.9483L89.8746 36.864" stroke="white" stroke-width="0.1"/>
<path d="M91.9776 37.9483L91.676 39.8046" stroke="white" stroke-width="0.1"/>
<path d="M91.9776 37.9483L90.0689 38.8699" stroke="white" stroke-width="0.1"/>
<path d="M91.9776 37.9483L89.6958 37.6275" stroke="white" stroke-width="0.1"/>
<ellipse cx="93.0734" cy="35.9639" rx="0.182648" ry="0.173495" transform="rotate(40.9409 93.0734 35.9639)" fill="#FEE035"/>
<ellipse cx="93.9012" cy="36.682" rx="0.182648" ry="0.173495" transform="rotate(40.9409 93.9012 36.682)" fill="#FEE035"/>
<ellipse cx="93.9983" cy="37.685" rx="0.182647" ry="0.173496" transform="rotate(40.9409 93.9983 37.685)" fill="#FEE035"/>
<ellipse cx="93.868" cy="38.9501" rx="0.182648" ry="0.173496" transform="rotate(40.9409 93.868 38.9501)" fill="#FEE035"/>
<ellipse cx="91.676" cy="39.8046" rx="0.182647" ry="0.173496" transform="rotate(40.9409 91.676 39.8046)" fill="#FEE035"/>
<ellipse cx="90.0689" cy="38.8699" rx="0.182647" ry="0.173496" transform="rotate(40.9409 90.0689 38.8699)" fill="#FEE035"/>
<ellipse cx="89.6958" cy="37.6275" rx="0.182648" ry="0.173496" transform="rotate(40.9409 89.6958 37.6275)" fill="#FEE035"/>
<ellipse cx="89.8747" cy="36.8639" rx="0.182648" ry="0.173496" transform="rotate(40.9409 89.8747 36.8639)" fill="#FEE035"/>
<ellipse cx="90.8327" cy="36.317" rx="0.182648" ry="0.173496" transform="rotate(40.9409 90.8327 36.317)" fill="#FEE035"/>
<ellipse cx="92.0667" cy="36.0094" rx="0.182648" ry="0.173496" transform="rotate(40.9409 92.0667 36.0094)" fill="#FEE035"/>
<path d="M92.5498 37.9882L92.1592 37.4211L91.5119 37.6585L91.6071 38.3118L92.2173 38.4986L92.5498 37.9882Z" fill="white" stroke="black" stroke-width="0.1"/>
<path d="M99.0231 35.9013L99.4392 36.811L99.6308 37.6461L99.4877 38.6272L99.0516 39.476L98.6402 39.8914L98.2019 40.1641L97.1656 40.1019L97.2956 39.1353L96.852 39.9805L96.1636 39.375L95.8679 38.8183L95.8232 38.2263L95.9534 37.259L96.4523 36.4158L96.9305 35.8398L97.7688 35.4157L99.0231 35.9013Z" fill="#FDD8EE" stroke="black" stroke-width="0.1"/>
<path d="M99.7941 34.8067L100.762 34.7571L101.609 34.8927L102.525 35.4021L103.25 36.14L103.563 36.6893L103.732 37.21L103.448 38.1722L102.544 37.6807L103.264 38.4243L102.531 38.8487L101.93 38.9182L101.349 38.7355L100.444 38.2436L99.7374 37.448L99.2844 36.774L99.0464 35.9292L99.7941 34.8067Z" fill="#FFBDE5" stroke="black" stroke-width="0.1"/>
<path d="M97.7969 35.4471L97.1622 36.127L96.4861 36.5782L95.5117 36.7737L94.5157 36.6591L93.9313 36.4232L93.4654 36.1154L93.0152 35.1532L93.9699 34.9506L92.9736 34.828L93.1946 34.0017L93.563 33.5483L94.0868 33.3113L95.0421 33.1086L96.0638 33.2821L96.8289 33.5255L97.6303 34.1464L97.7969 35.4471Z" fill="#FDD8EE" stroke="black" stroke-width="0.1"/>
<path d="M98.8696 33.858L99.104 32.9638L99.4412 32.2213L100.153 31.5669L101.035 31.1853L101.637 31.1157L102.176 31.1696L103.026 31.8295L102.334 32.4808L103.221 32.1064L103.447 32.9698L103.366 33.5641L103.049 34.0365L102.357 34.6883L101.424 35.0284L100.669 35.1794L99.6968 35.003L98.8696 33.858Z" fill="#FDD8EE" stroke="black" stroke-width="0.1"/>
<path d="M97.6688 34.2035L96.79 33.7067L96.1209 33.1314L95.6013 32.2252L95.3777 31.2456L95.4116 30.6423L95.5556 30.1409L96.345 29.5439L96.8649 30.4299L96.649 29.4487L97.5317 29.5217L98.0994 29.8001L98.5077 30.2648L99.0279 31.1515L99.2024 32.1658L99.2221 32.9446L98.8849 33.8224L97.6688 34.2035Z" fill="#FFBDE5" stroke="black" stroke-width="0.1"/>
<path d="M99.6608 35.0097L98.8696 33.858L97.6287 34.2013L97.8523 35.4672L99.0464 35.9292L99.6608 35.0097Z" fill="#FF9EE2" stroke="black" stroke-width="0.1"/>
<path d="M98.5833 34.8201L100.44 34.6657" stroke="white" stroke-width="0.1"/>
<path d="M98.5833 34.8201L100.307 35.8161" stroke="white" stroke-width="0.1"/>
<path d="M98.5833 34.8201L100.361 33.7452" stroke="white" stroke-width="0.1"/>
<path d="M98.5833 34.8201L99.5036 33.1686" stroke="white" stroke-width="0.1"/>
<path d="M98.5833 34.8201L98.6854 33.0523" stroke="white" stroke-width="0.1"/>
<path d="M98.5833 34.8201L97.5502 33.2807" stroke="white" stroke-width="0.1"/>
<path d="M98.5833 34.8201L96.6656 33.7396" stroke="white" stroke-width="0.1"/>
<path d="M98.5833 34.8201L98.2871 36.5033" stroke="white" stroke-width="0.1"/>
<path d="M98.5833 34.8201L96.8227 35.5807" stroke="white" stroke-width="0.1"/>
<path d="M98.5833 34.8201L96.4935 34.4297" stroke="white" stroke-width="0.1"/>
<ellipse cx="99.6093" cy="33.0537" rx="0.170245" ry="0.156094" transform="rotate(42.604 99.6093 33.0537)" fill="#FEE035"/>
<ellipse cx="100.361" cy="33.7452" rx="0.170245" ry="0.156094" transform="rotate(42.604 100.361 33.7452)" fill="#FEE035"/>
<ellipse cx="100.44" cy="34.6657" rx="0.170245" ry="0.156095" transform="rotate(42.604 100.44 34.6657)" fill="#FEE035"/>
<ellipse cx="100.307" cy="35.8161" rx="0.170245" ry="0.156095" transform="rotate(42.604 100.307 35.8161)" fill="#FEE035"/>
<ellipse cx="98.2871" cy="36.5033" rx="0.170245" ry="0.156094" transform="rotate(42.604 98.2871 36.5033)" fill="#FEE035"/>
<ellipse cx="96.8227" cy="35.5807" rx="0.170245" ry="0.156094" transform="rotate(42.604 96.8227 35.5807)" fill="#FEE035"/>
<ellipse cx="96.4935" cy="34.4296" rx="0.170246" ry="0.156095" transform="rotate(42.604 96.4935 34.4296)" fill="#FEE035"/>
<ellipse cx="96.6656" cy="33.7396" rx="0.170246" ry="0.156095" transform="rotate(42.604 96.6656 33.7396)" fill="#FEE035"/>
<ellipse cx="97.5502" cy="33.2807" rx="0.170246" ry="0.156095" transform="rotate(42.604 97.5502 33.2807)" fill="#FEE035"/>
<ellipse cx="98.6854" cy="33.0523" rx="0.170245" ry="0.156095" transform="rotate(42.604 98.6854 33.0523)" fill="#FEE035"/>
<path d="M99.1078 34.8809L98.7554 34.3461L98.1592 34.5354L98.2397 35.1364L98.7974 35.3332L99.1078 34.8809Z" fill="white" stroke="black" stroke-width="0.1"/>
<path d="M102.137 39.7964L102.518 40.744L102.666 41.6265L102.449 42.6875L101.931 43.6262L101.467 44.0987L100.984 44.4199L99.8886 44.4217L100.09 43.377L99.5639 44.3123L98.8737 43.7089L98.5968 43.1316L98.5885 42.5001L98.7905 41.4547L99.3756 40.5178L99.9209 39.8689L100.838 39.3589L102.137 39.7964Z" fill="#FDD8EE" stroke="black" stroke-width="0.1"/>
<path d="M103.027 38.5722L104.056 38.455L104.946 38.5444L105.884 39.0299L106.605 39.7728L106.9 40.341L107.045 40.888L106.681 41.938L105.753 41.4711L106.468 42.2205L105.663 42.7238L105.021 42.838L104.417 42.6805L103.489 42.2131L102.792 41.4071L102.356 40.7145L102.16 39.8248L103.027 38.5722Z" fill="#FFBDE5" stroke="black" stroke-width="0.1"/>
<path d="M100.866 39.3907L100.148 40.1614L99.4006 40.6897L98.3541 40.9636L97.3051 40.9067L96.7008 40.6924L96.2269 40.3933L95.813 39.3917L96.8391 39.1114L95.7903 39.0459L96.0793 38.1456L96.5001 37.6352L97.0714 37.3465L98.0983 37.0661L99.1706 37.1846L99.9661 37.3949L100.775 38.0074L100.866 39.3907Z" fill="#FDD8EE" stroke="black" stroke-width="0.1"/>
<path d="M102.109 37.6164L102.417 36.6425L102.823 35.8243L103.621 35.0758L104.583 34.6085L105.226 34.4941L105.794 34.5163L106.652 35.1674L105.875 35.9113L106.841 35.4513L107.023 36.3617L106.898 37.0042L106.531 37.5315L105.754 38.2758L104.741 38.7021L103.93 38.9138L102.911 38.7891L102.109 37.6164Z" fill="#FDD8EE" stroke="black" stroke-width="0.1"/>
<path d="M100.812 38.0661L99.9128 37.5918L99.2411 37.0193L98.7498 36.0823L98.5774 35.0471L98.6532 34.3982L98.8391 33.8513L99.716 33.1592L100.209 34.0745L100.045 33.037L100.976 33.0569L101.56 33.3177L101.962 33.7889L102.456 34.7049L102.574 35.7806L102.543 36.6141L102.127 37.5773L100.812 38.0661Z" fill="#FFBDE5" stroke="black" stroke-width="0.1"/>
<path d="M102.872 38.7986L102.109 37.6164L100.77 38.0664L100.923 39.4085L102.16 39.8248L102.872 38.7986Z" fill="#FF9EE2" stroke="black" stroke-width="0.1"/>
<path d="M101.742 38.6666L103.721 38.3784" stroke="white" stroke-width="0.1"/>
<path d="M101.742 38.6666L103.504 39.6202" stroke="white" stroke-width="0.1"/>
<path d="M101.742 38.6666L103.699 37.3969" stroke="white" stroke-width="0.1"/>
<path d="M101.742 38.6666L102.827 36.8356" stroke="white" stroke-width="0.1"/>
<path d="M101.742 38.6666L101.967 36.765" stroke="white" stroke-width="0.1"/>
<path d="M101.742 38.6666L100.747 37.0849" stroke="white" stroke-width="0.1"/>
<path d="M101.742 38.6666L99.7786 37.6352" stroke="white" stroke-width="0.1"/>
<path d="M101.742 38.6666L101.316 40.4904" stroke="white" stroke-width="0.1"/>
<path d="M101.742 38.6666L99.8237 39.5982" stroke="white" stroke-width="0.1"/>
<path d="M101.742 38.6666L99.5505 38.3862" stroke="white" stroke-width="0.1"/>
<ellipse cx="102.947" cy="36.7054" rx="0.170245" ry="0.176803" transform="rotate(42.604 102.947 36.7054)" fill="#FEE035"/>
<ellipse cx="103.699" cy="37.3969" rx="0.170245" ry="0.176803" transform="rotate(42.604 103.699 37.3969)" fill="#FEE035"/>
<ellipse cx="103.721" cy="38.3784" rx="0.170245" ry="0.176803" transform="rotate(42.604 103.721 38.3784)" fill="#FEE035"/>
<ellipse cx="103.504" cy="39.6202" rx="0.170245" ry="0.176804" transform="rotate(42.604 103.504 39.6202)" fill="#FEE035"/>
<ellipse cx="101.316" cy="40.4904" rx="0.170245" ry="0.176804" transform="rotate(42.604 101.316 40.4904)" fill="#FEE035"/>
<ellipse cx="99.8236" cy="39.5982" rx="0.170245" ry="0.176804" transform="rotate(42.604 99.8236 39.5982)" fill="#FEE035"/>
<ellipse cx="99.5505" cy="38.3862" rx="0.170246" ry="0.176803" transform="rotate(42.604 99.5505 38.3862)" fill="#FEE035"/>
<ellipse cx="99.7787" cy="37.6352" rx="0.170246" ry="0.176804" transform="rotate(42.604 99.7787 37.6352)" fill="#FEE035"/>
<ellipse cx="100.747" cy="37.0849" rx="0.170246" ry="0.176804" transform="rotate(42.604 100.747 37.0849)" fill="#FEE035"/>
<ellipse cx="101.967" cy="36.765" rx="0.170245" ry="0.176803" transform="rotate(42.604 101.967 36.765)" fill="#FEE035"/>
<path d="M102.294 38.6971L101.955 38.1472L101.31 38.3895L101.356 39.0283L101.935 39.2024L102.294 38.6971Z" fill="white" stroke="black" stroke-width="0.1"/>
<path d="M50.4583 26.9905L51.2953 27.3725L51.9365 27.8502L52.4438 28.6567L52.674 29.5627L52.6544 30.1381L52.5291 30.6279L51.7984 31.2737L51.2913 30.4864L51.5143 31.3947L50.6823 31.4147L50.1425 31.2083L49.7489 30.809L49.2415 30.0211L49.0567 29.0772L49.0223 28.3409L49.3218 27.4747L50.4583 26.9905Z" fill="#FDD8EE" stroke="black" stroke-width="0.1"/>
<path d="M50.3009 25.6831L50.9168 25.0021L51.5663 24.5356L52.4914 24.2942L53.4295 24.3454L53.9759 24.5354L54.4086 24.8003L54.8107 25.6865L53.9041 25.9335L54.8423 25.9923L54.6137 26.7883L54.2548 27.2393L53.7543 27.4941L52.847 27.7412L51.886 27.6355L51.1692 27.4488L50.491 26.9952L50.3009 25.6831Z" fill="#FFBDE5" stroke="black" stroke-width="0.1"/>
<path d="M49.3599 27.4787L49.3535 28.3947L49.179 29.1725L48.6481 29.9637L47.9121 30.5447L47.3767 30.7632L46.8763 30.8508L45.9842 30.4534L46.4975 29.6701L45.7565 30.2454L45.3964 29.4991L45.364 28.9248L45.5683 28.4039L46.0821 27.62L46.8714 27.0647L47.5322 26.7312L48.4492 26.647L49.3599 27.4787Z" fill="#FDD8EE" stroke="black" stroke-width="0.1"/>
<path d="M49.1001 25.6117L48.7072 24.8073L48.4763 24.0442L48.5494 23.0957L48.9048 22.2306L49.2639 21.7792L49.6571 21.459L50.6305 21.3707L50.5688 22.3038L50.9314 21.4411L51.6129 21.9162L51.9241 22.401L52.0026 22.9548L51.9407 23.8885L51.5261 24.7572L51.1144 25.37L50.3564 25.8903L49.1001 25.6117Z" fill="#FDD8EE" stroke="black" stroke-width="0.1"/>
<path d="M48.51 26.6626L47.6176 26.8885L46.8169 26.9175L45.9129 26.6069L45.1615 26.0459L44.8134 25.586L44.6015 25.1266L44.7622 24.1676L45.654 24.4632L44.9068 23.8959L45.5414 23.3604L46.0918 23.1837L46.6502 23.2484L47.5427 23.5444L48.2826 24.1633L48.7744 24.7146L49.0885 25.5757L48.51 26.6626Z" fill="#FFBDE5" stroke="black" stroke-width="0.1"/>
<path d="M50.3365 25.9191L49.1001 25.6117L48.4819 26.6878L49.4092 27.4564L50.491 26.9952L50.3365 25.9191Z" fill="#FF9EE2" stroke="black" stroke-width="0.1"/>
<path d="M49.5 26.5L50.6456 25.1505" stroke="white" stroke-width="0.1"/>
<path d="M49.5 26.5L51.2638 26.0729" stroke="white" stroke-width="0.1"/>
<path d="M49.5 26.5L50.0274 24.5356" stroke="white" stroke-width="0.1"/>
<path d="M49.5 26.5L49.1001 24.6894" stroke="white" stroke-width="0.1"/>
<path d="M49.5 26.5L48.4819 25.1505" stroke="white" stroke-width="0.1"/>
<path d="M49.5 26.5L47.8637 26.0729" stroke="white" stroke-width="0.1"/>
<path d="M49.5 26.5L47.5546 26.9952" stroke="white" stroke-width="0.1"/>
<path d="M49.5 26.5L50.3365 27.9175" stroke="white" stroke-width="0.1"/>
<path d="M49.5 26.5L48.791 28.225" stroke="white" stroke-width="0.1"/>
<path d="M49.5 26.5L47.8637 27.6101" stroke="white" stroke-width="0.1"/>
<ellipse cx="49.1001" cy="24.5356" rx="0.154548" ry="0.153723" fill="#FEE035"/>
<ellipse cx="50.0274" cy="24.5356" rx="0.154548" ry="0.153723" fill="#FEE035"/>
<ellipse cx="50.6456" cy="25.1505" rx="0.154548" ry="0.153723" fill="#FEE035"/>
<ellipse cx="51.2638" cy="26.0729" rx="0.154548" ry="0.153723" fill="#FEE035"/>
<ellipse cx="50.3365" cy="27.9175" rx="0.154548" ry="0.153723" fill="#FEE035"/>
<ellipse cx="48.791" cy="28.225" rx="0.154548" ry="0.153723" fill="#FEE035"/>
<ellipse cx="47.8637" cy="27.6101" rx="0.154548" ry="0.153723" fill="#FEE035"/>
<ellipse cx="47.5546" cy="26.9952" rx="0.154548" ry="0.153723" fill="#FEE035"/>
<ellipse cx="47.8637" cy="26.0729" rx="0.154548" ry="0.153723" fill="#FEE035"/>
<ellipse cx="48.4819" cy="25.1505" rx="0.154548" ry="0.153723" fill="#FEE035"/>
<path d="M49.8878 26.1944L49.3237 26.0417L49.0417 26.5764L49.4647 26.9583L49.9583 26.7292L49.8878 26.1944Z" fill="white" stroke="black" stroke-width="0.1"/>
<path d="M59.4583 25.9905L60.2953 26.3725L60.9365 26.8502L61.4438 27.6567L61.674 28.5627L61.6544 29.1381L61.5291 29.6279L60.7984 30.2737L60.2913 29.4864L60.5143 30.3947L59.6823 30.4147L59.1425 30.2083L58.7489 29.809L58.2415 29.0211L58.0567 28.0772L58.0223 27.3409L58.3218 26.4747L59.4583 25.9905Z" fill="#FDD8EE" stroke="black" stroke-width="0.1"/>
<path d="M59.3009 24.6831L59.9168 24.0021L60.5663 23.5356L61.4914 23.2942L62.4295 23.3454L62.9759 23.5354L63.4086 23.8003L63.8107 24.6865L62.9041 24.9335L63.8423 24.9923L63.6137 25.7883L63.2548 26.2393L62.7543 26.4941L61.847 26.7412L60.886 26.6355L60.1692 26.4488L59.491 25.9952L59.3009 24.6831Z" fill="#FFBDE5" stroke="black" stroke-width="0.1"/>
<path d="M58.3599 26.4787L58.3535 27.3947L58.179 28.1725L57.6481 28.9637L56.9121 29.5447L56.3767 29.7632L55.8763 29.8508L54.9842 29.4534L55.4975 28.6701L54.7565 29.2454L54.3964 28.4991L54.364 27.9248L54.5683 27.4039L55.0821 26.62L55.8714 26.0647L56.5322 25.7312L57.4492 25.647L58.3599 26.4787Z" fill="#FDD8EE" stroke="black" stroke-width="0.1"/>
<path d="M58.1001 24.6117L57.7072 23.8073L57.4763 23.0442L57.5494 22.0957L57.9048 21.2306L58.2639 20.7792L58.6571 20.459L59.6305 20.3707L59.5688 21.3038L59.9314 20.4411L60.6129 20.9162L60.9241 21.401L61.0026 21.9548L60.9407 22.8885L60.5261 23.7572L60.1144 24.37L59.3564 24.8903L58.1001 24.6117Z" fill="#FDD8EE" stroke="black" stroke-width="0.1"/>
<path d="M57.51 25.6626L56.6176 25.8885L55.8169 25.9175L54.9129 25.6069L54.1615 25.0459L53.8134 24.586L53.6015 24.1266L53.7622 23.1676L54.654 23.4632L53.9068 22.8959L54.5414 22.3604L55.0918 22.1837L55.6502 22.2484L56.5427 22.5444L57.2826 23.1633L57.7744 23.7146L58.0885 24.5757L57.51 25.6626Z" fill="#FFBDE5" stroke="black" stroke-width="0.1"/>
<path d="M59.3365 24.9191L58.1001 24.6117L57.4819 25.6878L58.4092 26.4564L59.491 25.9952L59.3365 24.9191Z" fill="#FF9EE2" stroke="black" stroke-width="0.1"/>
<path d="M58.5 25.5L59.6456 24.1505" stroke="white" stroke-width="0.1"/>
<path d="M58.5 25.5L60.2638 25.0729" stroke="white" stroke-width="0.1"/>
<path d="M58.5 25.5L59.0274 23.5356" stroke="white" stroke-width="0.1"/>
<path d="M58.5 25.5L58.1001 23.6894" stroke="white" stroke-width="0.1"/>
<path d="M58.5 25.5L57.4819 24.1505" stroke="white" stroke-width="0.1"/>
<path d="M58.5 25.5L56.8637 25.0729" stroke="white" stroke-width="0.1"/>
<path d="M58.5 25.5L56.5546 25.9952" stroke="white" stroke-width="0.1"/>
<path d="M58.5 25.5L59.3365 26.9175" stroke="white" stroke-width="0.1"/>
<path d="M58.5 25.5L57.791 27.225" stroke="white" stroke-width="0.1"/>
<path d="M58.5 25.5L56.8637 26.6101" stroke="white" stroke-width="0.1"/>
<ellipse cx="58.1001" cy="23.5356" rx="0.154548" ry="0.153723" fill="#FEE035"/>
<ellipse cx="59.0274" cy="23.5356" rx="0.154548" ry="0.153723" fill="#FEE035"/>
<ellipse cx="59.6456" cy="24.1505" rx="0.154548" ry="0.153723" fill="#FEE035"/>
<ellipse cx="60.2638" cy="25.0729" rx="0.154548" ry="0.153723" fill="#FEE035"/>
<ellipse cx="59.3365" cy="26.9175" rx="0.154548" ry="0.153723" fill="#FEE035"/>
<ellipse cx="57.791" cy="27.225" rx="0.154548" ry="0.153723" fill="#FEE035"/>
<ellipse cx="56.8637" cy="26.6101" rx="0.154548" ry="0.153723" fill="#FEE035"/>
<ellipse cx="56.5546" cy="25.9952" rx="0.154548" ry="0.153723" fill="#FEE035"/>
<ellipse cx="56.8637" cy="25.0729" rx="0.154548" ry="0.153723" fill="#FEE035"/>
<ellipse cx="57.4819" cy="24.1505" rx="0.154548" ry="0.153723" fill="#FEE035"/>
<path d="M58.8878 25.1944L58.3237 25.0417L58.0417 25.5764L58.4647 25.9583L58.9583 25.7292L58.8878 25.1944Z" fill="white" stroke="black" stroke-width="0.1"/>
<defs>
<linearGradient id="paint0_linear_13_2231" x1="1" y1="18.3415" x2="187.659" y2="18.3415" gradientUnits="userSpaceOnUse">
<stop stop-color="#863232"/>
<stop offset="1" stop-color="#9E3838"/>
</linearGradient>
</defs>
</svg>
