<svg width="4586" height="1012" viewBox="0 0 4586 1012" fill="none" xmlns="http://www.w3.org/2000/svg">
<path d="M2373.83 298.104L2370.05 281.405V264.063L2373.83 240.298L2353.06 223.92L2373.83 215.731V207.541L2379.49 188.915L2393.97 177.354H2404.67L2419.14 188.915L2422.29 207.541V226.168L2427.33 245.436L2453.13 251.217H2487.12L2536.84 235.16V264.063L2531.81 287.185L2523 305.169L2497.19 323.153L2466.35 331.503L2419.14 335.999L2398.37 331.503L2384.53 316.73L2373.83 298.104Z" fill="url(#paint0_linear_63_2202)"/>
<path d="M2419.14 335.999L2398.37 331.503L2384.53 316.73L2373.83 298.104L2370.05 281.405V264.063L2373.83 240.298M2419.14 335.999L2466.35 331.503M2419.14 335.999V359.764M2466.35 331.503L2497.19 323.153L2523 305.169L2531.81 287.185L2536.84 264.063V235.16L2487.12 251.217H2453.13L2427.33 245.436L2422.29 226.168V207.541L2419.14 188.915L2404.67 177.354H2393.97L2379.49 188.915L2373.83 207.541V215.731M2466.35 331.503V359.764M2373.83 240.298V223.92M2373.83 240.298L2353.06 223.92M2373.83 223.92H2353.06M2373.83 223.92V215.731M2353.06 223.92L2373.83 215.731M2466.35 272.412L2487.12 264.063M2466.35 281.405L2487.12 272.412M2497.19 258.282L2487.12 281.405L2462.57 291.681H2427.33L2408.44 264.063H2453.13L2497.19 258.282Z" stroke="black"/>
<path d="M2373.83 298.104L2370.05 281.405V264.063L2373.83 240.298L2353.06 223.92L2373.83 215.731V207.541L2379.49 188.915L2393.97 177.354H2404.67L2419.14 188.915L2422.29 207.541V226.168L2427.33 245.436L2453.13 251.217H2487.12L2536.84 235.16V264.063L2531.81 287.185L2523 305.169L2497.19 323.153L2466.35 331.503L2419.14 335.999L2398.37 331.503L2384.53 316.73L2373.83 298.104Z" fill="url(#paint1_linear_63_2202)"/>
<path d="M2419.14 335.999L2398.37 331.503L2384.53 316.73L2373.83 298.104L2370.05 281.405V264.063L2373.83 240.298M2419.14 335.999L2466.35 331.503M2419.14 335.999V359.764M2466.35 331.503L2497.19 323.153L2523 305.169L2531.81 287.185L2536.84 264.063V235.16L2487.12 251.217H2453.13L2427.33 245.436L2422.29 226.168V207.541L2419.14 188.915L2404.67 177.354H2393.97L2379.49 188.915L2373.83 207.541V215.731M2466.35 331.503V359.764M2373.83 240.298V223.92M2373.83 240.298L2353.06 223.92M2373.83 223.92H2353.06M2373.83 223.92V215.731M2353.06 223.92L2373.83 215.731M2466.35 272.412L2487.12 264.063M2466.35 281.405L2487.12 272.412M2497.19 258.282L2487.12 281.405L2462.57 291.681H2427.33L2408.44 264.063H2453.13L2497.19 258.282Z" stroke="black"/>
<ellipse cx="2388.62" cy="210.11" rx="5.34998" ry="5.1383" fill="#645B5B"/>
<path d="M2375.34 164.575L2373.77 170.466L2363.04 173.877L2353.62 177.598L2350.48 179.768L2348.65 182.249L2353.62 193.721L2367.75 202.403H2386.85L2397.58 198.682L2408.3 193.721L2423.48 190.62H2435.25L2438.66 195.582V185.039L2435.25 175.737L2429.5 170.466L2418.77 166.435L2417.2 159.303V150.932L2412.23 142.25L2401.5 139.459H2392.34L2382.4 142.25L2376.91 147.211L2375.34 159.303V164.575Z" fill="#EFCFA3" stroke="black"/>
<path d="M2386.85 159.923H2375.34V164.264H2388.42H2404.9H2418.51L2417.2 159.923H2412.49H2402.29H2386.85Z" fill="#CE4F4F" stroke="black"/>
<path d="M2403.94 164.994C2403.99 164.799 2403.99 164.29 2404.1 164.187C2404.27 164.03 2404.26 163.912 2404.36 163.599C2404.61 162.827 2404.9 162.08 2405.21 161.369C2406.21 159.051 2407.08 156.679 2408.51 155.075C2409.02 154.508 2409.53 153.818 2410.1 153.444C2410.65 153.083 2411.53 152.701 2411.99 153.496C2412.47 154.332 2413.16 155.409 2413.2 156.729C2413.22 157.487 2413.15 158.027 2412.72 158.264C2412.54 158.362 2412.49 158.706 2412.3 158.819C2412.06 158.966 2411.8 158.957 2411.55 159.091C2411.1 159.33 2410.85 159.327 2410.41 159.078C2409.91 158.793 2409.43 158.605 2408.94 158.191C2408.71 157.993 2408.41 157.869 2408.16 157.731C2407.94 157.609 2407.8 157.308 2407.6 157.164C2407.26 156.931 2407.12 156.37 2406.84 156.098C2406.53 155.798 2406.22 155.261 2405.92 154.875C2404.83 153.484 2403.75 152.361 2402.47 151.461C2402.33 151.359 2401.61 150.962 2401.61 151.599C2401.6 152.151 2401.63 152.62 2401.68 153.147C2401.8 154.451 2402.28 156.037 2403.02 156.615C2403.4 156.91 2403.6 156.726 2403.88 157.294C2404.02 157.583 2404.46 157.44 2404.67 157.443C2405.25 157.449 2405.84 157.316 2406.4 157.322C2406.66 157.325 2406.92 157.328 2407.18 157.331C2407.35 157.333 2407.49 157.474 2407.65 157.476C2407.84 157.478 2407.82 157.758 2407.96 157.9C2408.28 158.23 2408.42 159.575 2408.73 159.736C2408.77 159.757 2408.91 160.273 2408.92 160.352C2408.95 160.658 2409.18 160.771 2409.23 161.134C2409.3 161.562 2409.46 161.58 2409.61 161.853C2409.76 162.121 2409.85 162.487 2410.01 162.744C2410.17 163.01 2410.44 163.643 2410.47 164.08C2410.5 164.363 2410.8 164.684 2410.85 165.072" stroke="#D32323" stroke-width="5" stroke-linecap="round"/>
<path d="M2106.69 236.862C2107.82 238.742 2108.92 240.049 2110.62 241.312L2115.26 245.262C2116.33 245.735 2117.17 246.951 2118.49 247.019C2119.41 247.067 2120.17 247.923 2120.95 247.923C2121.17 247.923 2122.91 248.416 2122.98 248.488C2123.41 248.93 2124.63 248.568 2125.1 248.878C2125.61 249.219 2126.27 249.505 2126.92 249.505C2128.3 249.505 2130.01 249.731 2131.54 249.731C2134.69 249.731 2139.14 250.387 2142 249.33C2142.65 249.086 2143.85 249.279 2144.58 249.279C2145.72 249.279 2146.54 248.827 2147.7 248.827C2149.51 248.827 2151.29 248.375 2153.13 248.375H2155.58C2156.05 248.375 2158.17 248.097 2158.5 247.873C2158.83 247.659 2159.09 247.697 2159.52 247.697C2160.06 247.697 2159.73 247.341 2160.07 247.258C2160.65 247.122 2161.21 247.109 2161.69 246.793C2162.56 246.215 2164.61 245.469 2165.75 245.199C2165.95 245.152 2166.28 244.806 2166.38 244.659C2166.7 244.203 2167.28 244.475 2167.59 244.081C2167.95 243.62 2169.32 242.701 2169.87 242.499C2171.67 241.831 2172.48 241.092 2173.91 239.9C2174.24 239.626 2175.61 238.513 2175.68 238.205C2175.74 237.907 2176.6 236.371 2176.9 236.172C2177.76 235.601 2178.39 233.644 2178.65 232.669C2178.99 231.392 2178.89 229.95 2179.89 228.952C2180.29 228.548 2179.95 227.602 2180.35 227.182C2180.77 226.751 2180.62 225.966 2180.97 225.437C2181.43 224.753 2180.68 223.907 2181.53 223.466C2181.87 223.291 2181.65 221.977 2181.65 221.658C2181.65 219.191 2182.35 215.779 2181.17 213.572C2180.69 212.684 2181.49 210.746 2180.78 210.006C2180.27 209.48 2180.77 208.646 2180.43 208.022C2180.09 207.408 2180.02 206.674 2180.02 206.001C2180.02 204.613 2179.66 203.338 2179.06 202.046C2178.29 200.398 2178.61 198.737 2177.99 197.087C2177.76 196.474 2177.98 195.545 2176.76 195.994C2176.07 196.251 2175.42 196.474 2174.74 196.635C2174.1 196.787 2173.51 197.403 2172.9 197.752C2172.17 198.172 2171.3 198.606 2170.52 198.932C2167.81 200.058 2165.02 201.428 2163.39 203.528C2162.29 204.958 2163.92 199.998 2163.12 198.43C2162.51 197.22 2163.21 195.632 2162.16 194.538C2161.84 194.213 2162.1 192.968 2162.1 192.554C2162.1 191.741 2162.01 190.804 2161.61 190.068C2161.29 189.468 2161.6 188.722 2161.28 188.122C2160.9 187.406 2160.47 186.325 2160.47 185.548C2160.47 184.885 2160.06 183.918 2159.79 183.288C2159.62 182.898 2159.38 182.577 2159.38 182.159C2159.38 181.708 2158.91 181.642 2158.84 181.255C2158.7 180.594 2158.19 179.772 2157.89 179.108C2157.45 178.173 2157.01 177.187 2156.27 176.396C2155.97 176.075 2156.02 175.525 2155.79 175.153C2155.52 174.721 2155.08 174.614 2155.03 174.073C2154.97 173.355 2154.14 172.882 2153.92 172.24C2153.85 172.054 2152.32 170.532 2152.13 170.431C2151.6 170.156 2150.43 168.98 2150.03 168.486C2149.01 167.208 2148.27 166.302 2146.95 165.201C2146.4 164.749 2145.42 163.821 2144.98 163.457C2144.44 163.008 2143.54 162.315 2142.84 161.819C2141.26 160.703 2141.4 160.208 2139.47 159.446C2138.63 159.115 2137.65 158.247 2136.91 157.771C2136.21 157.317 2135.86 156.848 2134.99 156.571C2134.48 156.405 2133.37 155.516 2132.9 155.516C2132.73 155.516 2132.22 157.09 2132.22 157.299C2132.22 157.711 2132.04 157.95 2131.96 158.329C2131.85 158.855 2131.26 159.003 2131.15 159.446C2130.91 160.319 2130.69 160.991 2130.2 161.819C2129.76 162.545 2129.73 163.349 2129.29 164.079C2129.02 164.535 2128.71 165.599 2128.28 165.887C2127.56 166.366 2127.81 166.868 2127.27 167.419C2126.94 167.755 2126.9 168.092 2126.76 168.486C2126.54 169.055 2125.79 169.099 2125.68 169.729C2125.41 171.344 2123.39 172.548 2122.97 174.136C2122.59 175.547 2120.97 176.717 2120.3 177.978C2119.32 179.812 2118.22 181.759 2116.62 183.288C2116.07 183.802 2115.17 184.908 2115.11 185.599C2115.02 186.52 2113.91 187.137 2113.73 188.022C2113.68 188.272 2113.35 188.49 2113.14 188.662C2112.66 189.065 2112.67 189.622 2112.24 190.068C2111.49 190.842 2111.26 191.956 2110.62 192.78C2109.44 194.319 2108.75 196.583 2107.29 197.802C2106.82 198.19 2106.98 198.97 2106.54 199.447C2106.17 199.839 2106.35 200.371 2106.02 200.69C2105.58 201.123 2105.11 201.385 2105.06 201.996C2105.01 202.506 2104.6 202.922 2104.53 203.415C2104.43 204.082 2103.94 204.088 2103.58 204.645C2103.09 205.391 2103.15 206.455 2102.67 207.244C2100.72 210.486 2100.84 214.474 2100.18 218.004C2099.72 220.483 2100.44 222.98 2100.73 225.336C2101 227.623 2102.08 229.777 2102.91 231.865C2103.26 232.737 2104.05 233.718 2104.57 234.59C2105.08 235.429 2106.2 236.056 2106.69 236.862Z" fill="#FFBB00" stroke="#FFBB00" stroke-width="5" stroke-linecap="round"/>
<path d="M2113.77 239.762C2114.61 241.217 2115.42 242.228 2116.68 243.206L2120.11 246.263C2120.9 246.629 2121.52 247.571 2122.5 247.624C2123.18 247.661 2123.74 248.323 2124.31 248.323C2124.48 248.323 2125.77 248.705 2125.82 248.761C2126.13 249.102 2127.04 248.822 2127.38 249.062C2127.76 249.326 2128.25 249.548 2128.73 249.548C2129.75 249.548 2131.02 249.723 2132.15 249.723C2134.48 249.723 2137.76 250.23 2139.88 249.412C2140.36 249.223 2141.25 249.373 2141.79 249.373C2142.63 249.373 2143.24 249.023 2144.1 249.023C2145.43 249.023 2146.75 248.673 2148.11 248.673H2149.92C2150.27 248.673 2151.84 248.458 2152.08 248.284C2152.32 248.119 2152.52 248.148 2152.83 248.148C2153.23 248.148 2152.99 247.872 2153.24 247.808C2153.67 247.703 2154.09 247.693 2154.44 247.449C2155.08 247.001 2156.6 246.424 2157.44 246.215C2157.59 246.178 2157.83 245.91 2157.91 245.797C2158.15 245.444 2158.57 245.655 2158.8 245.35C2159.07 244.993 2160.08 244.281 2160.49 244.125C2161.82 243.608 2162.42 243.036 2163.48 242.114C2163.72 241.901 2164.73 241.04 2164.78 240.802C2164.83 240.57 2165.46 239.382 2165.68 239.227C2166.32 238.786 2166.79 237.271 2166.98 236.516C2167.23 235.528 2167.15 234.411 2167.89 233.64C2168.19 233.327 2167.94 232.594 2168.24 232.269C2168.55 231.936 2168.44 231.328 2168.7 230.918C2169.03 230.389 2168.48 229.734 2169.11 229.393C2169.36 229.258 2169.2 228.241 2169.2 227.993C2169.2 226.084 2169.71 223.444 2168.84 221.735C2168.49 221.047 2169.08 219.548 2168.55 218.975C2168.18 218.568 2168.55 217.922 2168.3 217.44C2168.05 216.964 2167.99 216.396 2167.99 215.875C2167.99 214.801 2167.73 213.814 2167.28 212.814C2166.71 211.538 2166.95 210.252 2166.49 208.975C2166.32 208.501 2166.48 207.782 2165.58 208.13C2165.07 208.328 2164.59 208.501 2164.09 208.626C2163.62 208.743 2163.18 209.22 2162.73 209.49C2162.19 209.815 2161.55 210.151 2160.96 210.404C2158.96 211.275 2156.9 212.335 2155.7 213.961C2154.88 215.068 2156.08 211.229 2155.5 210.015C2155.05 209.078 2155.56 207.85 2154.78 207.003C2154.55 206.751 2154.74 205.787 2154.74 205.467C2154.74 204.838 2154.67 204.113 2154.38 203.543C2154.15 203.078 2154.37 202.501 2154.14 202.037C2153.85 201.483 2153.53 200.645 2153.53 200.045C2153.53 199.531 2153.23 198.782 2153.03 198.295C2152.91 197.993 2152.73 197.745 2152.73 197.421C2152.73 197.072 2152.39 197.021 2152.33 196.721C2152.23 196.21 2151.85 195.574 2151.63 195.059C2151.31 194.336 2150.98 193.573 2150.43 192.96C2150.21 192.712 2150.25 192.286 2150.08 191.998C2149.87 191.664 2149.55 191.582 2149.52 191.162C2149.47 190.607 2148.86 190.241 2148.69 189.744C2148.65 189.6 2147.51 188.422 2147.37 188.344C2146.98 188.131 2146.11 187.221 2145.82 186.838C2145.06 185.849 2144.52 185.148 2143.54 184.295C2143.14 183.946 2142.41 183.227 2142.09 182.946C2141.69 182.598 2141.02 182.062 2140.5 181.678C2139.33 180.814 2139.44 180.431 2138.01 179.841C2137.39 179.585 2136.66 178.913 2136.12 178.545C2135.6 178.193 2135.34 177.83 2134.7 177.616C2134.32 177.488 2133.5 176.799 2133.15 176.799C2133.03 176.799 2132.65 178.018 2132.65 178.179C2132.65 178.498 2132.52 178.683 2132.46 178.976C2132.37 179.384 2131.94 179.498 2131.86 179.841C2131.68 180.517 2131.52 181.037 2131.15 181.678C2130.83 182.24 2130.81 182.862 2130.48 183.427C2130.28 183.78 2130.06 184.604 2129.74 184.826C2129.2 185.197 2129.39 185.586 2128.99 186.012C2128.74 186.272 2128.72 186.533 2128.61 186.838C2128.45 187.279 2127.9 187.313 2127.82 187.8C2127.61 189.05 2126.12 189.982 2125.81 191.211C2125.53 192.303 2124.33 193.209 2123.83 194.185C2123.11 195.604 2122.3 197.111 2121.11 198.295C2120.71 198.693 2120.04 199.549 2120 200.083C2119.94 200.797 2119.11 201.274 2118.98 201.959C2118.94 202.152 2118.7 202.322 2118.55 202.455C2118.19 202.767 2118.2 203.198 2117.88 203.543C2117.32 204.142 2117.15 205.004 2116.68 205.642C2115.8 206.833 2115.3 208.586 2114.22 209.529C2113.87 209.829 2113.99 210.433 2113.66 210.802C2113.39 211.106 2113.52 211.518 2113.28 211.764C2112.95 212.099 2112.61 212.302 2112.57 212.775C2112.53 213.17 2112.23 213.492 2112.18 213.873C2112.1 214.39 2111.74 214.395 2111.47 214.826C2111.12 215.403 2111.15 216.227 2110.8 216.837C2109.36 219.346 2109.44 222.433 2108.96 225.165C2108.62 227.085 2109.15 229.017 2109.36 230.841C2109.57 232.611 2110.36 234.278 2110.98 235.894C2111.24 236.569 2111.82 237.328 2112.21 238.003C2112.58 238.652 2113.41 239.138 2113.77 239.762Z" fill="#FF9500" stroke="#FF9500" stroke-width="5" stroke-linecap="round"/>
<path d="M2119.58 242.441C2120.23 243.38 2120.86 244.033 2121.84 244.663L2124.49 246.636C2125.1 246.872 2125.58 247.479 2126.34 247.514C2126.87 247.538 2127.3 247.965 2127.75 247.965C2127.87 247.965 2128.87 248.211 2128.91 248.247C2129.15 248.468 2129.85 248.287 2130.12 248.442C2130.41 248.612 2130.79 248.755 2131.17 248.755C2131.95 248.755 2132.93 248.868 2133.81 248.868C2135.61 248.868 2138.16 249.196 2139.79 248.667C2140.17 248.546 2140.85 248.642 2141.27 248.642C2141.93 248.642 2142.4 248.417 2143.06 248.417C2144.09 248.417 2145.11 248.191 2146.17 248.191H2147.57C2147.84 248.191 2149.05 248.052 2149.24 247.94C2149.43 247.833 2149.58 247.852 2149.82 247.852C2150.13 247.852 2149.94 247.674 2150.14 247.633C2150.47 247.565 2150.79 247.558 2151.06 247.401C2151.56 247.112 2152.74 246.74 2153.39 246.605C2153.5 246.581 2153.69 246.408 2153.75 246.335C2153.93 246.107 2154.27 246.243 2154.44 246.047C2154.65 245.816 2155.43 245.357 2155.75 245.256C2156.78 244.923 2157.24 244.554 2158.06 243.959C2158.25 243.821 2159.03 243.266 2159.07 243.112C2159.11 242.963 2159.6 242.196 2159.77 242.096C2160.26 241.811 2160.62 240.834 2160.77 240.347C2160.97 239.709 2160.91 238.989 2161.48 238.491C2161.71 238.289 2161.52 237.816 2161.75 237.607C2161.98 237.392 2161.9 237 2162.1 236.735C2162.36 236.394 2161.94 235.971 2162.42 235.751C2162.61 235.664 2162.49 235.007 2162.49 234.848C2162.49 233.616 2162.89 231.912 2162.21 230.81C2161.94 230.366 2162.4 229.398 2161.99 229.029C2161.7 228.766 2161.99 228.35 2161.79 228.038C2161.6 227.731 2161.56 227.365 2161.56 227.029C2161.56 226.335 2161.35 225.699 2161.01 225.054C2160.56 224.23 2160.75 223.401 2160.39 222.577C2160.26 222.271 2160.39 221.807 2159.69 222.031C2159.3 222.159 2158.92 222.271 2158.54 222.351C2158.17 222.427 2157.83 222.735 2157.48 222.909C2157.06 223.119 2156.57 223.336 2156.12 223.499C2154.57 224.061 2152.97 224.745 2152.04 225.793C2151.41 226.508 2152.34 224.031 2151.88 223.248C2151.53 222.643 2151.93 221.851 2151.33 221.304C2151.15 221.142 2151.3 220.52 2151.3 220.313C2151.3 219.907 2151.25 219.439 2151.02 219.072C2150.84 218.772 2151.01 218.399 2150.83 218.1C2150.61 217.742 2150.36 217.202 2150.36 216.814C2150.36 216.483 2150.13 216 2149.98 215.686C2149.88 215.491 2149.74 215.33 2149.74 215.121C2149.74 214.896 2149.48 214.864 2149.43 214.67C2149.36 214.34 2149.06 213.93 2148.89 213.598C2148.64 213.131 2148.39 212.639 2147.96 212.243C2147.79 212.083 2147.82 211.808 2147.69 211.623C2147.53 211.407 2147.28 211.354 2147.26 211.083C2147.22 210.725 2146.74 210.489 2146.62 210.168C2146.58 210.075 2145.7 209.315 2145.59 209.265C2145.29 209.127 2144.62 208.54 2144.39 208.293C2143.81 207.655 2143.38 207.203 2142.63 206.652C2142.32 206.427 2141.75 205.963 2141.5 205.782C2141.19 205.557 2140.68 205.212 2140.27 204.964C2139.37 204.406 2139.45 204.159 2138.35 203.779C2137.86 203.613 2137.31 203.18 2136.88 202.942C2136.48 202.715 2136.28 202.481 2135.79 202.343C2135.49 202.26 2134.86 201.816 2134.59 201.816C2134.49 201.816 2134.2 202.602 2134.2 202.706C2134.2 202.912 2134.1 203.031 2134.05 203.22C2133.98 203.483 2133.65 203.557 2133.58 203.779C2133.45 204.215 2133.32 204.55 2133.04 204.964C2132.79 205.326 2132.77 205.728 2132.52 206.092C2132.36 206.32 2132.19 206.852 2131.94 206.995C2131.53 207.235 2131.67 207.485 2131.36 207.76C2131.18 207.928 2131.15 208.096 2131.07 208.293C2130.95 208.578 2130.52 208.6 2130.46 208.914C2130.3 209.721 2129.15 210.322 2128.9 211.115C2128.69 211.819 2127.76 212.404 2127.37 213.033C2126.81 213.95 2126.19 214.922 2125.27 215.686C2124.96 215.942 2124.44 216.495 2124.4 216.84C2124.36 217.3 2123.72 217.608 2123.62 218.05C2123.59 218.174 2123.4 218.284 2123.28 218.369C2123 218.571 2123.01 218.849 2122.76 219.072C2122.33 219.458 2122.2 220.014 2121.84 220.426C2121.16 221.195 2120.77 222.325 2119.93 222.934C2119.66 223.128 2119.75 223.518 2119.5 223.756C2119.29 223.951 2119.39 224.217 2119.2 224.376C2118.95 224.592 2118.68 224.723 2118.65 225.029C2118.63 225.283 2118.39 225.491 2118.35 225.737C2118.29 226.07 2118.01 226.073 2117.8 226.352C2117.53 226.724 2117.56 227.255 2117.29 227.649C2116.17 229.268 2116.24 231.26 2115.86 233.023C2115.6 234.261 2116.01 235.508 2116.17 236.685C2116.33 237.827 2116.95 238.903 2117.42 239.946C2117.62 240.381 2118.08 240.871 2118.37 241.306C2118.66 241.725 2119.31 242.039 2119.58 242.441Z" fill="#FF0000" stroke="#FF0000" stroke-width="5" stroke-linecap="round"/>
<path d="M1697.4 192.766L1770.3 265.822L1749.59 298.696L1731.92 280.994C1727.16 276.226 1720.56 271.37 1716.79 266.061C1712.06 259.412 1708.12 252.105 1703.2 244.167C1702.67 241.399 1692.71 228.246 1694.32 226.63C1696.44 224.507 1710.79 240.747 1713.23 243.197C1714.23 244.201 1721.48 251.728 1717.72 247.692C1714.87 244.638 1713.04 239.081 1710.48 235.733C1705.65 229.444 1705.86 229.349 1699.45 221.498C1695.31 216.43 1693.86 213.037 1691.55 208.288C1688.38 201.791 1688.55 200.44 1690.29 202.06C1697.02 208.361 1703.04 213.918 1709.57 220.46C1711.31 222.203 1716.08 228.723 1715.11 226.936C1713.72 224.388 1711.79 222.193 1710.46 219.566C1708.72 216.128 1705.61 213.387 1703.27 210.081C1701.68 207.851 1699.65 202.788 1697.5 200.493C1695.12 197.944 1689.29 184.641 1697.4 192.766Z" fill="white" stroke="black" stroke-linecap="round"/>
<path d="M1755.12 298.104L1751.34 281.405V264.063L1755.12 240.298L1734.35 223.92L1755.12 215.731V207.541L1760.78 188.915L1775.26 177.354H1785.96L1800.43 188.915L1803.58 207.541V226.168L1808.62 245.436L1834.42 251.217H1868.41L1918.13 235.16V264.063L1913.1 287.185L1904.29 305.169L1878.48 323.153L1847.64 331.503L1800.43 335.999L1779.66 331.503L1765.82 316.73L1755.12 298.104Z" fill="url(#paint2_linear_63_2202)"/>
<path d="M1800.43 335.999L1779.66 331.503L1765.82 316.73L1755.12 298.104L1751.34 281.405V264.063L1755.12 240.298M1800.43 335.999L1847.64 331.503M1800.43 335.999V359.764M1847.64 331.503L1878.48 323.153L1904.29 305.169L1913.1 287.185L1918.13 264.063V235.16L1868.41 251.217H1834.42L1808.62 245.436L1803.58 226.168V207.541L1800.43 188.915L1785.96 177.354H1775.26L1760.78 188.915L1755.12 207.541V215.731M1847.64 331.503V359.764M1755.12 240.298V223.92M1755.12 240.298L1734.35 223.92M1755.12 223.92H1734.35M1755.12 223.92V215.731M1734.35 223.92L1755.12 215.731" stroke="black"/>
<ellipse cx="1771.17" cy="204.972" rx="5.34998" ry="5.1383" fill="#645B5B"/>
<path d="M1808.39 197.041L1810.69 181.249L1811.68 179.226L1814.53 177.782L1820.67 174.797L1826.15 167.285V160.448L1823.3 153.996L1817.82 148.026L1808.39 145.137L1802.9 146.389V143.692L1798.96 138.396L1790.62 133.003L1781.52 131.751L1772.42 133.003L1764.41 138.396L1760.79 145.137H1756.63L1748.84 146.389L1741.93 152.648L1738.75 161.507L1741.93 170.656L1746.65 176.53L1754.32 179.226V183.656L1756.63 197.041L1761.78 193.382L1769.35 192.612H1778.45L1788.1 193.382L1801.15 195.789L1805.43 197.948L1808.39 197.041Z" fill="white"/>
<path d="M1810.69 181.249L1808.39 197.041L1805.43 197.948L1801.15 195.789L1788.1 193.382L1778.45 192.612H1769.35L1761.78 193.382L1756.63 197.041L1754.32 183.656V179.226L1746.65 176.53L1741.93 170.656L1738.75 161.507L1741.93 152.648L1748.84 146.389L1756.63 145.137H1760.79M1810.69 181.249L1811.68 179.226M1810.69 181.249L1804.55 179.708L1794.9 177.782L1782.62 176.53H1769.35L1779.33 175.663H1788.1L1797.86 176.53L1805.43 177.782L1811.68 179.226M1760.79 145.137L1764.41 138.396L1772.42 133.003L1781.52 131.751L1790.62 133.003L1798.96 138.396L1802.9 143.692V146.389M1760.79 145.137L1759.7 150.241V153.996L1760.79 158.522M1802.9 146.389L1808.39 145.137L1817.82 148.026L1823.3 153.996L1826.15 160.448V167.285L1820.67 174.797L1814.53 177.782L1811.68 179.226M1802.9 146.389L1798.96 148.026L1794.9 151.493L1790.62 157.27" stroke="black"/>
<path d="M1802.25 177.3L1812.11 179.226L1810.8 181.441L1807.29 180.382L1802.68 179.226L1796.43 178.167L1791.61 177.685L1782.84 176.626H1776.8H1770.01L1776.04 176.048L1781.96 175.663H1789.63L1797.53 176.626L1802.25 177.3Z" fill="black" stroke="black"/>
<path d="M1799.05 247.018L1809.8 244.152L1753.61 254.98L1751.53 264.854L1749.45 275.045V285.555V300.206L1750.49 309.761L1753.61 321.226L1760.9 329.189L1770.26 332.055H1777.89L1790.03 329.189L1796.97 321.226L1787.95 311.035L1781.01 299.251L1776.16 285.555L1774.77 272.816L1777.89 262.943L1784.48 254.98L1799.05 247.018Z" fill="#AB5A5A" stroke="black"/>
<path d="M1874.1 187.859L1806.67 266.189L1825.97 295.867L1842.31 276.887C1846.71 271.775 1852.82 266.385 1856.31 260.852C1860.67 253.922 1864.31 246.435 1868.86 238.236C1869.34 235.501 1878.55 221.728 1877.04 220.331C1875.07 218.496 1861.81 235.714 1859.55 238.341C1858.62 239.418 1851.92 247.46 1855.4 243.161C1858.03 239.907 1859.71 234.336 1862.08 230.827C1866.54 224.235 1866.35 224.164 1872.28 215.895C1876.1 210.557 1877.44 207.12 1879.57 202.281C1882.49 195.661 1882.33 194.37 1880.72 196.119C1874.49 202.921 1868.92 208.929 1862.88 215.943C1861.27 217.813 1856.86 224.622 1857.76 222.791C1859.04 220.179 1860.83 217.852 1862.05 215.171C1863.66 211.66 1866.53 208.682 1868.7 205.236C1870.17 202.912 1872.04 197.798 1874.03 195.353C1876.23 192.636 1881.6 179.147 1874.1 187.859Z" fill="white" stroke="black" stroke-linecap="round"/>
<path d="M1765.44 212.039L1776.93 201.303" stroke="black" stroke-width="10" stroke-linecap="round"/>
<path d="M1767.22 201.932L1776.23 212.403" stroke="black" stroke-width="10" stroke-linecap="round"/>
<path d="M1879.01 262.998C1880.06 264.814 1881.09 266.077 1882.67 267.296L1886.99 271.112C1887.99 271.569 1888.76 272.744 1889.99 272.81C1890.85 272.856 1891.56 273.683 1892.28 273.683C1892.49 273.683 1894.11 274.159 1894.18 274.229C1894.57 274.655 1895.71 274.306 1896.14 274.605C1896.62 274.935 1897.23 275.211 1897.84 275.211C1899.12 275.211 1900.72 275.43 1902.14 275.43C1905.08 275.43 1909.21 276.063 1911.87 275.041C1912.49 274.806 1913.6 274.993 1914.28 274.993C1915.34 274.993 1916.11 274.556 1917.18 274.556C1918.87 274.556 1920.53 274.12 1922.24 274.12H1924.51C1924.96 274.12 1926.93 273.851 1927.24 273.635C1927.54 273.428 1927.78 273.465 1928.18 273.465C1928.69 273.465 1928.38 273.12 1928.7 273.04C1929.23 272.909 1929.76 272.896 1930.2 272.592C1931.01 272.033 1932.92 271.313 1933.98 271.051C1934.17 271.006 1934.47 270.672 1934.57 270.53C1934.87 270.089 1935.41 270.353 1935.69 269.972C1936.03 269.526 1937.31 268.638 1937.82 268.444C1939.5 267.798 1940.25 267.084 1941.58 265.933C1941.89 265.668 1943.16 264.593 1943.22 264.296C1943.28 264.007 1944.08 262.524 1944.36 262.331C1945.16 261.78 1945.75 259.889 1945.99 258.947C1946.31 257.714 1946.21 256.321 1947.14 255.357C1947.52 254.967 1947.2 254.053 1947.58 253.647C1947.96 253.231 1947.82 252.473 1948.15 251.961C1948.58 251.301 1947.88 250.483 1948.67 250.057C1948.98 249.889 1948.78 248.619 1948.78 248.311C1948.78 245.928 1949.43 242.632 1948.34 240.5C1947.89 239.642 1948.63 237.77 1947.97 237.056C1947.5 236.548 1947.96 235.742 1947.65 235.139C1947.33 234.546 1947.27 233.837 1947.27 233.187C1947.27 231.846 1946.93 230.614 1946.37 229.366C1945.65 227.774 1945.95 226.169 1945.37 224.576C1945.16 223.984 1945.36 223.087 1944.23 223.521C1943.59 223.768 1942.98 223.983 1942.35 224.139C1941.76 224.286 1941.2 224.881 1940.64 225.218C1939.96 225.624 1939.15 226.043 1938.42 226.359C1935.9 227.446 1933.3 228.769 1931.79 230.797C1930.76 232.18 1932.28 227.388 1931.54 225.873C1930.97 224.704 1931.62 223.171 1930.64 222.114C1930.35 221.799 1930.58 220.597 1930.58 220.197C1930.58 219.412 1930.5 218.507 1930.13 217.796C1929.83 217.216 1930.12 216.495 1929.82 215.916C1929.47 215.224 1929.07 214.179 1929.07 213.43C1929.07 212.789 1928.68 211.854 1928.43 211.247C1928.28 210.87 1928.05 210.559 1928.05 210.155C1928.05 209.72 1927.62 209.656 1927.55 209.282C1927.43 208.644 1926.95 207.85 1926.66 207.208C1926.26 206.305 1925.85 205.353 1925.16 204.588C1924.88 204.279 1924.93 203.747 1924.71 203.388C1924.46 202.971 1924.06 202.868 1924.01 202.345C1923.95 201.651 1923.18 201.195 1922.97 200.574C1922.91 200.394 1921.49 198.924 1921.31 198.827C1920.81 198.561 1919.72 197.425 1919.36 196.947C1918.4 195.713 1917.71 194.838 1916.48 193.774C1915.98 193.338 1915.06 192.441 1914.66 192.09C1914.15 191.656 1913.31 190.987 1912.66 190.507C1911.19 189.43 1911.32 188.951 1909.52 188.215C1908.74 187.896 1907.83 187.057 1907.14 186.597C1906.49 186.158 1906.16 185.705 1905.36 185.438C1904.88 185.278 1903.85 184.419 1903.41 184.419C1903.25 184.419 1902.77 185.939 1902.77 186.141C1902.77 186.539 1902.61 186.77 1902.53 187.136C1902.43 187.644 1901.89 187.787 1901.78 188.215C1901.56 189.059 1901.35 189.708 1900.89 190.507C1900.48 191.209 1900.46 191.986 1900.05 192.69C1899.79 193.131 1899.51 194.159 1899.11 194.437C1898.44 194.9 1898.67 195.385 1898.17 195.917C1897.86 196.241 1897.82 196.567 1897.69 196.947C1897.49 197.498 1896.79 197.54 1896.69 198.148C1896.43 199.709 1894.56 200.872 1894.16 202.405C1893.81 203.768 1892.3 204.899 1891.68 206.116C1890.77 207.888 1889.75 209.769 1888.25 211.247C1887.75 211.743 1886.9 212.811 1886.85 213.478C1886.77 214.369 1885.73 214.964 1885.57 215.819C1885.52 216.06 1885.21 216.271 1885.02 216.438C1884.57 216.827 1884.58 217.365 1884.18 217.796C1883.48 218.544 1883.27 219.619 1882.67 220.416C1881.57 221.902 1880.93 224.089 1879.57 225.267C1879.14 225.642 1879.28 226.395 1878.87 226.856C1878.53 227.235 1878.69 227.748 1878.39 228.056C1877.98 228.474 1877.54 228.728 1877.49 229.318C1877.45 229.81 1877.07 230.213 1877 230.688C1876.91 231.333 1876.45 231.339 1876.12 231.877C1875.67 232.597 1875.71 233.625 1875.27 234.387C1873.46 237.519 1873.56 241.371 1872.96 244.781C1872.53 247.176 1873.2 249.588 1873.46 251.864C1873.72 254.073 1874.72 256.154 1875.5 258.171C1875.82 259.014 1876.55 259.961 1877.04 260.803C1877.51 261.613 1878.56 262.219 1879.01 262.998Z" fill="#FFBB00" stroke="#FFBB00" stroke-width="5" stroke-linecap="round"/>
<path d="M1885.6 265.799C1886.38 267.205 1887.14 268.182 1888.31 269.126L1891.5 272.079C1892.24 272.433 1892.82 273.342 1893.72 273.393C1894.36 273.429 1894.89 274.069 1895.42 274.069C1895.57 274.069 1896.77 274.438 1896.82 274.492C1897.11 274.822 1897.95 274.551 1898.27 274.783C1898.62 275.038 1899.08 275.252 1899.53 275.252C1900.48 275.252 1901.65 275.421 1902.71 275.421C1904.88 275.421 1907.93 275.911 1909.9 275.121C1910.36 274.939 1911.18 275.083 1911.68 275.083C1912.47 275.083 1913.03 274.745 1913.83 274.745C1915.07 274.745 1916.3 274.407 1917.57 274.407H1919.25C1919.58 274.407 1921.03 274.199 1921.26 274.032C1921.48 273.872 1921.67 273.9 1921.96 273.9C1922.33 273.9 1922.1 273.634 1922.34 273.572C1922.74 273.47 1923.13 273.46 1923.45 273.224C1924.05 272.792 1925.46 272.235 1926.25 272.032C1926.38 271.997 1926.61 271.738 1926.68 271.629C1926.91 271.288 1927.3 271.491 1927.51 271.197C1927.76 270.852 1928.71 270.164 1929.08 270.014C1930.33 269.514 1930.88 268.962 1931.87 268.071C1932.09 267.865 1933.04 267.033 1933.08 266.803C1933.12 266.58 1933.72 265.432 1933.92 265.283C1934.51 264.856 1934.95 263.393 1935.13 262.664C1935.36 261.709 1935.29 260.631 1935.98 259.885C1936.26 259.583 1936.02 258.875 1936.3 258.561C1936.59 258.239 1936.48 257.652 1936.73 257.256C1937.04 256.745 1936.53 256.113 1937.11 255.783C1937.34 255.652 1937.19 254.67 1937.19 254.431C1937.19 252.587 1937.67 250.036 1936.86 248.385C1936.53 247.721 1937.08 246.272 1936.59 245.719C1936.24 245.326 1936.59 244.702 1936.35 244.236C1936.12 243.776 1936.07 243.228 1936.07 242.725C1936.07 241.687 1935.82 240.734 1935.41 239.768C1934.88 238.535 1935.1 237.293 1934.67 236.06C1934.51 235.602 1934.66 234.907 1933.83 235.243C1933.35 235.435 1932.9 235.601 1932.44 235.722C1932 235.835 1931.59 236.296 1931.17 236.557C1930.67 236.871 1930.07 237.196 1929.53 237.44C1927.67 238.281 1925.74 239.305 1924.63 240.875C1923.87 241.945 1924.99 238.236 1924.44 237.064C1924.02 236.159 1924.5 234.972 1923.78 234.154C1923.56 233.911 1923.73 232.98 1923.73 232.671C1923.73 232.063 1923.67 231.362 1923.4 230.812C1923.18 230.363 1923.39 229.806 1923.17 229.357C1922.91 228.822 1922.61 228.013 1922.61 227.433C1922.61 226.936 1922.33 226.213 1922.15 225.743C1922.03 225.451 1921.87 225.211 1921.87 224.898C1921.87 224.561 1921.55 224.512 1921.49 224.222C1921.4 223.729 1921.05 223.114 1920.84 222.617C1920.54 221.918 1920.24 221.181 1919.73 220.589C1919.52 220.35 1919.56 219.938 1919.39 219.66C1919.21 219.337 1918.91 219.257 1918.87 218.853C1918.83 218.316 1918.26 217.962 1918.11 217.482C1918.06 217.343 1917.01 216.205 1916.88 216.13C1916.51 215.924 1915.71 215.045 1915.43 214.675C1914.73 213.719 1914.22 213.043 1913.31 212.219C1912.94 211.882 1912.26 211.187 1911.96 210.915C1911.59 210.579 1910.96 210.062 1910.48 209.691C1909.4 208.856 1909.49 208.486 1908.16 207.916C1907.58 207.669 1906.91 207.02 1906.41 206.664C1905.92 206.324 1905.68 205.974 1905.08 205.767C1904.73 205.643 1903.97 204.978 1903.64 204.978C1903.53 204.978 1903.17 206.155 1903.17 206.311C1903.17 206.619 1903.05 206.798 1903 207.081C1902.92 207.475 1902.52 207.585 1902.44 207.916C1902.28 208.569 1902.12 209.071 1901.78 209.691C1901.48 210.234 1901.46 210.835 1901.16 211.38C1900.97 211.722 1900.76 212.517 1900.46 212.732C1899.97 213.09 1900.14 213.466 1899.77 213.877C1899.54 214.129 1899.51 214.381 1899.41 214.675C1899.27 215.101 1898.75 215.134 1898.68 215.605C1898.49 216.812 1897.1 217.713 1896.81 218.9C1896.55 219.954 1895.43 220.83 1894.97 221.772C1894.3 223.144 1893.54 224.599 1892.44 225.743C1892.06 226.127 1891.44 226.954 1891.4 227.47C1891.34 228.159 1890.57 228.62 1890.45 229.282C1890.42 229.469 1890.19 229.632 1890.05 229.761C1889.71 230.062 1889.72 230.479 1889.42 230.812C1888.91 231.391 1888.75 232.223 1888.31 232.84C1887.5 233.99 1887.03 235.683 1886.02 236.595C1885.7 236.885 1885.81 237.468 1885.5 237.825C1885.25 238.118 1885.37 238.515 1885.15 238.754C1884.84 239.077 1884.52 239.274 1884.48 239.73C1884.45 240.111 1884.17 240.423 1884.12 240.791C1884.05 241.29 1883.71 241.295 1883.46 241.711C1883.13 242.269 1883.17 243.064 1882.84 243.654C1881.5 246.078 1881.58 249.059 1881.13 251.699C1880.81 253.553 1881.31 255.42 1881.5 257.181C1881.69 258.891 1882.43 260.501 1883.01 262.063C1883.25 262.715 1883.79 263.448 1884.15 264.1C1884.5 264.727 1885.27 265.196 1885.6 265.799Z" fill="#FF9500" stroke="#FF9500" stroke-width="5" stroke-linecap="round"/>
<path d="M1891.01 268.387C1891.62 269.295 1892.2 269.925 1893.11 270.534L1895.58 272.44C1896.15 272.668 1896.6 273.254 1897.3 273.288C1897.79 273.311 1898.2 273.724 1898.61 273.724C1898.73 273.724 1899.66 273.961 1899.7 273.996C1899.92 274.209 1900.57 274.035 1900.82 274.184C1901.09 274.349 1901.45 274.487 1901.79 274.487C1902.53 274.487 1903.44 274.596 1904.25 274.596C1905.93 274.596 1908.3 274.912 1909.82 274.402C1910.17 274.285 1910.81 274.378 1911.2 274.378C1911.81 274.378 1912.25 274.16 1912.86 274.16C1913.83 274.16 1914.78 273.942 1915.76 273.942H1917.06C1917.31 273.942 1918.44 273.807 1918.62 273.699C1918.79 273.596 1918.93 273.615 1919.16 273.615C1919.45 273.615 1919.27 273.442 1919.45 273.403C1919.76 273.337 1920.06 273.331 1920.31 273.179C1920.78 272.899 1921.87 272.54 1922.48 272.409C1922.58 272.387 1922.76 272.22 1922.81 272.149C1922.99 271.929 1923.29 272.06 1923.46 271.87C1923.65 271.648 1924.38 271.204 1924.67 271.107C1925.63 270.785 1926.06 270.428 1926.83 269.853C1927 269.721 1927.73 269.184 1927.77 269.036C1927.8 268.891 1928.26 268.151 1928.42 268.054C1928.87 267.779 1929.21 266.835 1929.35 266.364C1929.53 265.749 1929.48 265.053 1930.01 264.572C1930.22 264.377 1930.04 263.92 1930.26 263.717C1930.48 263.51 1930.4 263.131 1930.59 262.876C1930.83 262.546 1930.43 262.137 1930.89 261.925C1931.06 261.84 1930.95 261.206 1930.95 261.052C1930.95 259.863 1931.32 258.217 1930.69 257.152C1930.44 256.723 1930.86 255.788 1930.48 255.431C1930.21 255.178 1930.48 254.775 1930.3 254.474C1930.12 254.178 1930.08 253.824 1930.08 253.499C1930.08 252.83 1929.89 252.215 1929.57 251.591C1929.16 250.796 1929.33 249.995 1929 249.199C1928.87 248.903 1928.99 248.455 1928.35 248.672C1927.98 248.795 1927.63 248.903 1927.27 248.981C1926.93 249.054 1926.61 249.351 1926.29 249.52C1925.9 249.722 1925.44 249.932 1925.02 250.089C1923.58 250.632 1922.09 251.293 1921.22 252.306C1920.63 252.996 1921.5 250.603 1921.08 249.847C1920.75 249.263 1921.12 248.497 1920.56 247.969C1920.4 247.812 1920.53 247.212 1920.53 247.012C1920.53 246.62 1920.48 246.168 1920.27 245.813C1920.1 245.523 1920.27 245.163 1920.1 244.874C1919.89 244.529 1919.66 244.007 1919.66 243.632C1919.66 243.312 1919.45 242.846 1919.3 242.542C1919.21 242.354 1919.08 242.199 1919.08 241.997C1919.08 241.78 1918.84 241.748 1918.8 241.561C1918.73 241.242 1918.45 240.846 1918.29 240.525C1918.06 240.074 1917.82 239.599 1917.43 239.217C1917.27 239.062 1917.3 238.797 1917.17 238.617C1917.03 238.409 1916.8 238.358 1916.77 238.096C1916.73 237.75 1916.29 237.522 1916.17 237.212C1916.14 237.122 1915.33 236.388 1915.22 236.34C1914.94 236.207 1914.32 235.639 1914.11 235.401C1913.56 234.784 1913.17 234.348 1912.46 233.816C1912.17 233.598 1911.65 233.15 1911.42 232.975C1911.13 232.758 1910.65 232.424 1910.27 232.185C1909.43 231.646 1909.51 231.407 1908.48 231.04C1908.03 230.88 1907.51 230.461 1907.12 230.232C1906.74 230.013 1906.56 229.787 1906.09 229.653C1905.82 229.573 1905.23 229.144 1904.98 229.144C1904.89 229.144 1904.62 229.903 1904.62 230.004C1904.62 230.203 1904.52 230.318 1904.48 230.501C1904.42 230.755 1904.11 230.826 1904.04 231.04C1903.92 231.461 1903.8 231.785 1903.54 232.185C1903.31 232.535 1903.29 232.923 1903.06 233.275C1902.91 233.495 1902.75 234.008 1902.52 234.147C1902.13 234.378 1902.27 234.621 1901.98 234.886C1901.8 235.048 1901.78 235.211 1901.71 235.401C1901.59 235.676 1901.19 235.697 1901.13 236.001C1900.99 236.78 1899.91 237.361 1899.69 238.127C1899.49 238.807 1898.62 239.372 1898.26 239.98C1897.74 240.865 1897.16 241.804 1896.3 242.542C1896.02 242.79 1895.53 243.324 1895.5 243.657C1895.46 244.101 1894.86 244.399 1894.77 244.826C1894.74 244.946 1894.56 245.052 1894.45 245.135C1894.2 245.329 1894.2 245.598 1893.97 245.813C1893.57 246.186 1893.45 246.723 1893.11 247.121C1892.48 247.864 1892.12 248.956 1891.34 249.544C1891.09 249.731 1891.17 250.107 1890.93 250.338C1890.74 250.527 1890.83 250.783 1890.66 250.937C1890.42 251.146 1890.17 251.272 1890.15 251.567C1890.12 251.813 1889.9 252.014 1889.86 252.252C1889.81 252.573 1889.55 252.576 1889.36 252.845C1889.1 253.205 1889.13 253.718 1888.88 254.099C1887.84 255.663 1887.9 257.587 1887.55 259.29C1887.3 260.486 1887.69 261.691 1887.84 262.827C1887.98 263.93 1888.56 264.969 1889 265.977C1889.19 266.398 1889.61 266.87 1889.89 267.291C1890.16 267.696 1890.76 267.999 1891.01 268.387Z" fill="#FF0000" stroke="#FF0000" stroke-width="5" stroke-linecap="round"/>
<path d="M2171.83 1C2171.83 1.32171 2171.89 1.73084 2171.8 2.03918C2171.7 2.37679 2171.37 2.75799 2171.31 3.07836C2171.22 3.5765 2170.65 3.85246 2170.65 4.20662" stroke="#E6C5C5" stroke-linecap="round"/>
<path d="M2071.51 230.686V225.05L2077.3 225.989L2085.21 226.929L2094.87 227.868L2103.17 228.432H2113.2H2124.59L2138.88 228.995H2148.53H2155.67H2165.51L2184.62 228.432L2199.87 227.116L2213.77 224.862L2212.81 236.135L2208.75 248.347L2201.61 260.184L2192.35 271.833L2179.41 281.415L2164.36 287.991L2149.69 290.621H2132.89L2121.31 287.991L2109.54 283.669L2096.8 275.215L2087.53 266.196L2080.2 255.863L2074.02 241.583L2071.51 230.686Z" fill="#E71717" stroke="black"/>
<path d="M2072.09 225.05L2069.19 223.171V220.728L2070.93 218.849L2074.79 217.91L2082.7 216.783L2088.5 216.219L2098.15 215.655L2112.24 214.716L2128.26 213.964H2135.4H2152.77L2183.47 215.28L2192.73 215.843L2205.28 216.595L2213.77 218.849L2216.47 220.728V222.795L2213.77 224.862L2206.82 225.989L2194.66 227.304L2180.18 228.431H2168.8H2153.93H2141.77H2129.61H2116.1L2103.55 227.868L2090.04 227.304L2078.65 226.177L2072.09 225.05Z" fill="#272626" stroke="black"/>
<path d="M2078.26 224.674L2082.51 218.286H2085.02L2080.97 224.674H2078.26Z" fill="#6D6A6A" stroke="black"/>
<path d="M2089.07 225.613L2094.29 217.722L2096.41 217.722L2091.58 225.613L2089.07 225.613Z" fill="#6D6A6A" stroke="black"/>
<path d="M2099.5 226.928L2105.1 217.158L2107.8 217.158L2101.81 226.928L2099.5 226.928Z" fill="#6D6A6A" stroke="black"/>
<path d="M2110.5 226.928L2116.29 216.971L2119.19 216.971L2113.2 226.928L2110.5 226.928Z" fill="#6D6A6A" stroke="black"/>
<path d="M2120.73 227.304L2127.68 216.595L2130.19 216.595L2123.82 227.304L2120.73 227.304Z" fill="#6D6A6A" stroke="black"/>
<path d="M2130.96 226.741L2138.68 216.219L2141.58 216.219L2134.24 226.741L2130.96 226.741Z" fill="#6D6A6A" stroke="black"/>
<path d="M2141.13 226.629L2148.33 216.219L2151.23 216.219L2144.52 226.629L2141.13 226.629Z" fill="#6D6A6A" stroke="black"/>
<path d="M2152.58 226.741L2160.3 216.219L2163.39 216.219L2155.86 226.741L2152.58 226.741Z" fill="#6D6A6A" stroke="black"/>
<path d="M2163.97 226.74L2171.62 216.261L2174.97 216.031L2167.06 226.74L2163.97 226.74Z" fill="#6D6A6A" stroke="black"/>
<path d="M2174.78 226.928L2182.43 216.261L2185.82 216.449L2177.87 226.928L2174.78 226.928Z" fill="#6D6A6A" stroke="black"/>
<path d="M2185.91 225.877L2192.35 217.534L2195.05 217.534L2189.3 225.877L2185.91 225.877Z" fill="#6D6A6A" stroke="black"/>
<path d="M2197.36 225.425L2202.38 219.037L2204.7 219.037L2200.07 225.425L2197.36 225.425Z" fill="#6D6A6A" stroke="black"/>
<path d="M2214.92 221.064C2214.87 221.49 2214.45 222.09 2214.12 222.271C2213.61 222.544 2213.63 223.1 2213.02 223.337C2212.68 223.472 2212.59 223.763 2212.22 223.763C2211.97 223.763 2211.57 224.015 2211.38 224.158C2210.85 224.574 2209.73 224.303 2209.08 224.584C2208.84 224.689 2208.44 224.616 2208.17 224.616C2207.73 224.616 2207.41 224.9 2206.97 224.9C2206.63 224.9 2206.43 225.169 2206.16 225.184C2205.77 225.207 2205.29 225.094 2204.93 225.255C2204.37 225.505 2203.6 225.469 2202.98 225.469C2202.26 225.469 2201.58 225.753 2200.91 225.753C2197.54 225.753 2194.16 225.857 2190.83 226.037C2190.16 226.073 2189.52 226.179 2188.86 226.179C2188.15 226.179 2187.42 226.605 2186.66 226.605C2185.12 226.605 2183.67 227.174 2182.07 227.174C2180.47 227.174 2178.99 227.458 2177.4 227.458C2175.99 227.458 2174.63 227.6 2173.17 227.6C2171.69 227.6 2170.21 227.174 2168.72 227.174C2167.43 227.174 2166.14 227.174 2164.85 227.174C2159.23 227.174 2153.57 227.458 2147.99 227.458C2137.29 227.458 2126.37 227.458 2115.72 227.458C2114.17 227.458 2112.7 227.174 2111.12 227.174C2110.58 227.174 2109.63 227.36 2109.15 227.103C2108.61 226.811 2107.72 227.13 2107.12 227.024C2105.59 226.754 2104.05 226.747 2102.48 226.747C2100.81 226.747 2099.25 226.463 2097.62 226.463C2096.23 226.463 2094.85 226.463 2093.46 226.463C2092.87 226.463 2092.12 226.585 2091.56 226.392C2090.91 226.167 2090.17 226.475 2089.52 226.25C2088.42 225.869 2086.7 225.895 2085.58 225.895C2084.93 225.895 2084.4 225.753 2083.79 225.753C2083.14 225.753 2082.18 225.933 2081.72 225.532C2081.42 225.275 2080.21 225.469 2079.81 225.469C2079.13 225.469 2078.37 225.327 2077.77 225.327C2076.69 225.327 2075.34 225.018 2074.34 224.584C2073.76 224.334 2073.26 224.043 2072.66 223.913C2072.21 223.816 2071.76 223.321 2071.33 223.203C2070.73 223.036 2070.39 222.135 2070.39 221.49C2070.39 221.178 2070.25 220.932 2070.25 220.574C2070.25 220.029 2071.68 219.896 2072.05 219.753C2073.01 219.382 2074.13 219.143 2075.14 218.924C2076.36 218.661 2077.74 218.364 2079.01 218.364C2079.48 218.364 2079.87 218.151 2080.32 218.088C2080.87 218.011 2081.19 218.098 2081.72 217.859C2082.44 217.529 2083.65 217.769 2084.44 217.622C2085.59 217.409 2086.81 217.497 2087.98 217.377C2088.62 217.311 2089.34 217.227 2089.99 217.227C2090.42 217.227 2091.33 217.389 2091.71 217.156C2092.06 216.939 2092.83 217.085 2093.24 217.085C2093.74 217.085 2094.23 216.943 2094.74 216.943C2095.42 216.943 2096.12 216.801 2096.85 216.801C2098.59 216.801 2100.26 216.375 2102 216.375C2104.45 216.375 2106.89 216.375 2109.34 216.375C2111.42 216.375 2113.5 216.375 2115.58 216.375C2118.05 216.375 2120.5 216.09 2122.95 216.09C2124.81 216.09 2126.56 215.806 2128.43 215.806C2129.51 215.806 2130.6 215.522 2131.71 215.522C2132.63 215.522 2133.56 215.522 2134.48 215.522C2137.95 215.522 2141.48 215.38 2144.99 215.38C2151.1 215.38 2157.2 215.38 2163.31 215.38C2166.87 215.38 2170.42 215.38 2173.98 215.38C2175.32 215.38 2176.65 215.38 2177.99 215.38C2179.64 215.38 2181.23 215.806 2182.89 215.806C2183.39 215.806 2183.73 216.09 2184.26 216.09C2184.7 216.09 2185.14 216.067 2185.58 216.09C2186.09 216.118 2186.63 216.375 2187.18 216.375C2187.82 216.375 2188.44 216.517 2189.01 216.517C2189.67 216.517 2190.49 216.396 2191.12 216.588C2191.43 216.683 2191.75 216.659 2192.07 216.659C2192.42 216.659 2192.69 216.933 2193.02 216.943C2193.37 216.953 2193.78 216.878 2194.12 216.951C2194.37 217.006 2194.69 217.214 2194.92 217.227C2195.58 217.265 2196.24 217.227 2196.9 217.227C2197.54 217.227 2198.14 217.511 2198.79 217.511C2199.53 217.511 2200.08 217.548 2200.76 217.827C2201.42 218.097 2202.08 217.992 2202.77 218.19C2203.47 218.393 2204.18 218.364 2204.92 218.364C2205.7 218.364 2206.35 218.648 2207.11 218.648C2207.62 218.648 2207.89 218.932 2208.42 218.932C2208.85 218.932 2209.13 219.014 2209.52 219.185C2210.14 219.453 2211.07 219.128 2211.71 219.39C2212.4 219.674 2213.21 219.371 2213.82 219.927C2214.17 220.248 2215.03 220.988 2215.21 221.348" stroke="#7C7C7C" stroke-width="5" stroke-linecap="round"/>
<path d="M2116.86 286.535L2086.37 400.017" stroke="black" stroke-width="15" stroke-linecap="round"/>
<path d="M2142.93 290.621V415" stroke="black" stroke-width="15" stroke-linecap="round"/>
<path d="M2168.02 286.488L2201.22 406.734" stroke="black" stroke-width="15" stroke-linecap="round"/>
<path d="M2106.12 332.522C2106.46 332.522 2106.73 332.687 2107.05 332.687C2107.53 332.687 2107.97 332.418 2108.42 332.285C2109.05 332.098 2109.85 332.037 2110.44 331.773C2110.85 331.583 2111.5 331.259 2111.96 331.216C2113.16 331.105 2114.22 330.355 2115.4 330.211C2115.77 330.166 2115.93 329.892 2116.34 329.892C2116.68 329.892 2116.88 329.784 2117.18 329.718C2118.73 329.383 2119.88 328.76 2121.49 328.586C2124.26 328.286 2127.2 328.839 2129.93 328.248C2131.52 327.904 2133.25 327.754 2134.87 327.754C2137.29 327.754 2139.82 327.426 2142.27 327.426C2144.31 327.426 2146.31 327.261 2148.35 327.261C2149.75 327.261 2150.99 327.59 2152.36 327.59C2153.31 327.59 2154.16 327.827 2155.1 327.91C2155.97 327.987 2157.49 327.6 2158.24 328.083C2159.01 328.583 2160.77 328.276 2161.69 328.403C2162.3 328.488 2163.03 328.576 2163.63 328.576C2165.25 328.576 2166.96 328.886 2168.53 329.225C2169.14 329.357 2169.78 329.299 2170.4 329.408C2171.16 329.542 2171.92 329.778 2172.67 329.883C2173.48 329.995 2174.21 330.097 2174.96 330.421C2175.29 330.563 2175.87 330.858 2176.22 330.878C2176.64 330.903 2177.21 331.681 2177.57 331.901C2177.99 332.161 2178.07 332.741 2178.07 333.18C2178.07 333.546 2178.41 333.587 2178.41 334.002C2178.41 334.274 2178.43 334.552 2178.41 334.824C2178.38 335.273 2177.94 335.848 2177.6 336.176C2176.85 336.913 2176.02 337.314 2175.2 337.948C2174.88 338.199 2173.93 338.746 2173.51 338.77C2172.17 338.847 2170.96 339.32 2169.54 339.108C2168.15 338.899 2166.57 339.099 2165.15 339.099C2162.25 339.099 2159.13 338.49 2156.29 339.181C2154.32 339.662 2152.03 340.085 2150 340.085C2148.5 340.085 2146.96 340.502 2145.47 340.578C2142.35 340.738 2139.18 340.743 2136.02 340.743C2134.87 340.743 2133.52 340.933 2132.39 340.733C2131.03 340.491 2129.78 340.249 2128.33 340.249C2125.41 340.249 2122.51 339.756 2119.55 339.756C2118.39 339.756 2117.38 339.163 2116.25 339.099C2116.09 339.089 2115.06 338.826 2114.94 338.733C2114.45 338.353 2113.9 338.63 2113.38 338.404C2113.01 338.242 2112.4 337.826 2112.03 337.783C2111.13 337.681 2110.37 336.843 2109.57 336.797C2109.06 336.767 2108.05 336.403 2107.64 336.066C2107.23 335.73 2106.34 335.094 2106.12 334.66" stroke="black" stroke-width="10" stroke-linecap="round"/>
<line y1="-1.5" x2="64.2031" y2="-1.5" transform="matrix(-0.999994 -0.00166521 0.00159912 -1 2135.35 212.787)" stroke="#D2B48C" stroke-width="3"/>
<path d="M2128.48 208.21L2141.07 208.357L2142.84 219.297L2128.36 219.128L2128.48 208.21Z" fill="#824C2E" stroke="black"/>
<path d="M2128.36 219.119L2115.78 219.504L2113.57 208.648L2128.04 208.205L2128.36 219.119Z" fill="#824C2E" stroke="black"/>
<path d="M2098.15 218.766L2085.57 219.151L2083.36 208.295L2097.83 207.852L2098.15 218.766Z" fill="#824C2E" stroke="black"/>
<path d="M2099.53 207.872L2112.12 208.109L2113.81 219.062L2099.33 218.789L2099.53 207.872Z" fill="#824C2E" stroke="black"/>
<path d="M2138.87 216.994C2137.84 216.749 2136.82 215.928 2135.89 215.437C2135.1 215.024 2134.37 214.453 2133.64 213.934C2133.29 213.685 2132.56 213.184 2132.37 212.835C2132.2 212.53 2131.55 211.92 2131.2 211.827" stroke="#E6C5C5" stroke-linecap="round"/>
<path d="M2124.8 210.817C2124.71 211.427 2123.44 212.139 2123 212.533C2122.63 212.863 2121.94 213.246 2121.49 213.48C2120.32 214.094 2119.79 214.996 2119.24 216.097" stroke="#E6C5C5" stroke-linecap="round"/>
<path d="M2120.08 210.628C2119.97 211.136 2118.25 212.534 2117.83 212.74" stroke="#E6C5C5" stroke-linecap="round"/>
<path d="M2110.86 215.865C2109.75 215.852 2108.49 216.01 2107.44 215.617C2106.87 215.402 2106.25 215.236 2105.69 214.973C2105.43 214.848 2105.24 214.553 2104.98 214.46C2104 214.117 2103.3 213.44 2102.38 212.96" stroke="#E6C5C5" stroke-linecap="round"/>
<path d="M2094.55 210.865C2094.47 211.665 2093.51 212.009 2092.86 212.152C2092.19 212.3 2091.82 212.581 2091.28 212.964C2090.85 213.27 2090.66 213.73 2090.19 213.961C2089.85 214.132 2089.14 214.38 2089.14 214.81" stroke="#E6C5C5" stroke-linecap="round"/>
<path d="M2088.4 210.526C2087.97 210.765 2086.55 211.596 2086.55 212.108" stroke="#E6C5C5" stroke-linecap="round"/>
<line y1="-0.5" x2="70.4939" y2="-0.5" transform="matrix(0.999951 0.00987957 -0.0094874 0.999955 2156.76 216.602)" stroke="#D2B48C"/>
<path d="M2157.73 214.042L2155.84 214.023L2155.88 209.848L2159.03 209.879L2160.9 211.183L2157.73 214.042Z" fill="white" stroke="black" stroke-width="0.5"/>
<path d="M2150.81 213.652L2150.16 215.252L2153 215.28L2154.87 216.583L2154.88 215.619L2155.2 214.98L2154.27 214.008L2151.45 212.695L2150.81 213.652Z" fill="white" stroke="black" stroke-width="0.5"/>
<path d="M2153 215.28L2150.16 215.252L2149.85 215.57L2150.14 217.499L2150.75 219.432L2151.68 220.726L2152.29 222.98L2153.22 224.274L2154.79 224.932L2156.37 224.305L2154.82 222.042L2153.58 220.424L2153.27 219.457L2153.9 219.464L2154.22 218.503L2154.87 216.583L2153 215.28Z" fill="#FF9131" stroke="black" stroke-width="0.5"/>
<path d="M2155.84 214.023L2155.2 214.98L2153.64 213.68L2151.76 212.698L2152.72 211.423L2153.99 210.151L2155.88 209.848L2155.84 214.023Z" fill="#FF9131" stroke="black" stroke-width="0.5"/>
<path d="M2158.35 215.011L2157.73 214.042L2160.9 211.183L2161.21 211.507L2162.46 212.804L2163.39 213.776L2163.38 215.382L2158.34 215.332L2158.35 215.011Z" fill="#FF9131" stroke="black" stroke-width="0.5"/>
<path d="M2158.34 216.296L2158.34 215.333L2163.38 215.382L2163.36 216.988L2163.34 219.236L2162.7 220.514L2158.34 216.296Z" fill="white" stroke="black" stroke-width="0.5"/>
<path d="M2161.43 222.107L2162.7 220.514L2158.34 216.296L2158.02 216.614L2157.07 217.247L2155.8 218.198L2155.47 219.479L2155.46 221.085L2156.39 222.7L2157.32 223.351L2158.58 223.364L2160.16 223.058L2161.43 222.107Z" fill="#FF9131" stroke="black" stroke-width="0.5"/>
<path d="M2215 214.608L2213.11 214.589L2213.15 210.414L2216.3 210.445L2218.18 211.748L2215 214.608Z" fill="white" stroke="black" stroke-width="0.5"/>
<path d="M2208.08 214.218L2207.44 215.818L2210.27 215.846L2212.14 217.149L2212.15 216.185L2212.47 215.546L2211.54 214.573L2208.72 213.261L2208.08 214.218Z" fill="white" stroke="black" stroke-width="0.5"/>
<path d="M2210.27 215.845L2207.44 215.817L2207.12 216.136L2207.42 218.065L2208.03 219.998L2208.96 221.292L2209.57 223.546L2210.5 224.84L2212.07 225.498L2213.64 224.871L2212.09 222.608L2210.85 220.99L2210.54 220.023L2211.17 220.029L2211.5 219.069L2212.14 217.149L2210.27 215.845Z" fill="#FF9131" stroke="black" stroke-width="0.5"/>
<path d="M2213.11 214.589L2212.47 215.546L2210.91 214.246L2209.03 213.264L2209.99 211.989L2211.26 210.717L2213.15 210.414L2213.11 214.589Z" fill="#FF9131" stroke="black" stroke-width="0.5"/>
<path d="M2215.62 215.577L2215 214.608L2218.18 211.749L2218.49 212.073L2219.73 213.37L2220.67 214.342L2220.65 215.948L2215.62 215.898L2215.62 215.577Z" fill="#FF9131" stroke="black" stroke-width="0.5"/>
<path d="M2215.61 216.862L2215.62 215.899L2220.65 215.948L2220.64 217.554L2220.62 219.802L2219.97 221.08L2215.61 216.862Z" fill="white" stroke="black" stroke-width="0.5"/>
<path d="M2218.7 222.673L2219.98 221.08L2215.61 216.862L2215.29 217.18L2214.34 217.813L2213.07 218.763L2212.75 220.045L2212.73 221.651L2213.66 223.266L2214.6 223.917L2215.86 223.93L2217.43 223.624L2218.7 222.673Z" fill="#FF9131" stroke="black" stroke-width="0.5"/>
<path d="M2186.05 214.321L2184.16 214.303L2184.2 210.128L2187.35 210.159L2189.22 211.462L2186.05 214.321Z" fill="white" stroke="black" stroke-width="0.5"/>
<path d="M2179.13 213.932L2178.49 215.531L2181.32 215.559L2183.19 216.863L2183.2 215.899L2183.52 215.26L2182.59 214.287L2179.77 212.975L2179.13 213.932Z" fill="white" stroke="black" stroke-width="0.5"/>
<path d="M2181.32 215.559L2178.49 215.531L2178.17 215.849L2178.46 217.779L2179.07 219.712L2180.01 221.006L2180.61 223.26L2181.55 224.554L2183.11 225.212L2184.69 224.585L2183.14 222.322L2181.9 220.704L2181.59 219.737L2182.22 219.743L2182.55 218.783L2183.19 216.863L2181.32 215.559Z" fill="#FF9131" stroke="black" stroke-width="0.5"/>
<path d="M2184.16 214.303L2183.52 215.26L2181.96 213.96L2180.08 212.978L2181.04 211.703L2182.31 210.43L2184.2 210.128L2184.16 214.303Z" fill="#FF9131" stroke="black" stroke-width="0.5"/>
<path d="M2186.67 215.291L2186.05 214.321L2189.22 211.462L2189.54 211.787L2190.78 213.084L2191.72 214.056L2191.7 215.662L2186.67 215.612L2186.67 215.291Z" fill="#FF9131" stroke="black" stroke-width="0.5"/>
<path d="M2186.66 216.576L2186.67 215.612L2191.7 215.662L2191.69 217.268L2191.67 219.516L2191.02 220.794L2186.66 216.576Z" fill="white" stroke="black" stroke-width="0.5"/>
<path d="M2189.75 222.387L2191.02 220.794L2186.66 216.575L2186.34 216.893L2185.39 217.526L2184.12 218.477L2183.8 219.759L2183.78 221.364L2184.71 222.979L2185.65 223.631L2186.91 223.643L2188.48 223.338L2189.75 222.387Z" fill="#FF9131" stroke="black" stroke-width="0.5"/>
<path d="M2171.8 223.173L2165.51 223.111L2164.26 222.456L2164.27 221.172L2164.61 218.927L2166.21 215.41L2167.82 211.893L2169.73 209.664L2171.93 209.686L2173.79 212.916L2176.25 219.042L2177.17 221.62L2175.58 223.211L2171.8 223.173Z" fill="#FFD900" stroke="black" stroke-width="0.5"/>
<path d="M2167.87 215.953C2167.87 215.617 2168.06 215.38 2168.22 215.097C2168.45 214.696 2168.68 214.283 2168.89 213.869C2169.01 213.638 2169.12 213.446 2169.21 213.204C2169.25 213.09 2169.33 212.848 2169.42 212.8" stroke="#F7E9A4" stroke-width="0.5" stroke-linecap="round"/>
<path d="M2170.23 216.513C2170.25 215.074 2170.31 213.613 2170.33 212.165" stroke="#F7E9A4" stroke-width="0.5" stroke-linecap="round"/>
<path d="M2171.27 212.98C2171.3 213.256 2171.6 213.526 2171.7 213.777C2171.86 214.146 2172.11 214.484 2172.28 214.839C2172.43 215.156 2172.57 215.47 2172.72 215.786C2172.86 216.052 2173.04 216.264 2173.13 216.542" stroke="#F7E9A4" stroke-width="0.5" stroke-linecap="round"/>
<path d="M2173.4 220.356C2173.58 220.54 2173.67 220.761 2173.83 220.939C2173.97 221.09 2174.02 221.407 2174.18 221.492" stroke="#F7E9A4" stroke-width="0.5" stroke-linecap="round"/>
<path d="M2170.45 220.864C2170.45 221.142 2170.34 221.427 2170.34 221.722" stroke="#F7E9A4" stroke-width="0.5" stroke-linecap="round"/>
<path d="M2167.57 220.192C2167.34 220.189 2167.26 220.881 2167.21 221.059C2167.11 221.407 2166.87 221.858 2166.86 222.225" stroke="#F7E9A4" stroke-width="0.5" stroke-linecap="round"/>
<path d="M2200.75 223.459L2194.46 223.397L2193.21 222.743L2193.22 221.458L2193.56 219.213L2195.16 215.696L2196.77 212.179L2198.68 209.95L2200.88 209.972L2202.74 213.202L2205.2 219.328L2206.12 221.907L2204.53 223.497L2200.75 223.459Z" fill="#FFD900" stroke="black" stroke-width="0.5"/>
<path d="M2196.82 216.239C2196.82 215.903 2197.01 215.666 2197.17 215.383C2197.4 214.983 2197.63 214.569 2197.84 214.155C2197.96 213.924 2198.07 213.732 2198.16 213.49C2198.2 213.377 2198.28 213.134 2198.38 213.086" stroke="#F7E9A4" stroke-width="0.5" stroke-linecap="round"/>
<path d="M2199.18 216.799C2199.2 215.36 2199.26 213.9 2199.28 212.451" stroke="#F7E9A4" stroke-width="0.5" stroke-linecap="round"/>
<path d="M2200.22 213.266C2200.25 213.542 2200.55 213.813 2200.65 214.064C2200.81 214.432 2201.06 214.77 2201.23 215.125C2201.38 215.442 2201.52 215.756 2201.67 216.072C2201.81 216.338 2201.99 216.551 2202.08 216.828" stroke="#F7E9A4" stroke-width="0.5" stroke-linecap="round"/>
<path d="M2202.36 220.643C2202.53 220.826 2202.62 221.047 2202.78 221.225C2202.92 221.377 2202.97 221.693 2203.13 221.778" stroke="#F7E9A4" stroke-width="0.5" stroke-linecap="round"/>
<path d="M2199.4 221.15C2199.4 221.428 2199.29 221.713 2199.29 222.008" stroke="#F7E9A4" stroke-width="0.5" stroke-linecap="round"/>
<path d="M2196.52 220.478C2196.29 220.476 2196.21 221.167 2196.16 221.345C2196.06 221.693 2195.82 222.144 2195.81 222.511" stroke="#F7E9A4" stroke-width="0.5" stroke-linecap="round"/>
<path d="M2713.04 317.373L2793.59 56.5485" stroke="black" stroke-width="15" stroke-linecap="round"/>
<path d="M2632.86 37.4732L2610.48 48.1787L2615.7 54.6019L2624.28 59.8573L2634.72 63.1663L2649.64 61.9984L2665.86 58.3002L2681.34 51.0983L2685.07 54.6019L2693.09 64.5288L2704.28 72.8985L2719.75 76.2075L2732.99 72.8985L2743.99 65.8913L2747.54 69.9789L2757.6 81.4629L2767.11 90.2219L2780.35 93.7255L2793.97 92.363L2807.2 90.2219L2812.61 96.0613L2825.29 106.183L2841.14 115.136H2853.82L2865.19 113.19L2877.5 106.183L2881.42 115.136L2886.45 121.56L2897.08 130.708L2907.71 133.433H2918.9L2927.47 129.346L2933.25 124.479L2923 108.129L2907.71 88.2755L2889.99 68.0324L2865.19 47.4001L2829.58 25.7945L2802.17 17.6194L2774.39 11.5854H2750.89H2724.6L2704.28 14.6998L2676.31 21.3177L2632.86 37.4732Z" fill="white" stroke="black" stroke-width="0.5"/>
<path d="M2675.75 54.018L2649.83 62.5823H2637.15L2628.57 61.0252L2616.82 55.9644L2610.67 47.7893L2623.54 41.95L2641.25 33.9695L2665.68 24.432L2688.05 18.9819L2705.77 14.3104L2719.94 12.364L2727.77 11.0015H2745.3H2768.23L2782.03 12.364L2790.05 14.3104L2801.42 17.3046L2811.49 19.9551L2825.29 24.432L2842.63 33.3856L2861.47 44.2857L2877.87 57.1323L2893.54 71.1467L2904.17 84.5772L2916.66 100.343L2924.3 110.465L2934 124.09L2926.91 129.54L2918.71 133.433H2906.78L2897.64 130.903L2890.74 125.647L2881.98 115.72L2877.87 106.183L2875.08 93.7255L2866.69 75.4289L2855.13 60.8305L2842.63 47.0107L2822.31 31.4392L2806.64 21.3176L2801.42 17.3046L2805.34 25.0159L2810.37 36.6946L2813.17 49.7358V62.5823V75.4289L2807.95 89.6379L2793.41 91.779L2782.03 93.7255L2769.91 91.779L2756.86 81.2682L2743.81 66.2806L2756.86 51.6822L2780.91 30.8552L2801.42 17.3046L2778.3 17.814L2760.22 18.9819L2747.91 20.7337L2732.25 24.432L2712.11 31.4392L2694.95 41.95L2675.75 54.018Z" fill="#FB0D0D"/>
<path d="M2801.42 17.3046L2778.3 17.814L2760.22 18.9819L2747.91 20.7337L2732.25 24.432L2712.11 31.4392L2694.95 41.95L2675.75 54.018L2649.83 62.5823H2637.15L2628.57 61.0252L2616.82 55.9644L2610.67 47.7893L2623.54 41.95L2641.25 33.9695L2665.68 24.432L2688.05 18.9819L2705.77 14.3104L2719.94 12.364L2727.77 11.0015H2745.3H2768.23L2782.03 12.364L2790.05 14.3104L2811.49 19.9551L2825.29 24.432L2842.63 33.3856L2861.47 44.2857L2877.87 57.1323L2893.54 71.1467L2904.17 84.5772L2916.66 100.343L2924.3 110.465L2934 124.09L2926.91 129.54L2918.71 133.433H2906.78L2897.64 130.903L2890.74 125.647L2881.98 115.72L2877.87 106.183L2875.08 93.7255L2866.69 75.4289L2855.13 60.8305L2842.63 47.0107L2822.31 31.4392L2806.64 21.3176L2801.42 17.3046ZM2801.42 17.3046L2780.91 30.8552L2756.86 51.6822L2743.81 66.2806L2756.86 81.2682L2769.91 91.779L2782.03 93.7255L2793.41 91.779L2807.95 89.6379L2813.17 75.4289V62.5823V49.7358L2810.37 36.6946L2805.34 25.0159L2801.42 17.3046Z" stroke="black" stroke-width="0.5"/>
<path d="M3.02051 545.938V1001.32H4554.92V572.778" stroke="black"/>
<path d="M117.799 536.097L15.1021 548.622L3.02051 545.938V684.609L329.234 666.716L613.162 612.143L872.925 666.716L1271.63 685.504L1585.76 666.716L1881.77 612.143L2147.58 666.716L2479.83 685.504L2815.11 665.822L3056.75 612.143L3331.61 665.822L3675.95 684.609L3929.67 665.822L4204.54 613.037L4394.83 668.506L4530.75 681.925L4585.12 684.609V576.357L4542.84 572.778H4509.61L4467.32 566.515L4497.53 562.042L4509.61 543.254L4530.75 536.097L4509.61 526.256L4449.2 523.572L4379.73 526.256L4343.48 530.729L4295.15 536.097L4234.74 543.254L4162.25 546.833L4089.76 536.097V526.256H4129.03L4186.42 519.994V504.784L4162.25 491.365L4110.9 480.629L4053.51 471.682L3968.94 468.998L3839.06 477.05L3745.42 485.997L3675.95 499.417L3618.56 508.363L3576.27 519.994L3491.7 543.254L3452.43 538.781L3431.29 530.729L3464.52 523.572L3515.86 513.731L3530.97 504.784L3464.52 496.733L3373.9 491.365L3301.41 496.733L3280.27 504.784L3225.9 519.994L3174.55 546.833L3089.97 559.358L3020.5 566.515L2954.05 559.358L2987.28 552.201L2996.34 536.097L3020.5 530.729V523.572L2987.28 513.731H2935.93L2848.33 519.994L2754.7 530.729L2661.06 538.781L2588.57 530.729L2576.49 519.994L2588.57 517.31L2673.14 513.731L2682.21 504.784L2661.06 485.997L2624.82 474.366L2528.16 461.841H2461.71L2359.01 466.314L2280.48 474.366L2171.74 489.575L2075.08 507.468L1972.39 536.097L1930.1 528.045V519.994L1948.22 513.731L2002.59 504.784L2023.74 499.417L1981.45 492.259L1899.9 482.418H1839.49L1779.08 489.575L1736.79 504.784L1664.3 536.097L1552.54 556.674H1477.03L1440.78 548.622L1477.03 544.149L1489.11 528.045L1510.25 523.572V513.731L1477.03 507.468L1419.64 504.784L1335.06 511.047L1283.71 517.31L1147.79 528.045L1078.32 519.994L1063.22 511.047L1102.48 504.784H1168.93V492.259L1147.79 474.366L1093.42 461.841L1017.91 452H927.294L860.843 457.368L718.879 470.788L613.162 489.575L534.629 504.784L468.178 523.572H425.891L416.829 511.047L437.973 504.784L495.362 496.733L510.465 489.575L468.178 484.207L392.665 474.366H305.07L265.804 484.207L208.414 499.417L172.168 523.572L117.799 536.097Z" fill="white" stroke="black"/>
<path d="M326.215 667.611L6.04102 684.609V997.737H4582.1V684.609L4391.81 667.611L4204.54 612.143L3926.65 667.611L3666.89 684.609L3334.63 667.611L3053.73 612.143L2806.05 667.611L2479.83 684.609L2147.58 667.611L1881.77 612.143L1582.74 667.611L1265.59 684.609L875.946 667.611L616.183 612.143L326.215 667.611Z" fill="url(#paint3_linear_63_2202)" stroke="black"/>
<path d="M350.378 802.704L6.03906 828.648V1011.16H4579.08V826.859L4388.79 802.704L4195.48 749.024L4017.27 802.704L3727.3 823.28L3361.82 802.704L3099.04 749.024L2857.4 802.704L2491.91 823.28L2138.52 802.704L1869.69 749.024L1546.5 802.704L1214.24 823.28L854.802 802.704L592.018 749.024L350.378 802.704Z" fill="#5FC8FC" stroke="black"/>
<defs>
<linearGradient id="paint0_linear_63_2202" x1="2372.57" y1="180.565" x2="2533.48" y2="325.686" gradientUnits="userSpaceOnUse">
<stop offset="0.705" stop-color="#F5F2F2"/>
<stop offset="1" stop-color="#8F8E8E"/>
</linearGradient>
<linearGradient id="paint1_linear_63_2202" x1="2372.57" y1="180.565" x2="2533.48" y2="325.686" gradientUnits="userSpaceOnUse">
<stop offset="0.705" stop-color="#F5F2F2"/>
<stop offset="1" stop-color="#8F8E8E"/>
</linearGradient>
<linearGradient id="paint2_linear_63_2202" x1="1753.86" y1="180.565" x2="1914.77" y2="325.686" gradientUnits="userSpaceOnUse">
<stop offset="0.705" stop-color="#F5F2F2"/>
<stop offset="1" stop-color="#8F8E8E"/>
</linearGradient>
<linearGradient id="paint3_linear_63_2202" x1="2286.52" y1="1140.88" x2="2286.52" y2="243.546" gradientUnits="userSpaceOnUse">
<stop stop-color="#B3E5FC"/>
<stop offset="1" stop-color="#E0F7FA"/>
</linearGradient>
</defs>
</svg>
