<svg width="9120" height="1818" viewBox="0 0 9120 1818" fill="none" xmlns="http://www.w3.org/2000/svg">
<path d="M5002.83 670.56L4994.19 632.926V593.844L5002.83 540.287L4955.29 503.377L5002.83 484.922V466.466L5015.8 424.49L5048.93 398.435H5073.43L5106.56 424.49L5113.76 466.466V508.443L5125.29 551.867L5184.35 564.894H5262.15L5375.96 528.708V593.844L5364.43 645.953L5344.26 686.482L5285.2 727.011L5214.61 745.829L5106.56 755.961L5059.02 745.829L5027.32 712.537L5002.83 670.56Z" fill="url(#paint0_linear_64_2200)"/>
<path d="M5106.56 755.961L5059.02 745.829L5027.32 712.537L5002.83 670.56L4994.19 632.926V593.844L5002.83 540.287M5106.56 755.961L5214.61 745.829M5106.56 755.961V809.517M5214.61 745.829L5285.2 727.011L5344.26 686.482L5364.43 645.953L5375.96 593.844V528.708L5262.15 564.894H5184.35L5125.29 551.867L5113.76 508.443V466.466L5106.56 424.49L5073.43 398.435H5048.93L5015.8 424.49L5002.83 466.466V484.922M5214.61 745.829V809.517M5002.83 540.287V503.377M5002.83 540.287L4955.29 503.377M5002.83 503.377H4955.29M5002.83 503.377V484.922M4955.29 503.377L5002.83 484.922M5214.61 612.661L5262.15 593.844M5214.61 632.926L5262.15 612.661M5285.2 580.817L5262.15 632.926L5205.96 656.085H5125.29L5082.07 593.844H5184.35L5285.2 580.817Z" stroke="black"/>
<path d="M5002.83 670.56L4994.19 632.926V593.844L5002.83 540.287L4955.29 503.377L5002.83 484.922V466.466L5015.8 424.49L5048.93 398.435H5073.43L5106.56 424.49L5113.76 466.466V508.443L5125.29 551.867L5184.35 564.894H5262.15L5375.96 528.708V593.844L5364.43 645.953L5344.26 686.482L5285.2 727.011L5214.61 745.829L5106.56 755.961L5059.02 745.829L5027.32 712.537L5002.83 670.56Z" fill="url(#paint1_linear_64_2200)"/>
<path d="M5106.56 755.961L5059.02 745.829L5027.32 712.537L5002.83 670.56L4994.19 632.926V593.844L5002.83 540.287M5106.56 755.961L5214.61 745.829M5106.56 755.961V809.517M5214.61 745.829L5285.2 727.011L5344.26 686.482L5364.43 645.953L5375.96 593.844V528.708L5262.15 564.894H5184.35L5125.29 551.867L5113.76 508.443V466.466L5106.56 424.49L5073.43 398.435H5048.93L5015.8 424.49L5002.83 466.466V484.922M5214.61 745.829V809.517M5002.83 540.287V503.377M5002.83 540.287L4955.29 503.377M5002.83 503.377H4955.29M5002.83 503.377V484.922M4955.29 503.377L5002.83 484.922M5214.61 612.661L5262.15 593.844M5214.61 632.926L5262.15 612.661M5285.2 580.817L5262.15 632.926L5205.96 656.085H5125.29L5082.07 593.844H5184.35L5285.2 580.817Z" stroke="black"/>
<ellipse cx="5036.69" cy="472.256" rx="12.2454" ry="11.5798" fill="#645B5B"/>
<path d="M5006.29 369.635L5002.7 382.912L4978.15 390.599L4956.59 398.984L4949.4 403.876L4945.21 409.466L4956.59 435.321L4988.93 454.887H5032.64L5057.2 446.501L5081.75 435.321L5116.49 428.333H5143.43L5151.22 439.513V415.755L5143.43 394.791L5130.26 382.912L5105.71 373.828L5102.11 357.756V338.889L5090.73 319.323L5066.18 313.034H5045.22L5022.46 319.323L5009.89 330.504L5006.29 357.756V369.635Z" fill="#EFCFA3" stroke="black"/>
<path d="M5032.64 359.154H5006.29V368.937H5036.24H5073.97H5105.11L5102.11 359.154H5091.33H5067.98H5032.64Z" fill="#CE4F4F" stroke="black"/>
<path d="M5071.76 370.581C5071.88 370.141 5071.88 368.995 5072.13 368.762C5072.52 368.408 5072.49 368.141 5072.72 367.437C5073.29 365.697 5073.96 364.014 5074.66 362.41C5076.95 357.188 5078.94 351.841 5082.23 348.226C5083.39 346.949 5084.56 345.393 5085.86 344.551C5087.11 343.738 5089.13 342.877 5090.18 344.668C5091.28 346.552 5092.86 348.979 5092.95 351.955C5093.01 353.663 5092.85 354.88 5091.85 355.414C5091.43 355.634 5091.33 356.41 5090.9 356.665C5090.34 356.997 5089.74 356.975 5089.17 357.277C5088.16 357.816 5087.58 357.809 5086.58 357.248C5085.42 356.606 5084.32 356.183 5083.21 355.248C5082.69 354.802 5081.99 354.523 5081.42 354.212C5080.92 353.937 5080.6 353.258 5080.13 352.936C5079.37 352.409 5079.04 351.145 5078.39 350.533C5077.68 349.856 5076.99 348.646 5076.3 347.775C5073.81 344.641 5071.32 342.111 5068.41 340.082C5068.08 339.852 5066.44 338.958 5066.42 340.393C5066.41 341.636 5066.47 342.695 5066.59 343.882C5066.87 346.82 5067.96 350.394 5069.66 351.698C5070.53 352.363 5070.98 351.948 5071.63 353.227C5071.95 353.878 5072.96 353.558 5073.43 353.563C5074.75 353.577 5076.12 353.277 5077.38 353.291C5077.98 353.298 5078.58 353.304 5079.18 353.311C5079.56 353.315 5079.89 353.634 5080.26 353.638C5080.68 353.643 5080.65 354.274 5080.96 354.592C5081.69 355.336 5082.02 358.369 5082.73 358.731C5082.82 358.777 5083.15 359.94 5083.16 360.12C5083.23 360.809 5083.75 361.063 5083.88 361.881C5084.03 362.846 5084.4 362.887 5084.75 363.503C5085.08 364.105 5085.28 364.931 5085.65 365.511C5086.03 366.11 5086.63 367.536 5086.71 368.52C5086.77 369.158 5087.47 369.883 5087.59 370.755" stroke="#D32323" stroke-width="5" stroke-linecap="round"/>
<path d="M4391.38 532.544C4393.97 536.782 4396.49 539.726 4400.4 542.572L4411 551.474C4413.46 552.54 4415.37 555.28 4418.39 555.435C4420.51 555.543 4422.26 557.472 4424.02 557.472C4424.54 557.472 4428.53 558.583 4428.69 558.746C4429.66 559.74 4432.46 558.925 4433.52 559.623C4434.7 560.392 4436.2 561.037 4437.7 561.037C4440.85 561.037 4444.77 561.547 4448.27 561.547C4455.49 561.547 4465.66 563.025 4472.21 560.641C4473.71 560.093 4476.44 560.528 4478.11 560.528C4480.74 560.528 4482.61 559.509 4485.26 559.509C4489.41 559.509 4493.48 558.491 4497.69 558.491H4503.29C4504.38 558.491 4509.22 557.864 4509.99 557.359C4510.73 556.876 4511.33 556.963 4512.3 556.963C4513.55 556.963 4512.79 556.159 4513.58 555.973C4514.89 555.667 4516.19 555.636 4517.28 554.926C4519.27 553.622 4523.96 551.942 4526.57 551.332C4527.02 551.226 4527.78 550.447 4528.02 550.116C4528.76 549.088 4530.08 549.702 4530.78 548.814C4531.6 547.774 4534.75 545.702 4536 545.249C4540.13 543.743 4541.98 542.077 4545.25 539.392C4546.01 538.773 4549.15 536.265 4549.3 535.572C4549.44 534.899 4551.41 531.438 4552.09 530.988C4554.05 529.703 4555.5 525.292 4556.1 523.094C4556.88 520.218 4556.65 516.966 4558.93 514.719C4559.86 513.809 4559.08 511.675 4560 510.729C4560.95 509.758 4560.61 507.989 4561.42 506.796C4562.46 505.255 4560.75 503.348 4562.7 502.354C4563.46 501.96 4562.97 498.999 4562.97 498.279C4562.97 492.721 4564.57 485.032 4561.87 480.057C4560.78 478.055 4562.6 473.689 4560.97 472.021C4559.81 470.837 4560.95 468.956 4560.18 467.551C4559.41 466.165 4559.24 464.512 4559.24 462.995C4559.24 459.867 4558.41 456.994 4557.03 454.082C4555.27 450.367 4556 446.624 4554.58 442.906C4554.05 441.526 4554.56 439.432 4551.78 440.444C4550.2 441.022 4548.71 441.524 4547.15 441.887C4545.69 442.229 4544.33 443.619 4542.94 444.406C4541.27 445.352 4539.28 446.33 4537.48 447.065C4531.29 449.602 4524.89 452.689 4521.18 457.421C4518.65 460.645 4522.37 449.466 4520.56 445.933C4519.16 443.206 4520.76 439.628 4518.35 437.162C4517.63 436.429 4518.21 433.624 4518.21 432.691C4518.21 430.859 4518.01 428.747 4517.11 427.089C4516.37 425.736 4517.08 424.055 4516.35 422.703C4515.47 421.09 4514.48 418.652 4514.48 416.903C4514.48 415.407 4513.54 413.227 4512.93 411.81C4512.54 410.931 4511.99 410.206 4511.99 409.263C4511.99 408.247 4510.93 408.099 4510.75 407.226C4510.45 405.738 4509.28 403.885 4508.57 402.387C4507.59 400.281 4506.57 398.06 4504.88 396.276C4504.19 395.554 4504.31 394.313 4503.77 393.475C4503.15 392.503 4502.16 392.261 4502.05 391.041C4501.89 389.424 4500 388.358 4499.49 386.91C4499.34 386.491 4495.84 383.061 4495.4 382.834C4494.19 382.215 4491.51 379.564 4490.6 378.45C4488.26 375.569 4486.56 373.529 4483.53 371.046C4482.29 370.03 4480.04 367.937 4479.04 367.117C4477.81 366.104 4475.73 364.544 4474.13 363.425C4470.52 360.911 4470.84 359.795 4466.41 358.078C4464.49 357.332 4462.26 355.376 4460.57 354.304C4458.97 353.279 4458.16 352.223 4456.18 351.598C4455 351.225 4452.46 349.221 4451.38 349.221C4451 349.221 4449.82 352.768 4449.82 353.239C4449.82 354.167 4449.43 354.705 4449.24 355.559C4448.97 356.746 4447.64 357.08 4447.37 358.078C4446.84 360.046 4446.33 361.559 4445.2 363.425C4444.2 365.062 4444.13 366.874 4443.12 368.518C4442.5 369.547 4441.8 371.945 4440.81 372.593C4439.16 373.673 4439.73 374.805 4438.5 376.045C4437.74 376.802 4437.65 377.562 4437.32 378.45C4436.84 379.733 4435.12 379.833 4434.87 381.251C4434.23 384.892 4429.62 387.605 4428.65 391.183C4427.79 394.362 4424.08 397.001 4422.54 399.841C4420.3 403.975 4417.79 408.362 4414.11 411.81C4412.87 412.968 4410.8 415.46 4410.66 417.016C4410.47 419.093 4407.92 420.482 4407.51 422.477C4407.4 423.04 4406.64 423.532 4406.17 423.92C4405.06 424.829 4405.09 426.084 4404.1 427.089C4402.37 428.833 4401.86 431.342 4400.4 433.201C4397.68 436.668 4396.12 441.772 4392.77 444.519C4391.7 445.393 4392.06 447.151 4391.04 448.225C4390.2 449.109 4390.61 450.308 4389.87 451.027C4388.85 452.001 4387.78 452.593 4387.65 453.969C4387.55 455.118 4386.62 456.057 4386.45 457.167C4386.22 458.67 4385.09 458.684 4384.27 459.939C4383.17 461.62 4383.28 464.018 4382.2 465.797C4377.74 473.102 4377.99 482.089 4376.5 490.045C4375.45 495.633 4377.09 501.26 4377.74 506.57C4378.37 511.722 4380.84 516.576 4382.75 521.283C4383.55 523.249 4385.35 525.458 4386.55 527.423C4387.7 529.314 4390.28 530.728 4391.38 532.544Z" fill="#FFBB00" stroke="#FFBB00" stroke-width="5" stroke-linecap="round"/>
<path d="M4407.6 539.079C4409.51 542.359 4411.38 544.638 4414.27 546.841L4422.11 553.73C4423.92 554.556 4425.34 556.677 4427.57 556.796C4429.14 556.88 4430.43 558.373 4431.73 558.373C4432.11 558.373 4435.06 559.233 4435.18 559.359C4435.9 560.129 4437.97 559.498 4438.76 560.038C4439.62 560.633 4440.74 561.133 4441.85 561.133C4444.18 561.133 4447.07 561.527 4449.66 561.527C4455 561.527 4462.52 562.671 4467.36 560.826C4468.47 560.402 4470.49 560.738 4471.72 560.738C4473.67 560.738 4475.05 559.95 4477.01 559.95C4480.08 559.95 4483.09 559.162 4486.2 559.162H4490.34C4491.14 559.162 4494.73 558.676 4495.29 558.286C4495.84 557.912 4496.29 557.979 4497.01 557.979C4497.93 557.979 4497.36 557.357 4497.95 557.212C4498.92 556.976 4499.88 556.952 4500.68 556.402C4502.15 555.393 4505.63 554.093 4507.55 553.621C4507.89 553.539 4508.45 552.936 4508.63 552.679C4509.17 551.884 4510.15 552.359 4510.67 551.672C4511.28 550.867 4513.6 549.263 4514.52 548.912C4517.58 547.747 4518.94 546.458 4521.37 544.379C4521.93 543.9 4524.25 541.959 4524.36 541.422C4524.46 540.901 4525.92 538.223 4526.42 537.874C4527.87 536.879 4528.95 533.465 4529.39 531.764C4529.96 529.538 4529.79 527.021 4531.48 525.281C4532.16 524.577 4531.59 522.926 4532.27 522.193C4532.97 521.442 4532.72 520.073 4533.32 519.149C4534.09 517.957 4532.83 516.481 4534.26 515.711C4534.83 515.406 4534.47 513.114 4534.47 512.557C4534.47 508.255 4535.65 502.304 4533.65 498.453C4532.85 496.904 4534.19 493.524 4532.99 492.234C4532.13 491.316 4532.98 489.861 4532.4 488.773C4531.83 487.701 4531.71 486.421 4531.71 485.247C4531.71 482.826 4531.1 480.602 4530.08 478.349C4528.77 475.473 4529.31 472.576 4528.26 469.698C4527.87 468.63 4528.25 467.009 4526.19 467.792C4525.02 468.24 4523.92 468.628 4522.77 468.909C4521.69 469.174 4520.68 470.25 4519.66 470.859C4518.42 471.591 4516.95 472.348 4515.62 472.917C4511.04 474.881 4506.31 477.27 4503.57 480.933C4501.7 483.428 4504.45 474.775 4503.11 472.041C4502.07 469.93 4503.26 467.161 4501.47 465.252C4500.95 464.685 4501.37 462.513 4501.37 461.792C4501.37 460.373 4501.22 458.739 4500.56 457.455C4500.01 456.408 4500.54 455.107 4499.99 454.061C4499.35 452.812 4498.61 450.925 4498.61 449.571C4498.61 448.414 4497.92 446.726 4497.47 445.629C4497.18 444.949 4496.78 444.388 4496.78 443.658C4496.78 442.872 4495.99 442.757 4495.86 442.081C4495.63 440.93 4494.77 439.495 4494.25 438.336C4493.52 436.706 4492.77 434.986 4491.52 433.606C4491.01 433.047 4491.1 432.087 4490.7 431.438C4490.24 430.685 4489.51 430.499 4489.42 429.554C4489.31 428.303 4487.9 427.478 4487.53 426.357C4487.42 426.033 4484.83 423.378 4484.51 423.202C4483.61 422.722 4481.63 420.671 4480.96 419.808C4479.23 417.579 4477.97 416 4475.73 414.078C4474.82 413.291 4473.15 411.671 4472.41 411.036C4471.5 410.253 4469.97 409.045 4468.78 408.179C4466.11 406.233 4466.35 405.369 4463.07 404.04C4461.65 403.463 4460 401.949 4458.76 401.119C4457.57 400.326 4456.97 399.508 4455.51 399.025C4454.63 398.736 4452.76 397.185 4451.96 397.185C4451.68 397.185 4450.81 399.931 4450.81 400.295C4450.81 401.013 4450.52 401.43 4450.38 402.091C4450.18 403.009 4449.2 403.268 4449 404.04C4448.6 405.563 4448.23 406.735 4447.39 408.179C4446.65 409.446 4446.6 410.849 4445.86 412.121C4445.39 412.918 4444.88 414.773 4444.14 415.275C4442.93 416.111 4443.35 416.987 4442.43 417.947C4441.87 418.533 4441.81 419.121 4441.57 419.808C4441.21 420.802 4439.93 420.879 4439.75 421.977C4439.28 424.794 4435.87 426.894 4435.16 429.664C4434.52 432.125 4431.77 434.167 4430.64 436.365C4428.98 439.565 4427.13 442.961 4424.4 445.629C4423.49 446.525 4421.95 448.454 4421.85 449.659C4421.71 451.266 4419.83 452.342 4419.53 453.886C4419.44 454.322 4418.88 454.703 4418.53 455.003C4417.71 455.706 4417.73 456.677 4417 457.455C4415.72 458.805 4415.34 460.747 4414.27 462.186C4412.25 464.87 4411.1 468.82 4408.62 470.946C4407.83 471.623 4408.1 472.983 4407.35 473.815C4406.73 474.499 4407.03 475.427 4406.48 475.983C4405.73 476.738 4404.94 477.196 4404.84 478.261C4404.77 479.15 4404.07 479.877 4403.95 480.736C4403.78 481.899 4402.95 481.911 4402.34 482.882C4401.52 484.183 4401.61 486.039 4400.81 487.415C4397.51 493.07 4397.7 500.026 4396.59 506.184C4395.82 510.509 4397.03 514.865 4397.51 518.974C4397.98 522.962 4399.8 526.719 4401.22 530.362C4401.81 531.884 4403.14 533.594 4404.03 535.115C4404.88 536.578 4406.78 537.673 4407.6 539.079Z" fill="#FF9500" stroke="#FF9500" stroke-width="5" stroke-linecap="round"/>
<path d="M4420.91 545.117C4422.39 547.234 4423.83 548.704 4426.07 550.125L4432.14 554.571C4433.54 555.104 4434.64 556.472 4436.37 556.549C4437.58 556.603 4438.58 557.567 4439.59 557.567C4439.88 557.567 4442.17 558.121 4442.26 558.203C4442.81 558.699 4444.41 558.292 4445.02 558.641C4445.7 559.025 4446.56 559.347 4447.42 559.347C4449.22 559.347 4451.46 559.601 4453.46 559.601C4457.6 559.601 4463.42 560.34 4467.16 559.149C4468.03 558.875 4469.59 559.093 4470.54 559.093C4472.05 559.093 4473.12 558.584 4474.64 558.584C4477.01 558.584 4479.34 558.075 4481.75 558.075H4484.96C4485.58 558.075 4488.35 557.762 4488.79 557.51C4489.21 557.269 4489.56 557.312 4490.11 557.312C4490.83 557.312 4490.39 556.911 4490.85 556.818C4491.59 556.665 4492.34 556.65 4492.96 556.295C4494.1 555.644 4496.79 554.805 4498.28 554.5C4498.54 554.447 4498.97 554.058 4499.11 553.893C4499.53 553.379 4500.29 553.686 4500.69 553.243C4501.16 552.723 4502.96 551.689 4503.68 551.462C4506.04 550.71 4507.1 549.878 4508.97 548.537C4509.41 548.228 4511.2 546.976 4511.29 546.629C4511.37 546.293 4512.49 544.565 4512.89 544.34C4514.01 543.698 4514.84 541.495 4515.18 540.398C4515.63 538.961 4515.49 537.337 4516.8 536.215C4517.33 535.76 4516.89 534.695 4517.41 534.222C4517.96 533.738 4517.76 532.854 4518.22 532.258C4518.82 531.489 4517.84 530.536 4518.96 530.04C4519.4 529.843 4519.11 528.364 4519.11 528.005C4519.11 525.229 4520.03 521.389 4518.48 518.905C4517.86 517.905 4518.9 515.724 4517.97 514.891C4517.31 514.3 4517.96 513.36 4517.51 512.659C4517.07 511.967 4516.98 511.141 4516.98 510.384C4516.98 508.821 4516.51 507.386 4515.71 505.932C4514.7 504.077 4515.12 502.208 4514.31 500.351C4514.01 499.661 4514.3 498.616 4512.71 499.121C4511.8 499.41 4510.95 499.661 4510.06 499.842C4509.22 500.013 4508.44 500.707 4507.65 501.1C4506.69 501.572 4505.55 502.061 4504.53 502.428C4500.98 503.695 4497.32 505.237 4495.19 507.6C4493.75 509.21 4495.88 503.627 4494.84 501.863C4494.04 500.5 4494.95 498.714 4493.57 497.482C4493.16 497.116 4493.49 495.715 4493.49 495.25C4493.49 494.334 4493.38 493.28 4492.86 492.452C4492.44 491.776 4492.85 490.936 4492.43 490.261C4491.93 489.455 4491.36 488.238 4491.36 487.365C4491.36 486.618 4490.82 485.529 4490.47 484.821C4490.25 484.382 4489.94 484.02 4489.94 483.549C4489.94 483.042 4489.33 482.968 4489.23 482.532C4489.05 481.789 4488.38 480.863 4487.98 480.115C4487.41 479.063 4486.83 477.954 4485.86 477.063C4485.47 476.703 4485.54 476.083 4485.23 475.664C4484.87 475.179 4484.31 475.058 4484.24 474.449C4484.16 473.641 4483.07 473.109 4482.78 472.386C4482.7 472.177 4480.69 470.464 4480.44 470.35C4479.75 470.041 4478.21 468.717 4477.69 468.161C4476.35 466.722 4475.38 465.703 4473.65 464.463C4472.94 463.956 4471.65 462.91 4471.08 462.501C4470.37 461.995 4469.18 461.216 4468.26 460.657C4466.2 459.401 4466.38 458.844 4463.85 457.986C4462.75 457.614 4461.47 456.637 4460.51 456.102C4459.59 455.59 4459.13 455.062 4457.99 454.75C4457.31 454.564 4455.86 453.563 4455.24 453.563C4455.02 453.563 4454.35 455.335 4454.35 455.57C4454.35 456.034 4454.13 456.302 4454.02 456.729C4453.87 457.321 4453.11 457.488 4452.95 457.986C4452.65 458.969 4452.36 459.725 4451.71 460.657C4451.13 461.475 4451.09 462.38 4450.52 463.201C4450.16 463.715 4449.76 464.912 4449.19 465.236C4448.25 465.775 4448.58 466.34 4447.87 466.96C4447.44 467.338 4447.39 467.717 4447.2 468.161C4446.92 468.802 4445.94 468.851 4445.79 469.56C4445.43 471.378 4442.79 472.733 4442.24 474.52C4441.74 476.108 4439.62 477.425 4438.74 478.844C4437.45 480.908 4436.02 483.099 4433.91 484.821C4433.21 485.399 4432.02 486.644 4431.94 487.421C4431.83 488.458 4430.37 489.152 4430.14 490.148C4430.07 490.43 4429.64 490.675 4429.37 490.869C4428.73 491.323 4428.75 491.95 4428.18 492.452C4427.19 493.323 4426.9 494.576 4426.07 495.504C4424.51 497.236 4423.62 499.784 4421.7 501.156C4421.09 501.593 4421.29 502.471 4420.71 503.007C4420.23 503.449 4420.46 504.047 4420.04 504.406C4419.46 504.893 4418.84 505.189 4418.77 505.876C4418.71 506.449 4418.18 506.919 4418.08 507.473C4417.95 508.223 4417.31 508.231 4416.83 508.858C4416.2 509.697 4416.27 510.895 4415.65 511.783C4413.1 515.431 4413.24 519.919 4412.39 523.893C4411.79 526.683 4412.73 529.494 4413.1 532.145C4413.46 534.719 4414.87 537.143 4415.96 539.493C4416.42 540.475 4417.45 541.578 4418.14 542.56C4418.8 543.504 4420.27 544.21 4420.91 545.117Z" fill="#FF0000" stroke="#FF0000" stroke-width="5" stroke-linecap="round"/>
<path d="M3454.57 433.169L3621.43 597.809L3574.03 671.895L3533.6 632.001C3522.71 621.256 3507.59 610.313 3498.96 598.348C3488.15 583.364 3479.12 566.895 3467.85 549.006C3466.64 542.768 3443.84 513.126 3447.54 509.484C3452.39 504.701 3485.22 541.298 3490.82 546.82C3493.11 549.082 3509.69 566.046 3501.09 556.952C3494.58 550.067 3490.39 537.544 3484.51 530C3473.47 515.826 3473.94 515.613 3459.27 497.919C3449.8 486.499 3446.47 478.851 3441.18 468.149C3433.95 453.507 3434.33 450.463 3438.3 454.114C3453.72 468.313 3467.5 480.836 3482.44 495.58C3486.42 499.509 3497.34 514.202 3495.12 510.175C3491.94 504.433 3487.52 499.485 3484.48 493.566C3480.5 485.817 3473.38 479.64 3468.01 472.189C3464.38 467.163 3459.72 455.753 3454.81 450.583C3449.36 444.836 3436.01 414.856 3454.57 433.169Z" fill="white" stroke="black" stroke-linecap="round"/>
<path d="M3586.69 670.56L3578.05 632.926V593.844L3586.69 540.287L3539.15 503.377L3586.69 484.922V466.466L3599.66 424.49L3632.79 398.435H3657.28L3690.42 424.49L3697.62 466.466V508.443L3709.14 551.867L3768.21 564.894H3846L3959.81 528.708V593.844L3948.29 645.953L3928.12 686.482L3869.05 727.011L3798.46 745.829L3690.42 755.961L3642.87 745.829L3611.18 712.537L3586.69 670.56Z" fill="url(#paint2_linear_64_2200)"/>
<path d="M3690.42 755.961L3642.87 745.829L3611.18 712.537L3586.69 670.56L3578.05 632.926V593.844L3586.69 540.287M3690.42 755.961L3798.46 745.829M3690.42 755.961V809.517M3798.46 745.829L3869.05 727.011L3928.12 686.482L3948.29 645.953L3959.81 593.844V528.708L3846 564.894H3768.21L3709.14 551.867L3697.62 508.443V466.466L3690.42 424.49L3657.28 398.435H3632.79L3599.66 424.49L3586.69 466.466V484.922M3798.46 745.829V809.517M3586.69 540.287V503.377M3586.69 540.287L3539.15 503.377M3586.69 503.377H3539.15M3586.69 503.377V484.922M3539.15 503.377L3586.69 484.922" stroke="black"/>
<ellipse cx="3623.43" cy="460.676" rx="12.2454" ry="11.5798" fill="#645B5B"/>
<path d="M3708.61 442.803L3713.89 407.212L3716.14 402.655L3722.67 399.4L3736.73 392.672L3749.28 375.745V360.336L3742.75 345.796L3730.2 332.341L3708.61 325.83L3696.06 328.651V322.575L3687.03 310.639L3667.95 298.486L3647.12 295.665L3626.29 298.486L3607.97 310.639L3599.68 325.83H3590.14L3572.32 328.651L3556.51 342.758L3549.23 362.723L3556.51 383.34L3567.3 396.578L3584.87 402.655V412.638L3590.14 442.803L3601.94 434.557L3619.26 432.82H3640.09L3662.18 434.557L3692.05 439.982L3701.84 444.847L3708.61 442.803Z" fill="white"/>
<path d="M3713.89 407.212L3708.61 442.803L3701.84 444.847L3692.05 439.982L3662.18 434.557L3640.09 432.82H3619.26L3601.94 434.557L3590.14 442.803L3584.87 412.638V402.655L3567.3 396.578L3556.51 383.34L3549.23 362.723L3556.51 342.758L3572.32 328.651L3590.14 325.83H3599.68M3713.89 407.212L3716.14 402.655M3713.89 407.212L3699.83 403.74L3677.74 399.4L3649.63 396.578H3619.26L3642.1 394.625H3662.18L3684.52 396.578L3701.84 399.4L3716.14 402.655M3599.68 325.83L3607.97 310.639L3626.29 298.486L3647.12 295.665L3667.95 298.486L3687.03 310.639L3696.06 322.575V328.651M3599.68 325.83L3597.17 337.332V345.796L3599.68 355.996M3696.06 328.651L3708.61 325.83L3730.2 332.341L3742.75 345.796L3749.28 360.336V375.745L3736.73 392.672L3722.67 399.4L3716.14 402.655M3696.06 328.651L3687.03 332.341L3677.74 340.153L3667.95 353.175" stroke="black"/>
<path d="M3694.56 398.314L3717.15 402.655L3714.14 407.646L3706.1 405.259L3695.56 402.655L3681.26 400.267L3670.21 399.182L3650.13 396.795H3636.33H3620.77L3634.57 395.493L3648.12 394.625H3665.69L3683.77 396.795L3694.56 398.314Z" fill="black" stroke="black"/>
<path d="M3687.24 555.432L3711.85 548.972L3583.25 573.376L3578.49 595.626L3573.72 618.594V642.28V675.297L3576.11 696.83L3583.25 722.669L3599.92 740.613L3621.35 747.073H3638.82L3666.6 740.613L3682.48 722.669L3661.84 699.701L3645.96 673.144L3634.85 642.28L3631.67 613.57L3638.82 591.32L3653.9 573.376L3687.24 555.432Z" fill="#AB5A5A" stroke="black"/>
<path d="M3859.03 422.111L3704.68 598.636L3748.85 665.519L3786.25 622.746C3796.33 611.225 3810.32 599.079 3818.3 586.609C3828.29 570.991 3836.62 554.119 3847.02 535.641C3848.13 529.476 3869.2 498.438 3865.77 495.289C3861.25 491.154 3830.89 529.958 3825.71 535.878C3823.59 538.304 3808.26 556.428 3816.21 546.741C3822.23 539.407 3826.09 526.851 3831.52 518.944C3841.72 504.087 3841.29 503.929 3854.85 485.292C3863.61 473.263 3866.67 465.516 3871.55 454.611C3878.22 439.692 3877.86 436.783 3874.19 440.725C3859.92 456.055 3847.17 469.594 3833.35 485.401C3829.66 489.614 3819.58 504.961 3821.63 500.833C3824.56 494.948 3828.64 489.704 3831.45 483.661C3835.12 475.749 3841.71 469.038 3846.68 461.272C3850.03 456.034 3854.32 444.508 3858.86 438.998C3863.9 432.875 3876.2 402.477 3859.03 422.111Z" fill="white" stroke="black" stroke-linecap="round"/>
<path d="M3610.31 476.602L3636.62 452.409" stroke="black" stroke-width="10" stroke-linecap="round"/>
<path d="M3614.39 453.826L3635.01 477.424" stroke="black" stroke-width="10" stroke-linecap="round"/>
<path d="M3870.26 591.445C3872.67 595.539 3875.01 598.383 3878.65 601.132L3888.52 609.731C3890.81 610.761 3892.59 613.408 3895.4 613.557C3897.37 613.662 3899 615.525 3900.64 615.525C3901.12 615.525 3904.83 616.598 3904.98 616.755C3905.88 617.716 3908.49 616.929 3909.48 617.602C3910.57 618.346 3911.98 618.969 3913.37 618.969C3916.3 618.969 3919.95 619.461 3923.21 619.461C3929.93 619.461 3939.39 620.889 3945.49 618.586C3946.89 618.057 3949.43 618.477 3950.98 618.477C3953.43 618.477 3955.17 617.493 3957.64 617.493C3961.5 617.493 3965.29 616.509 3969.21 616.509H3974.42C3975.43 616.509 3979.94 615.903 3980.66 615.416C3981.34 614.949 3981.9 615.033 3982.81 615.033C3983.97 615.033 3983.26 614.256 3984 614.076C3985.22 613.781 3986.43 613.752 3987.44 613.065C3989.29 611.806 3993.66 610.183 3996.09 609.594C3996.51 609.491 3997.22 608.739 3997.44 608.419C3998.12 607.426 3999.36 608.019 4000.01 607.161C4000.77 606.157 4003.7 604.155 4004.86 603.717C4008.71 602.263 4010.43 600.654 4013.48 598.06C4014.18 597.462 4017.1 595.039 4017.24 594.37C4017.37 593.719 4019.2 590.376 4019.84 589.942C4021.67 588.7 4023.02 584.439 4023.57 582.316C4024.3 579.538 4024.08 576.397 4026.21 574.226C4027.07 573.347 4026.35 571.286 4027.21 570.372C4028.09 569.434 4027.77 567.725 4028.52 566.572C4029.5 565.084 4027.91 563.242 4029.71 562.281C4030.43 561.901 4029.97 559.04 4029.97 558.345C4029.97 552.976 4031.45 545.549 4028.94 540.743C4027.93 538.809 4029.62 534.591 4028.11 532.981C4027.03 531.836 4028.09 530.019 4027.37 528.662C4026.65 527.324 4026.5 525.727 4026.5 524.262C4026.5 521.24 4025.73 518.464 4024.44 515.652C4022.8 512.063 4023.48 508.447 4022.16 504.856C4021.67 503.522 4022.14 501.5 4019.55 502.478C4018.08 503.036 4016.69 503.521 4015.25 503.872C4013.89 504.202 4012.62 505.544 4011.32 506.304C4009.77 507.218 4007.92 508.163 4006.25 508.873C4000.48 511.324 3994.53 514.306 3991.07 518.877C3988.72 521.992 3992.18 511.193 3990.49 507.78C3989.19 505.145 3990.68 501.69 3988.44 499.307C3987.77 498.599 3988.31 495.889 3988.31 494.988C3988.31 493.218 3988.12 491.179 3987.28 489.577C3986.59 488.27 3987.25 486.646 3986.57 485.34C3985.76 483.781 3984.83 481.426 3984.83 479.737C3984.83 478.292 3983.96 476.187 3983.39 474.817C3983.03 473.968 3982.52 473.268 3982.52 472.357C3982.52 471.376 3981.53 471.233 3981.36 470.389C3981.08 468.952 3979.99 467.162 3979.34 465.715C3978.42 463.681 3977.47 461.535 3975.9 459.811C3975.26 459.114 3975.37 457.916 3974.87 457.106C3974.29 456.167 3973.37 455.934 3973.26 454.755C3973.12 453.193 3971.35 452.163 3970.88 450.764C3970.75 450.36 3967.49 447.047 3967.07 446.827C3965.95 446.229 3963.45 443.668 3962.61 442.592C3960.43 439.809 3958.85 437.838 3956.03 435.44C3954.88 434.458 3952.78 432.436 3951.85 431.644C3950.7 430.666 3948.77 429.159 3947.28 428.078C3943.92 425.649 3944.21 424.571 3940.09 422.913C3938.31 422.193 3936.23 420.302 3934.66 419.267C3933.16 418.277 3932.42 417.257 3930.57 416.653C3929.47 416.293 3927.11 414.357 3926.1 414.357C3925.74 414.357 3924.65 417.784 3924.65 418.239C3924.65 419.135 3924.28 419.655 3924.11 420.48C3923.86 421.626 3922.62 421.949 3922.37 422.913C3921.88 424.814 3921.41 426.276 3920.35 428.078C3919.42 429.659 3919.35 431.41 3918.42 432.998C3917.83 433.992 3917.18 436.308 3916.26 436.934C3914.73 437.977 3915.26 439.071 3914.11 440.269C3913.41 441 3913.33 441.734 3913.02 442.592C3912.57 443.832 3910.97 443.928 3910.73 445.298C3910.14 448.815 3905.85 451.435 3904.95 454.892C3904.15 457.963 3900.69 460.512 3899.26 463.255C3897.17 467.249 3894.84 471.487 3891.41 474.817C3890.26 475.936 3888.33 478.343 3888.2 479.846C3888.02 481.853 3885.65 483.195 3885.27 485.121C3885.17 485.665 3884.46 486.141 3884.02 486.515C3882.99 487.393 3883.02 488.606 3882.09 489.577C3880.49 491.262 3880.01 493.685 3878.65 495.48C3876.12 498.83 3874.67 503.76 3871.55 506.414C3870.55 507.258 3870.89 508.956 3869.94 509.994C3869.16 510.848 3869.54 512.006 3868.85 512.7C3867.91 513.641 3866.91 514.213 3866.79 515.543C3866.69 516.652 3865.82 517.559 3865.66 518.631C3865.45 520.083 3864.41 520.097 3863.64 521.31C3862.61 522.933 3862.72 525.25 3861.71 526.968C3857.56 534.024 3857.8 542.706 3856.41 550.392C3855.43 555.789 3856.96 561.225 3857.56 566.354C3858.15 571.331 3860.44 576.02 3862.22 580.567C3862.97 582.466 3864.64 584.6 3865.76 586.498C3866.83 588.324 3869.23 589.691 3870.26 591.445Z" fill="#FFBB00" stroke="#FFBB00" stroke-width="5" stroke-linecap="round"/>
<path d="M3885.35 597.757C3887.13 600.926 3888.87 603.127 3891.56 605.255L3898.86 611.911C3900.55 612.708 3901.86 614.757 3903.94 614.872C3905.4 614.953 3906.6 616.396 3907.82 616.396C3908.17 616.396 3910.92 617.226 3911.02 617.348C3911.69 618.091 3913.62 617.482 3914.35 618.003C3915.16 618.579 3916.2 619.061 3917.23 619.061C3919.4 619.061 3922.09 619.442 3924.5 619.442C3929.47 619.442 3936.47 620.547 3940.97 618.765C3942.01 618.355 3943.89 618.68 3945.04 618.68C3946.85 618.68 3948.14 617.919 3949.96 617.919C3952.81 617.919 3955.62 617.157 3958.52 617.157H3962.37C3963.11 617.157 3966.45 616.688 3966.98 616.311C3967.48 615.95 3967.9 616.015 3968.57 616.015C3969.43 616.015 3968.9 615.414 3969.45 615.274C3970.35 615.045 3971.25 615.023 3971.99 614.492C3973.36 613.517 3976.59 612.261 3978.39 611.805C3978.7 611.725 3979.22 611.143 3979.38 610.895C3979.89 610.127 3980.8 610.586 3981.29 609.922C3981.85 609.145 3984.02 607.595 3984.87 607.256C3987.72 606.131 3988.99 604.885 3991.24 602.877C3991.76 602.414 3993.92 600.539 3994.03 600.021C3994.13 599.518 3995.48 596.93 3995.95 596.594C3997.3 595.633 3998.3 592.335 3998.71 590.691C3999.25 588.541 3999.08 586.11 4000.66 584.429C4001.29 583.749 4000.76 582.154 4001.39 581.446C4002.05 580.721 4001.81 579.398 4002.37 578.506C4003.09 577.354 4001.91 575.928 4003.25 575.184C4003.78 574.89 4003.44 572.676 4003.44 572.138C4003.44 567.982 4004.54 562.233 4002.68 558.514C4001.93 557.017 4003.18 553.752 4002.06 552.505C4001.26 551.62 4002.05 550.213 4001.51 549.163C4000.98 548.127 4000.87 546.891 4000.87 545.757C4000.87 543.418 4000.3 541.269 3999.35 539.093C3998.14 536.315 3998.64 533.516 3997.66 530.736C3997.3 529.704 3997.65 528.139 3995.74 528.896C3994.65 529.328 3993.62 529.703 3992.55 529.975C3991.55 530.23 3990.61 531.27 3989.65 531.858C3988.5 532.565 3987.13 533.296 3985.9 533.846C3981.64 535.743 3977.23 538.051 3974.68 541.589C3972.94 544 3975.5 535.641 3974.25 533C3973.29 530.96 3974.39 528.286 3972.73 526.442C3972.24 525.894 3972.63 523.796 3972.63 523.099C3972.63 521.729 3972.49 520.15 3971.87 518.91C3971.37 517.899 3971.86 516.642 3971.35 515.631C3970.75 514.425 3970.07 512.602 3970.07 511.294C3970.07 510.176 3969.42 508.546 3969 507.486C3968.73 506.829 3968.36 506.287 3968.36 505.582C3968.36 504.823 3967.62 504.712 3967.5 504.059C3967.29 502.947 3966.49 501.561 3966 500.441C3965.32 498.866 3964.62 497.206 3963.46 495.872C3962.99 495.332 3963.07 494.404 3962.7 493.777C3962.27 493.051 3961.59 492.87 3961.51 491.958C3961.41 490.749 3960.1 489.952 3959.75 488.869C3959.65 488.556 3957.24 485.992 3956.94 485.822C3956.1 485.359 3954.26 483.377 3953.63 482.544C3952.02 480.39 3950.86 478.864 3948.77 477.008C3947.92 476.248 3946.37 474.683 3945.68 474.07C3944.83 473.313 3943.4 472.147 3942.3 471.31C3939.81 469.43 3940.03 468.595 3936.99 467.312C3935.67 466.755 3934.13 465.291 3932.97 464.49C3931.86 463.724 3931.31 462.934 3929.94 462.467C3929.13 462.188 3927.39 460.69 3926.64 460.69C3926.38 460.69 3925.57 463.342 3925.57 463.694C3925.57 464.388 3925.3 464.79 3925.17 465.429C3924.99 466.316 3924.07 466.566 3923.88 467.312C3923.52 468.783 3923.17 469.915 3922.39 471.31C3921.7 472.534 3921.65 473.889 3920.96 475.118C3920.53 475.887 3920.05 477.68 3919.37 478.165C3918.23 478.972 3918.63 479.818 3917.78 480.746C3917.25 481.312 3917.2 481.88 3916.97 482.544C3916.64 483.503 3915.45 483.578 3915.28 484.638C3914.84 487.36 3911.67 489.389 3911 492.064C3910.41 494.441 3907.85 496.414 3906.79 498.537C3905.25 501.628 3903.53 504.909 3900.99 507.486C3900.14 508.352 3898.71 510.215 3898.62 511.379C3898.49 512.932 3896.73 513.971 3896.45 515.462C3896.38 515.883 3895.85 516.251 3895.53 516.541C3894.76 517.22 3894.78 518.159 3894.1 518.91C3892.92 520.214 3892.56 522.09 3891.56 523.48C3889.69 526.073 3888.61 529.888 3886.31 531.942C3885.57 532.596 3885.82 533.91 3885.12 534.714C3884.54 535.374 3884.82 536.271 3884.31 536.808C3883.61 537.537 3882.87 537.979 3882.79 539.008C3882.72 539.867 3882.07 540.569 3881.96 541.399C3881.8 542.523 3881.03 542.534 3880.46 543.472C3879.7 544.729 3879.78 546.522 3879.03 547.851C3875.96 553.313 3876.14 560.033 3875.11 565.982C3874.39 570.159 3875.52 574.367 3875.97 578.337C3876.4 582.189 3878.09 585.818 3879.41 589.337C3879.96 590.807 3881.2 592.459 3882.03 593.928C3882.82 595.342 3884.59 596.399 3885.35 597.757Z" fill="#FF9500" stroke="#FF9500" stroke-width="5" stroke-linecap="round"/>
<path d="M3897.74 603.59C3899.12 605.635 3900.46 607.055 3902.54 608.428L3908.19 612.722C3909.5 613.237 3910.52 614.559 3912.13 614.633C3913.26 614.686 3914.19 615.616 3915.13 615.616C3915.4 615.616 3917.53 616.152 3917.61 616.23C3918.13 616.71 3919.62 616.317 3920.19 616.653C3920.81 617.025 3921.62 617.336 3922.41 617.336C3924.09 617.336 3926.18 617.582 3928.04 617.582C3931.89 617.582 3937.31 618.295 3940.79 617.145C3941.6 616.88 3943.05 617.09 3943.94 617.09C3945.34 617.09 3946.34 616.599 3947.75 616.599C3949.96 616.599 3952.13 616.107 3954.37 616.107H3957.35C3957.93 616.107 3960.51 615.805 3960.92 615.561C3961.32 615.329 3961.64 615.37 3962.16 615.37C3962.82 615.37 3962.41 614.982 3962.84 614.893C3963.53 614.745 3964.23 614.73 3964.8 614.387C3965.86 613.759 3968.37 612.948 3969.75 612.654C3970 612.603 3970.4 612.227 3970.53 612.067C3970.92 611.571 3971.63 611.868 3972 611.439C3972.44 610.938 3974.11 609.938 3974.78 609.719C3976.98 608.993 3977.96 608.189 3979.71 606.894C3980.11 606.595 3981.78 605.385 3981.86 605.051C3981.94 604.726 3982.99 603.056 3983.35 602.839C3984.4 602.219 3985.17 600.091 3985.49 599.031C3985.9 597.643 3985.78 596.075 3986.99 594.991C3987.49 594.552 3987.07 593.522 3987.57 593.066C3988.07 592.598 3987.89 591.744 3988.32 591.168C3988.88 590.425 3987.97 589.505 3989 589.025C3989.41 588.836 3989.15 587.407 3989.15 587.06C3989.15 584.378 3990 580.669 3988.56 578.269C3987.98 577.303 3988.95 575.197 3988.08 574.392C3987.46 573.821 3988.07 572.913 3987.66 572.236C3987.25 571.567 3987.16 570.77 3987.16 570.038C3987.16 568.529 3986.72 567.143 3985.98 565.738C3985.04 563.946 3985.43 562.14 3984.68 560.346C3984.4 559.68 3984.67 558.67 3983.19 559.159C3982.34 559.437 3981.55 559.68 3980.72 559.855C3979.94 560.02 3979.21 560.69 3978.48 561.07C3977.59 561.526 3976.53 561.998 3975.57 562.353C3972.27 563.577 3968.86 565.066 3966.88 567.349C3965.54 568.904 3967.52 563.511 3966.55 561.807C3965.81 560.491 3966.66 558.765 3965.38 557.575C3964.99 557.222 3965.3 555.868 3965.3 555.419C3965.3 554.534 3965.19 553.516 3964.71 552.716C3964.32 552.063 3964.7 551.252 3964.31 550.6C3963.84 549.822 3963.31 548.645 3963.31 547.802C3963.31 547.08 3962.82 546.029 3962.49 545.345C3962.28 544.921 3961.99 544.571 3961.99 544.116C3961.99 543.626 3961.42 543.555 3961.33 543.133C3961.17 542.416 3960.54 541.522 3960.17 540.799C3959.64 539.783 3959.1 538.711 3958.2 537.851C3957.83 537.503 3957.9 536.904 3957.61 536.499C3957.28 536.03 3956.75 535.914 3956.69 535.325C3956.61 534.545 3955.6 534.031 3955.33 533.332C3955.25 533.13 3953.39 531.476 3953.15 531.366C3952.51 531.067 3951.08 529.789 3950.59 529.251C3949.35 527.861 3948.44 526.877 3946.83 525.679C3946.17 525.189 3944.97 524.179 3944.44 523.784C3943.78 523.295 3942.67 522.543 3941.82 522.003C3939.89 520.79 3940.06 520.251 3937.71 519.423C3936.68 519.063 3935.49 518.119 3934.6 517.602C3933.74 517.108 3933.31 516.598 3932.26 516.297C3931.63 516.117 3930.28 515.15 3929.7 515.15C3929.49 515.15 3928.87 516.862 3928.87 517.089C3928.87 517.537 3928.66 517.796 3928.56 518.208C3928.42 518.781 3927.71 518.941 3927.56 519.423C3927.28 520.372 3927.01 521.103 3926.41 522.003C3925.87 522.792 3925.84 523.667 3925.3 524.46C3924.97 524.956 3924.6 526.113 3924.07 526.425C3923.19 526.947 3923.5 527.493 3922.84 528.091C3922.43 528.456 3922.39 528.823 3922.21 529.251C3921.95 529.87 3921.04 529.918 3920.9 530.602C3920.57 532.359 3918.11 533.668 3917.59 535.394C3917.13 536.928 3915.16 538.201 3914.34 539.571C3913.14 541.565 3911.81 543.682 3909.85 545.345C3909.19 545.903 3908.08 547.106 3908.01 547.856C3907.91 548.858 3906.55 549.529 3906.33 550.491C3906.27 550.763 3905.87 551 3905.61 551.187C3905.02 551.625 3905.04 552.231 3904.51 552.716C3903.59 553.557 3903.32 554.768 3902.54 555.664C3901.09 557.337 3900.26 559.799 3898.47 561.124C3897.91 561.546 3898.1 562.394 3897.55 562.913C3897.11 563.339 3897.33 563.917 3896.93 564.264C3896.39 564.734 3895.82 565.019 3895.75 565.684C3895.7 566.238 3895.2 566.691 3895.11 567.226C3894.99 567.951 3894.39 567.958 3893.95 568.564C3893.36 569.375 3893.42 570.532 3892.84 571.389C3890.47 574.913 3890.6 579.249 3889.81 583.088C3889.25 585.783 3890.13 588.498 3890.47 591.059C3890.81 593.545 3892.12 595.887 3893.14 598.157C3893.57 599.106 3894.52 600.171 3895.16 601.119C3895.78 602.032 3897.15 602.714 3897.74 603.59Z" fill="#FF0000" stroke="#FF0000" stroke-width="5" stroke-linecap="round"/>
<path d="M4540.49 1C4540.49 1.72502 4540.64 2.64703 4540.42 3.34192C4540.19 4.10276 4539.44 4.96185 4539.31 5.68385C4539.11 6.80646 4537.79 7.42836 4537.79 8.22651" stroke="#E6C5C5" stroke-linecap="round"/>
<path d="M4310.87 518.625V505.922L4324.12 508.04L4342.24 510.157L4364.33 512.274L4383.33 513.544H4406.3H4432.37L4465.06 514.814H4487.15H4503.5H4526.03L4569.77 513.544L4604.68 510.58L4636.49 505.499L4634.28 530.904L4625 558.426L4608.65 585.102L4587.45 611.354L4557.85 632.948L4523.38 647.768L4489.81 653.696H4451.37L4424.86 647.768L4397.91 638.029L4368.75 618.975L4347.54 598.651L4330.75 575.363L4316.61 543.183L4310.87 518.625Z" fill="#E71717" stroke="black"/>
<path d="M4312.19 505.923L4305.57 501.688V496.184L4309.54 491.95L4318.38 489.833L4336.49 487.292L4349.75 486.022L4371.84 484.752L4404.09 482.635L4440.76 480.941H4457.11H4496.87L4567.12 483.905L4588.33 485.175L4617.05 486.869L4636.49 491.95L4642.68 496.184V500.842L4636.49 505.499L4620.58 508.04L4592.75 511.004L4559.61 513.544H4533.55H4499.53H4471.69H4443.86H4412.93L4384.21 512.274L4353.28 511.004L4327.22 508.463L4312.19 505.923Z" fill="#272626" stroke="black"/>
<path d="M4326.33 505.076L4336.05 490.68H4341.8L4332.52 505.076H4326.33Z" fill="#6D6A6A" stroke="black"/>
<path d="M4351.07 507.193L4363 489.409L4367.86 489.409L4356.82 507.193L4351.07 507.193Z" fill="#6D6A6A" stroke="black"/>
<path d="M4374.93 510.157L4387.75 488.139L4393.93 488.139L4380.23 510.157L4374.93 510.157Z" fill="#6D6A6A" stroke="black"/>
<path d="M4400.12 510.157L4413.37 487.716L4420 487.716L4406.3 510.157L4400.12 510.157Z" fill="#6D6A6A" stroke="black"/>
<path d="M4423.53 511.003L4439.44 486.869L4445.18 486.869L4430.6 511.003L4423.53 511.003Z" fill="#6D6A6A" stroke="black"/>
<path d="M4446.95 509.734L4464.62 486.022L4471.25 486.022L4454.46 509.734L4446.95 509.734Z" fill="#6D6A6A" stroke="black"/>
<path d="M4470.21 509.481L4486.71 486.022L4493.34 486.022L4477.97 509.481L4470.21 509.481Z" fill="#6D6A6A" stroke="black"/>
<path d="M4496.43 509.734L4514.11 486.022L4521.17 486.022L4503.94 509.734L4496.43 509.734Z" fill="#6D6A6A" stroke="black"/>
<path d="M4522.5 509.733L4540.02 486.117L4547.68 485.598L4529.57 509.733L4522.5 509.733Z" fill="#6D6A6A" stroke="black"/>
<path d="M4547.24 510.157L4564.76 486.117L4572.52 486.54L4554.31 510.157L4547.24 510.157Z" fill="#6D6A6A" stroke="black"/>
<path d="M4572.71 507.787L4587.45 488.986L4593.63 488.986L4580.47 507.787L4572.71 507.787Z" fill="#6D6A6A" stroke="black"/>
<path d="M4598.93 506.769L4610.42 492.373L4615.72 492.373L4605.12 506.769L4598.93 506.769Z" fill="#6D6A6A" stroke="black"/>
<path d="M4639.12 496.94C4638.99 497.901 4638.05 499.253 4637.28 499.662C4636.13 500.276 4636.17 501.529 4634.78 502.064C4633.99 502.366 4633.79 503.024 4632.94 503.024C4632.37 503.024 4631.45 503.592 4631.03 503.914C4629.81 504.85 4627.24 504.241 4625.75 504.875C4625.2 505.111 4624.27 504.946 4623.68 504.946C4622.66 504.946 4621.94 505.586 4620.93 505.586C4620.15 505.586 4619.68 506.192 4619.07 506.227C4618.18 506.277 4617.08 506.023 4616.25 506.387C4614.96 506.949 4613.22 506.867 4611.79 506.867C4610.14 506.867 4608.58 507.508 4607.04 507.508C4599.33 507.508 4591.6 507.743 4583.99 508.148C4582.45 508.23 4580.98 508.468 4579.48 508.468C4577.84 508.468 4576.18 509.429 4574.44 509.429C4570.9 509.429 4567.58 510.71 4563.94 510.71C4560.28 510.71 4556.87 511.35 4553.24 511.35C4550.01 511.35 4546.89 511.671 4543.55 511.671C4540.17 511.671 4536.79 510.71 4533.36 510.71C4530.41 510.71 4527.46 510.71 4524.51 510.71C4511.65 510.71 4498.7 511.35 4485.91 511.35C4461.43 511.35 4436.44 511.35 4412.07 511.35C4408.52 511.35 4405.14 510.71 4401.54 510.71C4400.31 510.71 4398.12 511.129 4397.03 510.55C4395.8 509.892 4393.74 510.61 4392.37 510.372C4388.88 509.763 4385.35 509.749 4381.75 509.749C4377.93 509.749 4374.36 509.109 4370.63 509.109C4367.46 509.109 4364.29 509.109 4361.11 509.109C4359.77 509.109 4358.04 509.383 4356.77 508.949C4355.29 508.441 4353.57 509.136 4352.09 508.628C4349.58 507.77 4345.65 507.828 4343.07 507.828C4341.59 507.828 4340.38 507.508 4338.98 507.508C4337.48 507.508 4335.29 507.913 4334.23 507.009C4333.55 506.431 4330.78 506.867 4329.87 506.867C4328.31 506.867 4326.56 506.547 4325.19 506.547C4322.73 506.547 4319.63 505.852 4317.34 504.875C4316.01 504.311 4314.87 503.655 4313.5 503.362C4312.46 503.143 4311.44 502.028 4310.47 501.761C4309.09 501.384 4308.32 499.355 4308.32 497.901C4308.32 497.198 4307.98 496.644 4307.98 495.837C4307.98 494.609 4311.26 494.309 4312.1 493.987C4314.3 493.151 4316.87 492.611 4319.18 492.119C4321.96 491.526 4325.14 490.856 4328.03 490.856C4329.11 490.856 4330 490.376 4331.04 490.233C4332.3 490.06 4333.03 490.257 4334.23 489.717C4335.88 488.974 4338.65 489.515 4340.47 489.183C4343.09 488.704 4345.89 488.901 4348.56 488.632C4350.04 488.483 4351.69 488.294 4353.17 488.294C4354.15 488.294 4356.23 488.658 4357.1 488.134C4357.92 487.645 4359.66 487.974 4360.61 487.974C4361.75 487.974 4362.86 487.653 4364.04 487.653C4365.61 487.653 4367.2 487.333 4368.87 487.333C4372.85 487.333 4376.68 486.372 4380.66 486.372C4386.26 486.372 4391.86 486.372 4397.46 486.372C4402.22 486.372 4406.98 486.372 4411.73 486.372C4417.39 486.372 4423.01 485.732 4428.61 485.732C4432.86 485.732 4436.88 485.092 4441.16 485.092C4443.63 485.092 4446.12 484.451 4448.66 484.451C4450.77 484.451 4452.89 484.451 4455.01 484.451C4462.95 484.451 4471.03 484.131 4479.05 484.131C4493.03 484.131 4507.02 484.131 4521 484.131C4529.14 484.131 4537.27 484.131 4545.41 484.131C4548.47 484.131 4551.52 484.131 4554.58 484.131C4558.37 484.131 4562.01 485.092 4565.81 485.092C4566.95 485.092 4567.73 485.732 4568.95 485.732C4569.95 485.732 4570.96 485.679 4571.96 485.732C4573.14 485.795 4574.36 486.372 4575.63 486.372C4577.08 486.372 4578.51 486.693 4579.81 486.693C4581.32 486.693 4583.19 486.421 4584.64 486.853C4585.35 487.068 4586.08 487.013 4586.83 487.013C4587.61 487.013 4588.24 487.631 4589 487.653C4589.79 487.676 4590.73 487.507 4591.5 487.671C4592.09 487.795 4592.81 488.264 4593.34 488.294C4594.84 488.378 4596.37 488.294 4597.87 488.294C4599.33 488.294 4600.7 488.934 4602.2 488.934C4603.9 488.934 4605.15 489.018 4606.71 489.646C4608.21 490.253 4609.74 490.017 4611.31 490.464C4612.92 490.921 4614.54 490.856 4616.23 490.856C4618.02 490.856 4619.51 491.496 4621.24 491.496C4622.41 491.496 4623.03 492.137 4624.23 492.137C4625.23 492.137 4625.85 492.322 4626.76 492.706C4628.18 493.31 4630.3 492.577 4631.77 493.168C4633.36 493.808 4635.21 493.125 4636.6 494.378C4637.39 495.101 4639.36 496.769 4639.79 497.58" stroke="#7C7C7C" stroke-width="5" stroke-linecap="round"/>
<path d="M4414.68 644.488L4344.87 900.233" stroke="black" stroke-width="15" stroke-linecap="round"/>
<path d="M4474.34 653.696V934" stroke="black" stroke-width="15" stroke-linecap="round"/>
<path d="M4531.78 644.381L4607.77 915.369" stroke="black" stroke-width="15" stroke-linecap="round"/>
<path d="M4390.09 748.125C4390.88 748.125 4391.47 748.496 4392.21 748.496C4393.32 748.496 4394.32 747.89 4395.35 747.59C4396.79 747.169 4398.63 747.033 4399.97 746.438C4400.93 746.008 4402.4 745.278 4403.45 745.182C4406.19 744.931 4408.63 743.241 4411.33 742.918C4412.18 742.816 4412.54 742.197 4413.48 742.197C4414.25 742.197 4414.71 741.955 4415.41 741.806C4418.96 741.051 4421.58 739.646 4425.27 739.254C4431.61 738.578 4438.34 739.825 4444.6 738.492C4448.24 737.717 4452.18 737.381 4455.9 737.381C4461.44 737.381 4467.22 736.64 4472.82 736.64C4477.5 736.64 4482.08 736.269 4486.74 736.269C4489.96 736.269 4492.8 737.01 4495.93 737.01C4498.1 737.01 4500.05 737.543 4502.2 737.731C4504.19 737.904 4507.67 737.033 4509.38 738.122C4511.14 739.249 4515.18 738.555 4517.28 738.842C4518.68 739.034 4520.35 739.233 4521.73 739.233C4525.42 739.233 4529.35 739.93 4532.94 740.695C4534.33 740.991 4535.81 740.861 4537.21 741.106C4538.95 741.409 4540.69 741.942 4542.41 742.177C4544.27 742.43 4545.94 742.66 4547.65 743.391C4548.4 743.711 4549.74 744.376 4550.53 744.42C4551.51 744.475 4552.79 746.229 4553.62 746.726C4554.6 747.311 4554.78 748.618 4554.78 749.607C4554.78 750.432 4555.56 750.524 4555.56 751.46C4555.56 752.074 4555.59 752.7 4555.56 753.313C4555.49 754.324 4554.48 755.619 4553.71 756.359C4551.97 758.021 4550.07 758.923 4548.21 760.352C4547.47 760.918 4545.31 762.151 4544.34 762.205C4541.26 762.379 4538.5 763.444 4535.26 762.966C4532.07 762.496 4528.44 762.946 4525.21 762.946C4518.57 762.946 4511.43 761.574 4504.93 763.131C4500.4 764.216 4495.17 765.169 4490.52 765.169C4487.1 765.169 4483.56 766.109 4480.17 766.28C4473.01 766.641 4465.76 766.651 4458.52 766.651C4455.9 766.651 4452.8 767.079 4450.23 766.63C4447.09 766.085 4444.24 765.539 4440.93 765.539C4434.24 765.539 4427.6 764.428 4420.82 764.428C4418.18 764.428 4415.87 763.092 4413.28 762.946C4412.92 762.925 4410.55 762.332 4410.28 762.122C4409.16 761.266 4407.91 761.891 4406.71 761.381C4405.85 761.015 4404.47 760.078 4403.62 759.982C4401.57 759.751 4399.82 757.862 4397.99 757.759C4396.81 757.692 4394.51 756.871 4393.57 756.112C4392.63 755.355 4390.6 753.921 4390.09 752.942" stroke="black" stroke-width="10" stroke-linecap="round"/>
<line y1="-1.5" x2="146.952" y2="-1.5" transform="matrix(-0.999998 -0.00163957 0.00162412 -1 4457 478.286)" stroke="#D2B48C" stroke-width="3"/>
<path d="M4441.27 467.973L4470.08 468.304L4474.13 492.959L4440.99 492.578L4441.27 467.973Z" fill="#824C2E" stroke="black"/>
<path d="M4440.99 492.557L4412.19 493.425L4407.14 468.959L4440.26 467.961L4440.99 492.557Z" fill="#824C2E" stroke="black"/>
<path d="M4371.85 491.762L4343.05 492.63L4337.99 468.164L4371.11 467.166L4371.85 491.762Z" fill="#824C2E" stroke="black"/>
<path d="M4375.01 467.211L4403.82 467.745L4407.69 492.429L4374.56 491.814L4375.01 467.211Z" fill="#824C2E" stroke="black"/>
<path d="M4465.05 487.768C4462.7 487.216 4460.37 485.366 4458.23 484.26C4456.42 483.329 4454.74 482.041 4453.07 480.872C4452.27 480.311 4450.6 479.183 4450.17 478.396C4449.79 477.708 4448.3 476.334 4447.5 476.124" stroke="#E6C5C5" stroke-linecap="round"/>
<path d="M4432.84 473.847C4432.65 475.223 4429.74 476.827 4428.73 477.714C4427.88 478.458 4426.3 479.32 4425.28 479.849C4422.6 481.232 4421.38 483.264 4420.11 485.745" stroke="#E6C5C5" stroke-linecap="round"/>
<path d="M4422.05 473.422C4421.79 474.566 4417.85 477.718 4416.9 478.181" stroke="#E6C5C5" stroke-linecap="round"/>
<path d="M4400.94 485.225C4398.4 485.195 4395.52 485.55 4393.12 484.666C4391.8 484.181 4390.38 483.808 4389.11 483.215C4388.5 482.933 4388.07 482.268 4387.47 482.059C4385.25 481.285 4383.63 479.76 4381.53 478.678" stroke="#E6C5C5" stroke-linecap="round"/>
<path d="M4363.6 473.956C4363.42 475.758 4361.23 476.534 4359.74 476.856C4358.19 477.19 4357.35 477.824 4356.13 478.688C4355.15 479.377 4354.7 480.413 4353.64 480.934C4352.85 481.319 4351.23 481.878 4351.22 482.847" stroke="#E6C5C5" stroke-linecap="round"/>
<path d="M4349.53 473.191C4348.54 473.729 4345.3 475.604 4345.29 476.756" stroke="#E6C5C5" stroke-linecap="round"/>
<line y1="-0.5" x2="161.351" y2="-0.5" transform="matrix(0.999953 0.00972744 -0.00963578 0.999954 4506 486.884)" stroke="#D2B48C"/>
<path d="M4508.21 481.116L4503.89 481.074L4503.98 471.666L4511.18 471.736L4515.48 474.673L4508.21 481.116Z" fill="white" stroke="black" stroke-width="0.5"/>
<path d="M4492.37 480.238L4490.9 483.842L4497.38 483.906L4501.67 486.842L4501.69 484.671L4502.43 483.231L4500.29 481.039L4493.83 478.081L4492.37 480.238Z" fill="white" stroke="black" stroke-width="0.5"/>
<path d="M4497.38 483.905L4490.9 483.842L4490.17 484.559L4490.85 488.908L4492.25 493.264L4494.38 496.18L4495.77 501.26L4497.9 504.176L4501.49 505.658L4505.11 504.246L4501.56 499.145L4498.71 495.499L4498.01 493.321L4499.45 493.335L4500.19 491.17L4501.67 486.842L4497.38 483.905Z" fill="#FF9131" stroke="black" stroke-width="0.5"/>
<path d="M4503.89 481.074L4502.43 483.231L4498.86 480.301L4494.55 478.088L4496.74 475.214L4499.65 472.347L4503.98 471.666L4503.89 481.074Z" fill="#FF9131" stroke="black" stroke-width="0.5"/>
<path d="M4509.63 483.301L4508.21 481.115L4515.48 474.672L4516.19 475.403L4519.04 478.326L4521.18 480.518L4521.15 484.136L4509.62 484.024L4509.63 483.301Z" fill="#FF9131" stroke="black" stroke-width="0.5"/>
<path d="M4509.6 486.195L4509.62 484.024L4521.15 484.136L4521.11 487.755L4521.07 492.821L4519.6 495.702L4509.6 486.195Z" fill="white" stroke="black" stroke-width="0.5"/>
<path d="M4516.68 499.293L4519.6 495.702L4509.6 486.196L4508.88 486.913L4506.7 488.339L4503.8 490.482L4503.05 493.37L4503.02 496.988L4505.14 500.628L4507.29 502.096L4510.17 502.124L4513.78 501.436L4516.68 499.293Z" fill="#FF9131" stroke="black" stroke-width="0.5"/>
<path d="M4639.3 482.391L4634.98 482.349L4635.07 472.941L4642.28 473.011L4646.57 475.948L4639.3 482.391Z" fill="white" stroke="black" stroke-width="0.5"/>
<path d="M4623.46 481.513L4621.99 485.118L4628.47 485.181L4632.77 488.118L4632.79 485.947L4633.52 484.506L4631.38 482.314L4624.93 479.356L4623.46 481.513Z" fill="white" stroke="black" stroke-width="0.5"/>
<path d="M4628.47 485.181L4621.99 485.118L4621.26 485.834L4621.94 490.184L4623.34 494.54L4625.47 497.456L4626.86 502.536L4629 505.451L4632.58 506.934L4636.2 505.522L4632.65 500.421L4629.8 496.774L4629.1 494.596L4630.54 494.61L4631.28 492.446L4632.77 488.118L4628.47 485.181Z" fill="#FF9131" stroke="black" stroke-width="0.5"/>
<path d="M4634.98 482.349L4633.52 484.506L4629.95 481.576L4625.65 479.363L4627.84 476.489L4630.74 473.623L4635.07 472.941L4634.98 482.349Z" fill="#FF9131" stroke="black" stroke-width="0.5"/>
<path d="M4640.72 484.576L4639.3 482.391L4646.57 475.948L4647.28 476.678L4650.14 479.601L4652.28 481.793L4652.24 485.412L4640.72 485.3L4640.72 484.576Z" fill="#FF9131" stroke="black" stroke-width="0.5"/>
<path d="M4640.7 487.471L4640.72 485.3L4652.24 485.412L4652.21 489.03L4652.16 494.096L4650.69 496.977L4640.7 487.471Z" fill="white" stroke="black" stroke-width="0.5"/>
<path d="M4647.77 500.568L4650.69 496.977L4640.7 487.471L4639.97 488.188L4637.79 489.614L4634.89 491.757L4634.14 494.645L4634.11 498.264L4636.23 501.903L4638.38 503.372L4641.26 503.4L4644.87 502.711L4647.77 500.568Z" fill="#FF9131" stroke="black" stroke-width="0.5"/>
<path d="M4573.04 481.747L4568.72 481.705L4568.81 472.296L4576.01 472.367L4580.3 475.303L4573.04 481.747Z" fill="white" stroke="black" stroke-width="0.5"/>
<path d="M4557.2 480.869L4555.72 484.473L4562.21 484.536L4566.5 487.473L4566.52 485.302L4567.25 483.862L4565.11 481.67L4558.66 478.712L4557.2 480.869Z" fill="white" stroke="black" stroke-width="0.5"/>
<path d="M4562.21 484.536L4555.72 484.473L4555 485.19L4555.67 489.539L4557.07 493.895L4559.21 496.811L4560.6 501.891L4562.73 504.807L4566.32 506.289L4569.93 504.877L4566.38 499.776L4563.53 496.129L4562.84 493.951L4564.28 493.965L4565.02 491.801L4566.5 487.473L4562.21 484.536Z" fill="#FF9131" stroke="black" stroke-width="0.5"/>
<path d="M4568.72 481.705L4567.25 483.862L4563.68 480.932L4559.38 478.719L4561.57 475.845L4564.48 472.978L4568.81 472.297L4568.72 481.705Z" fill="#FF9131" stroke="black" stroke-width="0.5"/>
<path d="M4574.46 483.931L4573.04 481.746L4580.3 475.303L4581.02 476.034L4583.87 478.957L4586.01 481.149L4585.97 484.767L4574.45 484.655L4574.46 483.931Z" fill="#FF9131" stroke="black" stroke-width="0.5"/>
<path d="M4574.43 486.826L4574.45 484.655L4585.97 484.767L4585.94 488.386L4585.89 493.452L4584.42 496.332L4574.43 486.826Z" fill="white" stroke="black" stroke-width="0.5"/>
<path d="M4581.51 499.923L4584.42 496.333L4574.43 486.827L4573.7 487.543L4571.53 488.97L4568.63 491.113L4567.88 494.001L4567.84 497.619L4569.97 501.259L4572.12 502.727L4575 502.755L4578.6 502.066L4581.51 499.923Z" fill="#FF9131" stroke="black" stroke-width="0.5"/>
<path d="M4540.43 501.695L4526.02 501.554L4523.16 500.079L4523.18 497.184L4523.95 492.125L4527.63 484.2L4531.31 476.274L4535.68 471.25L4540.72 471.299L4544.97 478.578L4550.6 492.384L4552.71 498.195L4549.07 501.779L4540.43 501.695Z" fill="#FFD900" stroke="black" stroke-width="0.5"/>
<path d="M4531.42 485.422C4531.43 484.666 4531.86 484.131 4532.23 483.494C4532.76 482.591 4533.27 481.659 4533.76 480.726C4534.03 480.206 4534.29 479.773 4534.49 479.227C4534.59 478.972 4534.77 478.426 4534.99 478.318" stroke="#F7E9A4" stroke-width="0.5" stroke-linecap="round"/>
<path d="M4536.83 486.685C4536.86 483.442 4537.01 480.15 4537.05 476.886" stroke="#F7E9A4" stroke-width="0.5" stroke-linecap="round"/>
<path d="M4539.2 478.722C4539.27 479.346 4539.95 479.954 4540.2 480.52C4540.55 481.351 4541.12 482.112 4541.51 482.913C4541.86 483.627 4542.17 484.335 4542.53 485.047C4542.84 485.645 4543.25 486.125 4543.45 486.75" stroke="#F7E9A4" stroke-width="0.5" stroke-linecap="round"/>
<path d="M4544.09 495.347C4544.5 495.76 4544.71 496.259 4545.07 496.661C4545.38 497.001 4545.51 497.715 4545.88 497.905" stroke="#F7E9A4" stroke-width="0.5" stroke-linecap="round"/>
<path d="M4537.34 496.491C4537.33 497.118 4537.09 497.759 4537.08 498.425" stroke="#F7E9A4" stroke-width="0.5" stroke-linecap="round"/>
<path d="M4530.73 494.975C4530.2 494.97 4530.04 496.529 4529.92 496.93C4529.68 497.714 4529.13 498.729 4529.12 499.558" stroke="#F7E9A4" stroke-width="0.5" stroke-linecap="round"/>
<path d="M4606.7 502.339L4592.29 502.199L4589.42 500.723L4589.45 497.829L4590.22 492.77L4593.9 484.844L4597.58 476.918L4601.95 471.895L4606.99 471.944L4611.24 479.223L4616.87 493.029L4618.98 498.84L4615.34 502.423L4606.7 502.339Z" fill="#FFD900" stroke="black" stroke-width="0.5"/>
<path d="M4597.69 486.067C4597.7 485.31 4598.12 484.775 4598.5 484.139C4599.03 483.236 4599.54 482.303 4600.02 481.371C4600.3 480.851 4600.56 480.418 4600.76 479.872C4600.86 479.617 4601.03 479.07 4601.25 478.962" stroke="#F7E9A4" stroke-width="0.5" stroke-linecap="round"/>
<path d="M4603.1 487.33C4603.13 484.087 4603.28 480.795 4603.31 477.531" stroke="#F7E9A4" stroke-width="0.5" stroke-linecap="round"/>
<path d="M4605.46 479.367C4605.53 479.99 4606.22 480.599 4606.46 481.165C4606.82 481.995 4607.39 482.757 4607.78 483.557C4608.12 484.272 4608.44 484.98 4608.8 485.691C4609.11 486.29 4609.52 486.769 4609.72 487.394" stroke="#F7E9A4" stroke-width="0.5" stroke-linecap="round"/>
<path d="M4610.36 495.991C4610.76 496.405 4610.97 496.903 4611.34 497.305C4611.65 497.646 4611.77 498.359 4612.14 498.55" stroke="#F7E9A4" stroke-width="0.5" stroke-linecap="round"/>
<path d="M4603.6 497.136C4603.6 497.762 4603.35 498.404 4603.35 499.069" stroke="#F7E9A4" stroke-width="0.5" stroke-linecap="round"/>
<path d="M4597 495.62C4596.47 495.615 4596.3 497.174 4596.18 497.575C4595.94 498.358 4595.39 499.374 4595.39 500.202" stroke="#F7E9A4" stroke-width="0.5" stroke-linecap="round"/>
<path d="M5779.25 713.984L5963.62 126.185" stroke="black" stroke-width="15" stroke-linecap="round"/>
<path d="M5595.73 83.1967L5544.51 107.323L5556.46 121.798L5576.1 133.642L5600 141.099L5634.14 138.467L5671.27 130.133L5706.69 113.903L5715.23 121.798L5733.58 144.17L5759.19 163.032L5794.61 170.489L5824.92 163.032L5850.1 147.24L5858.21 156.452L5881.25 182.333L5903.02 202.072L5933.32 209.968L5964.48 206.898L5994.78 202.072L6007.16 215.232L6036.18 238.042L6072.46 258.22H6101.48L6127.51 253.834L6155.68 238.042L6164.64 258.22L6176.17 272.696L6200.49 293.313L6224.82 299.454H6250.43L6270.06 290.242L6283.29 279.276L6259.82 242.429L6224.82 197.686L6184.28 152.066L6127.51 105.568L6046 56.8773L5983.26 38.4538L5919.66 24.8555H5865.89H5805.71L5759.19 31.874L5695.17 46.7883L5595.73 83.1967Z" fill="white" stroke="black" stroke-width="0.5"/>
<path d="M5693.89 120.483L5634.57 139.783H5605.54L5585.91 136.274L5559.02 124.869L5544.94 106.446L5574.39 93.2858L5614.93 75.301L5670.84 53.8068L5722.06 41.5244L5762.6 30.9967L5795.04 26.6101L5812.97 23.5396H5853.08H5905.58L5937.16 26.6101L5955.52 30.9967L5981.55 37.7444L6004.6 43.7177L6036.18 53.8068L6075.87 73.985L6118.98 98.5497L6156.54 127.501L6192.39 159.084L6216.71 189.352L6245.31 224.883L6262.81 247.693L6285 278.399L6268.78 290.681L6250 299.454H6222.69L6201.78 293.752L6185.98 281.908L6165.92 259.536L6156.54 238.042L6150.13 209.968L6130.93 168.735L6104.47 135.835L6075.87 104.691L6029.35 69.5984L5993.5 46.7883L5981.55 37.7444L5990.51 55.1228L6002.04 81.4421L6008.44 110.832V139.783V168.735L5996.49 200.757L5963.2 205.582L5937.16 209.968L5909.42 205.582L5879.55 181.894L5849.67 148.118L5879.55 115.219L5934.6 68.2825L5981.55 37.7444L5928.63 38.8925L5887.23 41.5244L5859.06 45.4723L5823.21 53.8068L5777.12 69.5984L5737.85 93.2858L5693.89 120.483Z" fill="#FB0D0D"/>
<path d="M5981.55 37.7444L5928.63 38.8925L5887.23 41.5244L5859.06 45.4723L5823.21 53.8068L5777.12 69.5984L5737.85 93.2858L5693.89 120.483L5634.57 139.783H5605.54L5585.91 136.274L5559.02 124.869L5544.94 106.446L5574.39 93.2858L5614.93 75.301L5670.84 53.8068L5722.06 41.5244L5762.6 30.9967L5795.04 26.6101L5812.97 23.5396H5853.08H5905.58L5937.16 26.6101L5955.52 30.9967L6004.6 43.7177L6036.18 53.8068L6075.87 73.985L6118.98 98.5497L6156.54 127.501L6192.39 159.084L6216.71 189.351L6245.31 224.883L6262.81 247.693L6285 278.399L6268.78 290.681L6250 299.454H6222.69L6201.78 293.752L6185.98 281.908L6165.92 259.536L6156.54 238.042L6150.13 209.968L6130.93 168.735L6104.47 135.835L6075.87 104.691L6029.35 69.5984L5993.5 46.7883L5981.55 37.7444ZM5981.55 37.7444L5934.6 68.2825L5879.55 115.219L5849.67 148.118L5879.55 181.894L5909.42 205.582L5937.16 209.968L5963.2 205.582L5996.49 200.757L6008.44 168.735V139.783V110.832L6002.04 81.4421L5990.51 55.1228L5981.55 37.7444Z" stroke="black" stroke-width="0.5"/>
<path d="M2263.02 1103.97V1801.89H6814.92V1145.11" stroke="black"/>
<path d="M2377.8 1088.89L2275.1 1108.08L2263.02 1103.97L1689.12 1205.44L1051.8 1372.72L538.314 1550.97L0.664062 1816.97H493.006L776.933 1693.57L1133.35 1563.31L1658.92 1426.19L2263.02 1316.5L2589.23 1289.08L2873.16 1205.44L3132.92 1289.08L3531.63 1317.87L3845.76 1289.08L4141.77 1205.44L4407.58 1289.08L4739.83 1317.87L5075.11 1287.71L5316.75 1205.44L5591.61 1287.71L5935.95 1316.5L6189.67 1287.71L6464.54 1206.81L6654.83 1291.82L6790.75 1312.39L6845.12 1316.5L7376.73 1433.05L7790.54 1623.64L8104.67 1816.97H9119.56L8769.18 1644.2L8433.91 1481.04L8104.67 1372.72L7733.15 1287.71L7267.99 1205.44L6845.12 1150.59L6802.84 1145.11H6769.61L6727.32 1135.51L6757.53 1128.65L6769.61 1099.86L6790.75 1088.89L6769.61 1073.81L6709.2 1069.69L6639.73 1073.81L6603.48 1080.66L6555.15 1088.89L6494.74 1099.86L6422.25 1105.34L6349.76 1088.89V1073.81H6389.03L6446.42 1064.21V1040.9L6422.25 1020.33L6370.9 1003.88L6313.51 990.165L6228.94 986.052L6099.06 998.392L6005.42 1012.1L5935.95 1032.67L5878.56 1046.38L5836.27 1064.21L5751.7 1099.86L5712.43 1093L5691.29 1080.66L5724.52 1069.69L5775.86 1054.61L5790.97 1040.9L5724.52 1028.56L5633.9 1020.33L5561.41 1028.56L5540.27 1040.9L5485.9 1064.21L5434.55 1105.34L5349.97 1124.54L5280.5 1135.51L5214.05 1124.54L5247.28 1113.57L5256.34 1088.89L5280.5 1080.66V1069.69L5247.28 1054.61H5195.93L5108.33 1064.21L5014.7 1080.66L4921.06 1093L4848.57 1080.66L4836.49 1064.21L4848.57 1060.09L4933.14 1054.61L4942.21 1040.9L4921.06 1012.1L4884.82 994.279L4788.16 975.083H4721.71L4619.01 981.938L4540.48 994.279L4431.74 1017.59L4335.08 1045.01L4232.39 1088.89L4190.1 1076.55V1064.21L4208.22 1054.61L4262.59 1040.9L4283.74 1032.67L4241.45 1021.7L4159.9 1006.62H4099.49L4039.08 1017.59L3996.79 1040.9L3924.3 1088.89L3812.54 1120.42H3737.03L3700.78 1108.08L3737.03 1101.23L3749.11 1076.55L3770.25 1069.69V1054.61L3737.03 1045.01L3679.64 1040.9L3595.06 1050.5L3543.71 1060.09L3407.79 1076.55L3338.32 1064.21L3323.22 1050.5L3362.48 1040.9H3428.93V1021.7L3407.79 994.279L3353.42 975.083L3277.91 960H3187.29L3120.84 968.227L2978.88 988.794L2873.16 1017.59L2794.63 1040.9L2728.18 1069.69H2685.89L2676.83 1050.5L2697.97 1040.9L2755.36 1028.56L2770.46 1017.59L2728.18 1009.36L2652.67 994.279H2565.07L2525.8 1009.36L2468.41 1032.67L2432.17 1069.69L2377.8 1088.89Z" fill="white" stroke="black"/>
<path d="M2586.21 1290.45L2266.04 1316.5L1671 1423.45L1154.5 1556.45L764.851 1692.19L486.965 1815.6H1100.13L1510.92 1692.19L2063.67 1587.99L2266.04 1537.25V1796.4H6842.1V1542.74H7077.7L7379.75 1668.88L7636.37 1816.93H8603.06L8210.39 1625.01L7908.34 1512.57L7600.25 1439.9L7216.65 1352.15L6842.1 1316.5L6651.81 1290.45L6464.54 1205.44L6186.65 1290.45L5926.89 1316.5L5594.64 1290.45L5313.73 1205.44L5066.05 1290.45L4739.83 1316.5L4407.58 1290.45L4141.77 1205.44L3842.74 1290.45L3525.59 1316.5L3135.95 1290.45L2876.18 1205.44L2586.21 1290.45Z" fill="url(#paint3_linear_64_2200)" stroke="black"/>
<path d="M2610.38 1497.49L2266.04 1537.25L1806.93 1603.07L1311.56 1719.62L1000.45 1816.97H2266.04H6839.08H8110.71L7850.95 1719.62L7403.92 1603.07L7089.78 1537.25L6839.08 1534.51L6648.79 1497.49L6455.48 1415.22L6277.27 1497.49L5987.3 1529.03L5621.82 1497.49L5359.04 1415.22L5117.4 1497.49L4751.91 1529.03L4398.52 1497.49L4129.69 1415.22L3806.5 1497.49L3474.24 1529.03L3114.8 1497.49L2852.02 1415.22L2610.38 1497.49Z" fill="#5FC8FC" stroke="black"/>
<defs>
<linearGradient id="paint0_linear_64_2200" x1="4999.95" y1="405.672" x2="5363.12" y2="738.325" gradientUnits="userSpaceOnUse">
<stop offset="0.705" stop-color="#F5F2F2"/>
<stop offset="1" stop-color="#8F8E8E"/>
</linearGradient>
<linearGradient id="paint1_linear_64_2200" x1="4999.95" y1="405.672" x2="5363.12" y2="738.325" gradientUnits="userSpaceOnUse">
<stop offset="0.705" stop-color="#F5F2F2"/>
<stop offset="1" stop-color="#8F8E8E"/>
</linearGradient>
<linearGradient id="paint2_linear_64_2200" x1="3583.81" y1="405.672" x2="3946.98" y2="738.325" gradientUnits="userSpaceOnUse">
<stop offset="0.705" stop-color="#F5F2F2"/>
<stop offset="1" stop-color="#8F8E8E"/>
</linearGradient>
<linearGradient id="paint3_linear_64_2200" x1="4546.52" y1="2015.79" x2="4546.52" y2="640.522" gradientUnits="userSpaceOnUse">
<stop stop-color="#B3E5FC"/>
<stop offset="1" stop-color="#E0F7FA"/>
</linearGradient>
</defs>
</svg>
