<svg width="2014" height="654" viewBox="0 0 2014 654" fill="none" xmlns="http://www.w3.org/2000/svg">
<path d="M1123 463.572L1117 437.572V410.572L1123 373.572L1090 348.072L1123 335.322V322.572L1132 293.572L1155 275.572H1172L1195 293.572L1200 322.572V351.572L1208 381.572L1249 390.572H1303L1382 365.572V410.572L1374 446.572L1360 474.572L1319 502.572L1270 515.572L1195 522.572L1162 515.572L1140 492.572L1123 463.572Z" fill="url(#paint0_linear_57_1843)"/>
<path d="M1195 522.572L1162 515.572L1140 492.572L1123 463.572L1117 437.572V410.572L1123 373.572M1195 522.572L1270 515.572M1195 522.572V559.572M1270 515.572L1319 502.572L1360 474.572L1374 446.572L1382 410.572V365.572L1303 390.572H1249L1208 381.572L1200 351.572V322.572L1195 293.572L1172 275.572H1155L1132 293.572L1123 322.572V335.322M1270 515.572V559.572M1123 373.572V348.072M1123 373.572L1090 348.072M1123 348.072H1090M1123 348.072V335.322M1090 348.072L1123 335.322M1270 423.572L1303 410.572M1270 437.572L1303 423.572M1319 401.572L1303 437.572L1264 453.572H1208L1178 410.572H1249L1319 401.572Z" stroke="black"/>
<path d="M1123 463.572L1117 437.572V410.572L1123 373.572L1090 348.072L1123 335.322V322.572L1132 293.572L1155 275.572H1172L1195 293.572L1200 322.572V351.572L1208 381.572L1249 390.572H1303L1382 365.572V410.572L1374 446.572L1360 474.572L1319 502.572L1270 515.572L1195 522.572L1162 515.572L1140 492.572L1123 463.572Z" fill="url(#paint1_linear_57_1843)"/>
<path d="M1195 522.572L1162 515.572L1140 492.572L1123 463.572L1117 437.572V410.572L1123 373.572M1195 522.572L1270 515.572M1195 522.572V559.572M1270 515.572L1319 502.572L1360 474.572L1374 446.572L1382 410.572V365.572L1303 390.572H1249L1208 381.572L1200 351.572V322.572L1195 293.572L1172 275.572H1155L1132 293.572L1123 322.572V335.322M1270 515.572V559.572M1123 373.572V348.072M1123 373.572L1090 348.072M1123 348.072H1090M1123 348.072V335.322M1090 348.072L1123 335.322M1270 423.572L1303 410.572M1270 437.572L1303 423.572M1319 401.572L1303 437.572L1264 453.572H1208L1178 410.572H1249L1319 401.572Z" stroke="black"/>
<ellipse cx="1146.5" cy="326.572" rx="8.5" ry="8" fill="#645B5B"/>
<path d="M1125.4 255.675L1122.91 264.848L1105.86 270.158L1090.9 275.951L1085.91 279.33L1083 283.192L1090.9 301.055L1113.35 314.572H1143.69L1160.74 308.779L1177.78 301.055L1201.89 296.227H1220.6L1226 303.951V287.537L1220.6 273.055L1211.45 264.848L1194.41 258.572L1191.91 247.468V234.434L1184.01 220.917L1166.97 216.572H1152.42L1136.62 220.917L1127.9 228.641L1125.4 247.468V255.675Z" fill="#EFCFA3" stroke="black"/>
<path d="M1143.69 248.434H1125.4V255.193H1146.19H1172.38H1193.99L1191.91 248.434H1184.43H1168.22H1143.69Z" fill="#CE4F4F" stroke="black"/>
<path d="M1170.84 256.328C1170.93 256.025 1170.92 255.233 1171.1 255.072C1171.37 254.828 1171.35 254.643 1171.51 254.156C1171.9 252.954 1172.37 251.791 1172.86 250.683C1174.44 247.076 1175.83 243.382 1178.11 240.885C1178.92 240.002 1179.73 238.927 1180.63 238.345C1181.5 237.784 1182.9 237.189 1183.63 238.427C1184.39 239.728 1185.49 241.404 1185.56 243.461C1185.59 244.64 1185.48 245.481 1184.79 245.85C1184.5 246.002 1184.43 246.538 1184.13 246.714C1183.74 246.944 1183.33 246.929 1182.93 247.137C1182.23 247.51 1181.83 247.505 1181.13 247.117C1180.33 246.673 1179.56 246.381 1178.79 245.736C1178.43 245.428 1177.94 245.234 1177.55 245.02C1177.2 244.83 1176.98 244.361 1176.66 244.138C1176.13 243.774 1175.9 242.901 1175.45 242.478C1174.95 242.01 1174.47 241.174 1173.99 240.573C1172.26 238.408 1170.54 236.659 1168.52 235.258C1168.29 235.099 1167.15 234.481 1167.14 235.473C1167.13 236.332 1167.17 237.063 1167.25 237.883C1167.45 239.913 1168.21 242.382 1169.39 243.283C1169.99 243.743 1170.31 243.456 1170.75 244.34C1170.98 244.789 1171.68 244.568 1172.01 244.571C1172.92 244.581 1173.87 244.374 1174.75 244.383C1175.16 244.388 1175.58 244.393 1176 244.397C1176.26 244.4 1176.49 244.62 1176.74 244.623C1177.04 244.627 1177.01 245.063 1177.23 245.283C1177.74 245.796 1177.97 247.891 1178.46 248.142C1178.52 248.174 1178.75 248.977 1178.76 249.102C1178.81 249.578 1179.17 249.753 1179.26 250.318C1179.36 250.984 1179.62 251.013 1179.86 251.438C1180.09 251.854 1180.23 252.425 1180.48 252.826C1180.75 253.239 1181.16 254.225 1181.22 254.904C1181.26 255.345 1181.75 255.846 1181.83 256.449" stroke="#D32323" stroke-width="5" stroke-linecap="round"/>
<path d="M698.57 368.222C700.365 371.15 702.114 373.184 704.827 375.15L712.188 381.3C713.895 382.037 715.222 383.93 717.318 384.036C718.788 384.111 720.001 385.444 721.226 385.444C721.582 385.444 724.352 386.211 724.463 386.324C725.137 387.011 727.08 386.448 727.819 386.93C728.634 387.461 729.681 387.907 730.72 387.907C732.907 387.907 735.627 388.259 738.056 388.259C743.069 388.259 750.127 389.28 754.671 387.633C755.716 387.254 757.61 387.555 758.77 387.555C760.594 387.555 761.896 386.851 763.733 386.851C766.61 386.851 769.439 386.148 772.364 386.148H776.248C777.002 386.148 780.364 385.714 780.899 385.366C781.41 385.032 781.829 385.092 782.505 385.092C783.368 385.092 782.84 384.537 783.392 384.408C784.3 384.196 785.205 384.176 785.957 383.685C787.338 382.784 790.598 381.623 792.406 381.202C792.722 381.129 793.248 380.59 793.413 380.361C793.926 379.651 794.844 380.076 795.331 379.462C795.901 378.744 798.087 377.312 798.952 376.999C801.821 375.959 803.101 374.808 805.377 372.953C805.901 372.525 808.078 370.793 808.182 370.314C808.282 369.849 809.647 367.458 810.124 367.147C811.485 366.259 812.491 363.212 812.905 361.693C813.446 359.706 813.284 357.46 814.871 355.907C815.513 355.278 814.972 353.805 815.614 353.151C816.272 352.48 816.035 351.258 816.597 350.434C817.322 349.369 816.136 348.052 817.484 347.365C818.017 347.093 817.676 345.047 817.676 344.55C817.676 340.71 818.782 335.398 816.908 331.961C816.155 330.578 817.415 327.561 816.285 326.409C815.482 325.591 816.275 324.291 815.734 323.321C815.2 322.364 815.086 321.221 815.086 320.174C815.086 318.012 814.511 316.027 813.552 314.016C812.328 311.449 812.834 308.863 811.85 306.295C811.484 305.341 811.838 303.895 809.908 304.594C808.807 304.993 807.773 305.34 806.695 305.591C805.681 305.827 804.733 306.787 803.77 307.331C802.613 307.984 801.229 308.66 799.982 309.168C795.684 310.921 791.244 313.054 788.666 316.323C786.91 318.55 789.495 310.827 788.235 308.386C787.262 306.502 788.372 304.03 786.701 302.326C786.204 301.82 786.605 299.882 786.605 299.238C786.605 297.972 786.462 296.513 785.837 295.367C785.328 294.433 785.819 293.271 785.31 292.338C784.702 291.223 784.015 289.539 784.015 288.33C784.015 287.297 783.366 285.791 782.937 284.812C782.67 284.204 782.289 283.704 782.289 283.052C782.289 282.35 781.549 282.248 781.426 281.645C781.216 280.617 780.404 279.337 779.916 278.302C779.229 276.847 778.526 275.312 777.35 274.08C776.875 273.581 776.957 272.724 776.583 272.145C776.15 271.473 775.464 271.307 775.385 270.463C775.279 269.346 773.961 268.61 773.61 267.61C773.509 267.32 771.078 264.951 770.771 264.794C769.931 264.366 768.071 262.535 767.441 261.765C765.814 259.775 764.638 258.365 762.534 256.65C761.673 255.948 760.112 254.502 759.417 253.935C758.56 253.236 757.121 252.158 756.005 251.385C753.499 249.648 753.721 248.876 750.649 247.69C749.316 247.175 747.764 245.824 746.596 245.083C745.48 244.375 744.923 243.645 743.546 243.214C742.726 242.956 740.965 241.572 740.214 241.572C739.948 241.572 739.135 244.022 739.135 244.348C739.135 244.989 738.859 245.361 738.727 245.95C738.545 246.77 737.621 247.001 737.433 247.69C737.062 249.05 736.713 250.096 735.922 251.385C735.229 252.516 735.18 253.768 734.484 254.903C734.048 255.614 733.564 257.271 732.878 257.718C731.734 258.465 732.131 259.246 731.271 260.103C730.746 260.626 730.688 261.151 730.456 261.765C730.122 262.651 728.926 262.72 728.754 263.7C728.313 266.215 725.112 268.089 724.439 270.561C723.84 272.758 721.265 274.581 720.195 276.543C718.638 279.399 716.901 282.43 714.345 284.812C713.487 285.612 712.045 287.333 711.948 288.408C711.817 289.843 710.048 290.803 709.766 292.181C709.687 292.57 709.159 292.91 708.831 293.178C708.061 293.806 708.082 294.673 707.393 295.367C706.196 296.572 705.84 298.306 704.827 299.59C702.939 301.986 701.857 305.511 699.529 307.409C698.789 308.013 699.038 309.227 698.33 309.97C697.748 310.58 698.033 311.409 697.515 311.905C696.813 312.578 696.067 312.987 695.981 313.938C695.909 314.731 695.259 315.38 695.142 316.147C694.982 317.185 694.204 317.195 693.631 318.062C692.864 319.224 692.946 320.881 692.193 322.109C689.098 327.156 689.274 333.365 688.237 338.861C687.509 342.722 688.65 346.609 689.1 350.277C689.537 353.837 691.247 357.191 692.576 360.442C693.132 361.8 694.381 363.327 695.214 364.684C696.015 365.99 697.801 366.967 698.57 368.222Z" fill="#FFBB00" stroke="#FFBB00" stroke-width="5" stroke-linecap="round"/>
<path d="M709.826 372.737C711.154 375.003 712.447 376.577 714.453 378.099L719.895 382.859C721.157 383.429 722.138 384.894 723.688 384.977C724.775 385.035 725.672 386.066 726.578 386.066C726.841 386.066 728.889 386.66 728.971 386.747C729.469 387.279 730.906 386.843 731.452 387.216C732.055 387.628 732.829 387.973 733.597 387.973C735.214 387.973 737.226 388.245 739.021 388.245C742.728 388.245 747.946 389.035 751.306 387.761C752.079 387.468 753.479 387.7 754.337 387.7C755.685 387.7 756.648 387.156 758.006 387.156C760.133 387.156 762.225 386.611 764.387 386.611H767.259C767.817 386.611 770.303 386.276 770.698 386.006C771.076 385.748 771.386 385.794 771.886 385.794C772.524 385.794 772.133 385.364 772.541 385.264C773.213 385.101 773.882 385.085 774.438 384.705C775.459 384.008 777.869 383.109 779.206 382.783C779.439 382.726 779.829 382.31 779.951 382.132C780.33 381.583 781.009 381.911 781.369 381.436C781.79 380.881 783.407 379.773 784.046 379.53C786.168 378.725 787.114 377.834 788.796 376.398C789.184 376.067 790.794 374.726 790.87 374.356C790.945 373.996 791.954 372.145 792.306 371.904C793.313 371.217 794.056 368.858 794.362 367.683C794.763 366.145 794.642 364.406 795.816 363.205C796.291 362.718 795.891 361.577 796.365 361.071C796.852 360.552 796.677 359.606 797.092 358.968C797.628 358.144 796.751 357.124 797.748 356.593C798.142 356.382 797.89 354.799 797.89 354.414C797.89 351.442 798.708 347.33 797.323 344.67C796.765 343.599 797.697 341.265 796.862 340.373C796.268 339.74 796.854 338.734 796.454 337.983C796.059 337.242 795.975 336.357 795.975 335.547C795.975 333.874 795.55 332.337 794.841 330.781C793.936 328.794 794.31 326.792 793.582 324.804C793.312 324.066 793.573 322.947 792.146 323.488C791.332 323.797 790.568 324.065 789.771 324.259C789.021 324.442 788.32 325.185 787.609 325.606C786.753 326.112 785.729 326.635 784.808 327.028C781.63 328.385 778.347 330.036 776.441 332.566C775.143 334.29 777.054 328.312 776.122 326.423C775.403 324.964 776.224 323.052 774.988 321.733C774.62 321.341 774.917 319.841 774.917 319.342C774.917 318.362 774.811 317.233 774.349 316.346C773.973 315.623 774.336 314.724 773.959 314.001C773.51 313.138 773.002 311.835 773.002 310.899C773.002 310.1 772.522 308.934 772.205 308.176C772.008 307.706 771.726 307.319 771.726 306.814C771.726 306.271 771.179 306.192 771.088 305.725C770.933 304.929 770.332 303.938 769.971 303.138C769.464 302.011 768.944 300.823 768.074 299.87C767.723 299.484 767.784 298.82 767.507 298.372C767.187 297.852 766.68 297.723 766.621 297.07C766.543 296.206 765.568 295.636 765.309 294.861C765.234 294.638 763.437 292.803 763.209 292.682C762.588 292.351 761.213 290.933 760.748 290.338C759.545 288.797 758.675 287.706 757.12 286.379C756.483 285.835 755.329 284.716 754.815 284.277C754.181 283.736 753.117 282.902 752.292 282.303C750.439 280.959 750.603 280.362 748.332 279.444C747.347 279.045 746.199 277.999 745.336 277.426C744.51 276.878 744.098 276.313 743.081 275.979C742.474 275.78 741.172 274.708 740.617 274.708C740.42 274.708 739.819 276.605 739.819 276.856C739.819 277.353 739.615 277.641 739.518 278.097C739.382 278.732 738.699 278.91 738.56 279.444C738.286 280.496 738.028 281.306 737.444 282.303C736.931 283.179 736.895 284.148 736.38 285.027C736.058 285.577 735.7 286.859 735.192 287.206C734.347 287.783 734.64 288.388 734.005 289.051C733.617 289.456 733.573 289.863 733.402 290.338C733.155 291.024 732.271 291.077 732.144 291.835C731.818 293.782 729.451 295.233 728.953 297.146C728.51 298.846 726.606 300.257 725.815 301.776C724.664 303.986 723.38 306.333 721.49 308.176C720.855 308.795 719.79 310.128 719.718 310.96C719.621 312.071 718.313 312.813 718.105 313.88C718.046 314.181 717.656 314.445 717.413 314.652C716.844 315.138 716.859 315.809 716.35 316.346C715.465 317.279 715.201 318.621 714.453 319.614C713.056 321.469 712.256 324.198 710.535 325.667C709.988 326.134 710.173 327.074 709.649 327.649C709.219 328.121 709.429 328.762 709.046 329.146C708.527 329.668 707.976 329.984 707.912 330.72C707.859 331.334 707.378 331.836 707.292 332.43C707.174 333.234 706.598 333.241 706.175 333.913C705.608 334.811 705.668 336.094 705.111 337.044C702.823 340.951 702.953 345.757 702.186 350.011C701.648 352.999 702.492 356.008 702.825 358.847C703.147 361.602 704.412 364.198 705.395 366.715C705.805 367.766 706.729 368.947 707.345 369.998C707.937 371.009 709.257 371.765 709.826 372.737Z" fill="#FF9500" stroke="#FF9500" stroke-width="5" stroke-linecap="round"/>
<path d="M719.062 376.909C720.09 378.371 721.091 379.386 722.644 380.368L726.856 383.44C727.833 383.808 728.593 384.753 729.793 384.806C730.634 384.844 731.328 385.509 732.029 385.509C732.233 385.509 733.819 385.892 733.882 385.949C734.268 386.292 735.38 386.011 735.803 386.251C736.269 386.517 736.869 386.739 737.463 386.739C738.715 386.739 740.272 386.915 741.662 386.915C744.531 386.915 748.571 387.425 751.171 386.603C751.77 386.413 752.853 386.564 753.518 386.564C754.562 386.564 755.307 386.212 756.358 386.212C758.005 386.212 759.624 385.861 761.298 385.861H763.521C763.953 385.861 765.877 385.644 766.183 385.47C766.475 385.304 766.715 385.334 767.102 385.334C767.596 385.334 767.294 385.056 767.61 384.992C768.129 384.886 768.647 384.876 769.078 384.631C769.868 384.181 771.734 383.601 772.769 383.391C772.95 383.354 773.251 383.085 773.346 382.971C773.639 382.616 774.165 382.828 774.443 382.522C774.769 382.163 776.021 381.448 776.515 381.292C778.158 380.772 778.89 380.198 780.193 379.271C780.493 379.058 781.739 378.192 781.798 377.953C781.856 377.721 782.637 376.527 782.91 376.372C783.689 375.928 784.264 374.406 784.501 373.648C784.811 372.655 784.718 371.534 785.626 370.758C785.994 370.444 785.685 369.708 786.052 369.382C786.428 369.047 786.293 368.436 786.614 368.025C787.03 367.493 786.351 366.835 787.122 366.492C787.427 366.356 787.232 365.335 787.232 365.086C787.232 363.169 787.865 360.516 786.793 358.799C786.361 358.108 787.083 356.602 786.436 356.027C785.976 355.618 786.43 354.969 786.12 354.484C785.815 354.006 785.75 353.436 785.75 352.912C785.75 351.833 785.421 350.842 784.872 349.837C784.171 348.556 784.461 347.264 783.898 345.981C783.688 345.505 783.89 344.783 782.786 345.132C782.156 345.331 781.564 345.504 780.947 345.63C780.367 345.748 779.824 346.227 779.273 346.499C778.611 346.825 777.819 347.162 777.105 347.416C774.645 348.291 772.104 349.357 770.629 350.989C769.623 352.102 771.103 348.245 770.382 347.026C769.825 346.085 770.46 344.85 769.503 343.999C769.219 343.746 769.449 342.779 769.449 342.457C769.449 341.825 769.367 341.096 769.009 340.524C768.718 340.057 768.999 339.477 768.708 339.011C768.36 338.454 767.967 337.613 767.967 337.009C767.967 336.493 767.595 335.741 767.349 335.252C767.197 334.949 766.979 334.699 766.979 334.374C766.979 334.023 766.555 333.972 766.485 333.671C766.364 333.157 765.899 332.518 765.62 332.001C765.227 331.275 764.825 330.508 764.152 329.893C763.88 329.644 763.927 329.215 763.713 328.926C763.465 328.591 763.072 328.508 763.027 328.087C762.966 327.529 762.212 327.161 762.011 326.661C761.953 326.517 760.562 325.333 760.386 325.255C759.905 325.041 758.841 324.127 758.48 323.742C757.549 322.748 756.876 322.044 755.672 321.188C755.179 320.837 754.286 320.115 753.888 319.832C753.397 319.483 752.574 318.944 751.935 318.558C750.501 317.691 750.628 317.306 748.87 316.713C748.107 316.456 747.218 315.781 746.55 315.411C745.911 315.058 745.592 314.693 744.804 314.478C744.335 314.349 743.327 313.658 742.897 313.658C742.745 313.658 742.28 314.882 742.28 315.044C742.28 315.364 742.122 315.55 742.046 315.845C741.942 316.254 741.413 316.369 741.305 316.713C741.093 317.392 740.893 317.915 740.441 318.558C740.044 319.123 740.016 319.748 739.618 320.316C739.368 320.671 739.091 321.498 738.698 321.721C738.043 322.094 738.271 322.485 737.779 322.913C737.478 323.174 737.445 323.436 737.312 323.742C737.121 324.185 736.436 324.219 736.338 324.709C736.086 325.965 734.254 326.901 733.868 328.135C733.525 329.233 732.052 330.143 731.439 331.123C730.548 332.549 729.554 334.063 728.091 335.252C727.6 335.652 726.775 336.512 726.719 337.049C726.645 337.765 725.632 338.244 725.47 338.933C725.425 339.127 725.123 339.297 724.935 339.431C724.495 339.744 724.507 340.177 724.112 340.524C723.427 341.126 723.223 341.991 722.644 342.633C721.563 343.829 720.943 345.59 719.611 346.538C719.187 346.839 719.331 347.446 718.925 347.816C718.592 348.121 718.755 348.535 718.459 348.783C718.057 349.119 717.63 349.323 717.58 349.798C717.539 350.195 717.167 350.519 717.1 350.901C717.009 351.42 716.563 351.425 716.236 351.858C715.797 352.438 715.844 353.265 715.412 353.879C713.641 356.399 713.742 359.5 713.148 362.245C712.731 364.173 713.385 366.115 713.642 367.947C713.892 369.724 714.871 371.399 715.632 373.023C715.95 373.701 716.665 374.464 717.141 375.142C717.6 375.794 718.622 376.282 719.062 376.909Z" fill="#FF0000" stroke="#FF0000" stroke-width="5" stroke-linecap="round"/>
<path d="M48.2936 299.568L164.116 413.311L131.212 464.494L103.148 436.933C95.5886 429.51 85.0943 421.949 79.1026 413.684C71.5986 403.331 65.3341 391.954 57.5115 379.595C56.6685 375.285 40.846 354.807 43.4099 352.291C46.7773 348.986 69.5694 374.27 73.4537 378.085C75.0453 379.648 86.5504 391.367 80.5812 385.084C76.0624 380.328 73.1522 371.676 69.0737 366.464C61.4109 356.672 61.733 356.525 51.5514 344.301C44.9795 336.411 42.6683 331.127 38.9979 323.734C33.9761 313.619 34.2438 311.515 36.9968 314.038C47.7027 323.847 57.2652 332.499 67.6368 342.685C70.4012 345.399 77.9788 355.551 76.4349 352.768C74.2339 348.801 71.1647 345.383 69.0544 341.294C66.2917 335.94 61.3494 331.673 57.6181 326.525C55.1013 323.053 51.8672 315.171 48.4603 311.598C44.674 307.628 35.411 286.916 48.2936 299.568Z" fill="white" stroke="black" stroke-linecap="round"/>
<path d="M140 463.572L134 437.572V410.572L140 373.572L107 348.072L140 335.322V322.572L149 293.572L172 275.572H189L212 293.572L217 322.572V351.572L225 381.572L266 390.572H320L399 365.572V410.572L391 446.572L377 474.572L336 502.572L287 515.572L212 522.572L179 515.572L157 492.572L140 463.572Z" fill="url(#paint2_linear_57_1843)"/>
<path d="M212 522.572L179 515.572L157 492.572L140 463.572L134 437.572V410.572L140 373.572M212 522.572L287 515.572M212 522.572V559.572M287 515.572L336 502.572L377 474.572L391 446.572L399 410.572V365.572L320 390.572H266L225 381.572L217 351.572V322.572L212 293.572L189 275.572H172L149 293.572L140 322.572V335.322M287 515.572V559.572M140 373.572V348.072M140 373.572L107 348.072M140 348.072H107M140 348.072V335.322M107 348.072L140 335.322" stroke="black"/>
<ellipse cx="165.5" cy="318.572" rx="8.5" ry="8" fill="#645B5B"/>
<path d="M224.633 306.224L228.292 281.636L229.86 278.487L234.39 276.238L244.146 271.59L252.857 259.896V249.251L248.328 239.205L239.616 229.91L224.633 225.412L215.922 227.361V223.163L209.65 214.917L196.409 206.521L181.948 204.572L167.487 206.521L154.769 214.917L149.019 225.412H142.399L130.029 227.361L119.053 237.106L114 250.9L119.053 265.143L126.544 274.289L138.74 278.487V285.384L142.399 306.224L150.588 300.527L162.609 299.327H177.07L192.401 300.527L213.134 304.275L219.929 307.636L224.633 306.224Z" fill="white"/>
<path d="M228.292 281.636L224.633 306.224L219.929 307.636L213.134 304.275L192.401 300.527L177.07 299.327H162.609L150.588 300.527L142.399 306.224L138.74 285.384V278.487L126.544 274.289L119.053 265.143L114 250.9L119.053 237.106L130.029 227.361L142.399 225.412H149.019M228.292 281.636L229.86 278.487M228.292 281.636L218.535 279.237L203.203 276.238L183.69 274.289H162.609L178.463 272.94H192.401L207.907 274.289L219.929 276.238L229.86 278.487M149.019 225.412L154.769 214.917L167.487 206.521L181.948 204.572L196.409 206.521L209.65 214.917L215.922 223.163V227.361M149.019 225.412L147.277 233.358V239.205L149.019 246.252M215.922 227.361L224.633 225.412L239.616 229.91L248.328 239.205L252.857 249.251V259.896L244.146 271.59L234.39 276.238L229.86 278.487M215.922 227.361L209.65 229.91L203.203 235.307L196.409 244.303" stroke="black"/>
<path d="M214.876 275.488L230.557 278.487L228.466 281.935L222.891 280.286L215.573 278.487L205.643 276.838L197.977 276.088L184.039 274.439H174.456H163.654L173.237 273.539L182.645 272.939H194.841L207.385 274.439L214.876 275.488Z" fill="black" stroke="black"/>
<path d="M209.796 384.035L226.878 379.572L137.613 396.431L134.306 411.803L131 427.671V444.035V466.844L132.653 481.721L137.613 499.572L149.184 511.968L164.062 516.431H176.184L195.47 511.968L206.49 499.572L192.164 483.704L181.143 465.357L173.429 444.035L171.225 424.2L176.184 408.828L186.653 396.431L209.796 384.035Z" fill="#AB5A5A" stroke="black"/>
<path d="M329.044 291.929L221.901 413.883L252.564 460.089L278.526 430.539C285.519 422.58 295.234 414.188 300.77 405.573C307.704 394.784 313.485 383.127 320.709 370.362C321.479 366.103 336.103 344.659 333.717 342.485C330.584 339.628 309.508 366.435 305.915 370.525C304.442 372.201 293.801 384.723 299.321 378.03C303.501 372.964 306.177 364.289 309.947 358.826C317.029 348.563 316.73 348.453 326.143 335.578C332.218 327.267 334.348 321.915 337.733 314.382C342.365 304.074 342.111 302.065 339.564 304.788C329.658 315.379 320.81 324.732 311.216 335.653C308.658 338.564 301.656 349.166 303.081 346.314C305.112 342.249 307.95 338.626 309.897 334.451C312.445 328.985 317.019 324.349 320.467 318.984C322.792 315.365 325.771 307.402 328.922 303.595C332.424 299.365 340.962 278.364 329.044 291.929Z" fill="white" stroke="black" stroke-linecap="round"/>
<path d="M156.399 329.574L174.657 312.86" stroke="black" stroke-width="10" stroke-linecap="round"/>
<path d="M159.227 313.839L173.541 330.142" stroke="black" stroke-width="10" stroke-linecap="round"/>
<path d="M336.838 408.914C338.509 411.742 340.137 413.707 342.662 415.607L349.513 421.547C351.102 422.259 352.337 424.088 354.288 424.191C355.656 424.263 356.785 425.55 357.926 425.55C358.257 425.55 360.835 426.291 360.938 426.4C361.566 427.064 363.375 426.52 364.062 426.985C364.821 427.499 365.795 427.93 366.762 427.93C368.798 427.93 371.33 428.269 373.591 428.269C378.256 428.269 384.826 429.256 389.055 427.665C390.028 427.299 391.791 427.59 392.871 427.59C394.568 427.59 395.78 426.91 397.49 426.91C400.168 426.91 402.801 426.23 405.523 426.23H409.138C409.841 426.23 412.97 425.812 413.467 425.475C413.943 425.153 414.333 425.21 414.962 425.21C415.766 425.21 415.274 424.674 415.788 424.55C416.633 424.345 417.475 424.325 418.176 423.851C419.461 422.981 422.495 421.86 424.178 421.453C424.472 421.382 424.962 420.862 425.116 420.641C425.592 419.955 426.448 420.365 426.901 419.772C427.431 419.078 429.466 417.695 430.27 417.393C432.942 416.388 434.133 415.276 436.251 413.484C436.739 413.071 438.765 411.398 438.861 410.935C438.955 410.486 440.225 408.176 440.669 407.876C441.936 407.018 442.872 404.074 443.257 402.608C443.762 400.688 443.61 398.518 445.087 397.018C445.685 396.411 445.182 394.987 445.779 394.356C446.391 393.708 446.171 392.527 446.694 391.731C447.369 390.703 446.265 389.43 447.52 388.766C448.016 388.504 447.698 386.527 447.698 386.047C447.698 382.338 448.728 377.206 446.984 373.887C446.282 372.55 447.456 369.636 446.404 368.524C445.656 367.733 446.394 366.478 445.891 365.54C445.394 364.616 445.288 363.512 445.288 362.5C445.288 360.412 444.753 358.495 443.86 356.552C442.721 354.073 443.192 351.575 442.276 349.093C441.935 348.172 442.264 346.775 440.468 347.45C439.443 347.836 438.481 348.171 437.478 348.413C436.534 348.642 435.651 349.569 434.756 350.094C433.678 350.725 432.39 351.378 431.23 351.869C427.229 353.562 423.096 355.622 420.697 358.78C419.063 360.932 421.469 353.471 420.296 351.114C419.39 349.293 420.424 346.906 418.867 345.26C418.405 344.771 418.778 342.899 418.778 342.276C418.778 341.053 418.645 339.644 418.064 338.538C417.59 337.635 418.047 336.513 417.573 335.611C417.008 334.534 416.368 332.907 416.368 331.74C416.368 330.742 415.763 329.287 415.364 328.341C415.116 327.754 414.761 327.271 414.761 326.641C414.761 325.963 414.073 325.865 413.958 325.282C413.763 324.289 413.007 323.052 412.552 322.053C411.913 320.647 411.259 319.165 410.165 317.974C409.722 317.493 409.799 316.664 409.451 316.105C409.047 315.456 408.409 315.295 408.335 314.481C408.237 313.402 407.01 312.69 406.684 311.724C406.589 311.444 404.327 309.155 404.04 309.004C403.259 308.59 401.527 306.822 400.941 306.078C399.427 304.155 398.332 302.794 396.374 301.137C395.572 300.459 394.12 299.062 393.473 298.515C392.675 297.839 391.335 296.798 390.297 296.051C387.964 294.373 388.171 293.628 385.312 292.482C384.071 291.985 382.626 290.679 381.54 289.964C380.501 289.28 379.982 288.575 378.701 288.158C377.937 287.909 376.298 286.572 375.599 286.572C375.352 286.572 374.595 288.939 374.595 289.253C374.595 289.873 374.338 290.232 374.216 290.802C374.045 291.594 373.185 291.816 373.011 292.482C372.666 293.796 372.34 294.806 371.605 296.051C370.959 297.143 370.914 298.353 370.266 299.45C369.86 300.137 369.41 301.737 368.771 302.169C367.706 302.89 368.076 303.645 367.276 304.473C366.787 304.978 366.732 305.485 366.517 306.078C366.206 306.934 365.092 307.001 364.933 307.947C364.522 310.377 361.543 312.187 360.916 314.575C360.359 316.697 357.962 318.458 356.966 320.353C355.517 323.112 353.9 326.04 351.521 328.341C350.722 329.114 349.381 330.777 349.29 331.815C349.169 333.201 347.521 334.129 347.259 335.46C347.185 335.836 346.695 336.164 346.389 336.423C345.672 337.029 345.692 337.867 345.05 338.538C343.937 339.702 343.605 341.376 342.662 342.616C340.904 344.931 339.897 348.336 337.731 350.17C337.042 350.753 337.274 351.926 336.615 352.643C336.073 353.233 336.338 354.033 335.856 354.513C335.203 355.163 334.509 355.558 334.428 356.476C334.361 357.243 333.757 357.87 333.647 358.61C333.499 359.613 332.774 359.623 332.241 360.461C331.528 361.582 331.604 363.183 330.903 364.37C328.022 369.245 328.186 375.243 327.221 380.552C326.543 384.281 327.605 388.037 328.024 391.58C328.43 395.019 330.022 398.258 331.26 401.399C331.776 402.711 332.939 404.185 333.714 405.497C334.46 406.758 336.122 407.702 336.838 408.914Z" fill="#FFBB00" stroke="#FFBB00" stroke-width="5" stroke-linecap="round"/>
<path d="M347.315 413.275C348.551 415.464 349.754 416.985 351.621 418.455L356.687 423.053C357.861 423.604 358.775 425.019 360.217 425.099C361.229 425.155 362.063 426.152 362.907 426.152C363.152 426.152 365.058 426.725 365.134 426.809C365.598 427.323 366.935 426.902 367.444 427.262C368.005 427.66 368.725 427.993 369.44 427.993C370.945 427.993 372.817 428.256 374.489 428.256C377.939 428.256 382.796 429.02 385.923 427.789C386.642 427.505 387.945 427.73 388.744 427.73C389.999 427.73 390.895 427.204 392.159 427.204C394.139 427.204 396.086 426.678 398.099 426.678H400.772C401.291 426.678 403.605 426.354 403.972 426.093C404.324 425.844 404.613 425.889 405.078 425.889C405.672 425.889 405.308 425.473 405.688 425.377C406.313 425.219 406.936 425.203 407.454 424.836C408.404 424.163 410.647 423.295 411.892 422.98C412.109 422.925 412.471 422.523 412.585 422.352C412.937 421.821 413.57 422.138 413.905 421.679C414.297 421.142 415.801 420.072 416.396 419.838C418.371 419.06 419.252 418.2 420.818 416.812C421.179 416.493 422.677 415.197 422.748 414.839C422.817 414.492 423.757 412.704 424.085 412.472C425.022 411.807 425.714 409.529 425.999 408.394C426.371 406.908 426.259 405.229 427.351 404.068C427.794 403.597 427.421 402.496 427.863 402.007C428.316 401.505 428.153 400.592 428.539 399.975C429.038 399.179 428.222 398.194 429.15 397.681C429.517 397.477 429.282 395.948 429.282 395.576C429.282 392.705 430.043 388.733 428.754 386.163C428.235 385.129 429.103 382.874 428.325 382.013C427.772 381.401 428.318 380.429 427.945 379.703C427.578 378.988 427.5 378.134 427.5 377.35C427.5 375.734 427.104 374.25 426.444 372.746C425.602 370.827 425.95 368.894 425.273 366.973C425.021 366.26 425.264 365.179 423.936 365.702C423.178 366 422.467 366.259 421.725 366.447C421.027 366.624 420.375 367.342 419.712 367.748C418.916 368.237 417.963 368.742 417.106 369.122C414.147 370.432 411.092 372.027 409.318 374.471C408.109 376.136 409.888 370.362 409.021 368.537C408.351 367.128 409.116 365.28 407.965 364.006C407.623 363.628 407.899 362.179 407.899 361.697C407.899 360.75 407.801 359.66 407.371 358.803C407.021 358.104 407.359 357.236 407.008 356.538C406.59 355.704 406.117 354.445 406.117 353.542C406.117 352.769 405.67 351.643 405.375 350.911C405.192 350.457 404.929 350.082 404.929 349.595C404.929 349.071 404.42 348.994 404.335 348.543C404.191 347.775 403.632 346.817 403.296 346.044C402.824 344.956 402.34 343.808 401.531 342.887C401.203 342.514 401.26 341.873 401.003 341.44C400.704 340.938 400.232 340.813 400.178 340.183C400.105 339.348 399.198 338.797 398.957 338.049C398.887 337.833 397.214 336.061 397.002 335.944C396.424 335.624 395.144 334.255 394.711 333.679C393.591 332.191 392.782 331.137 391.334 329.855C390.741 329.33 389.667 328.248 389.189 327.825C388.599 327.302 387.609 326.496 386.841 325.918C385.116 324.619 385.269 324.043 383.155 323.156C382.238 322.771 381.17 321.76 380.366 321.206C379.598 320.677 379.214 320.131 378.267 319.809C377.702 319.616 376.491 318.581 375.974 318.581C375.791 318.581 375.231 320.413 375.231 320.656C375.231 321.136 375.041 321.414 374.951 321.855C374.825 322.468 374.189 322.64 374.06 323.156C373.805 324.172 373.564 324.954 373.02 325.918C372.543 326.764 372.51 327.7 372.031 328.549C371.731 329.08 371.398 330.319 370.925 330.654C370.138 331.211 370.411 331.796 369.82 332.437C369.458 332.828 369.418 333.22 369.259 333.679C369.028 334.342 368.205 334.393 368.087 335.126C367.784 337.006 365.581 338.408 365.117 340.256C364.705 341.898 362.933 343.261 362.197 344.728C361.126 346.864 359.93 349.13 358.171 350.911C357.581 351.509 356.589 352.796 356.522 353.6C356.432 354.673 355.214 355.39 355.02 356.421C354.965 356.712 354.603 356.966 354.377 357.166C353.847 357.636 353.861 358.284 353.387 358.803C352.563 359.704 352.318 361 351.621 361.96C350.321 363.751 349.577 366.387 347.975 367.806C347.466 368.258 347.638 369.166 347.15 369.721C346.749 370.177 346.945 370.797 346.589 371.168C346.106 371.671 345.593 371.977 345.533 372.688C345.484 373.281 345.037 373.766 344.956 374.339C344.846 375.116 344.31 375.124 343.916 375.772C343.389 376.64 343.445 377.879 342.926 378.797C340.797 382.571 340.918 387.213 340.204 391.323C339.703 394.209 340.488 397.116 340.798 399.858C341.099 402.52 342.276 405.027 343.19 407.458C343.572 408.474 344.432 409.615 345.005 410.63C345.557 411.607 346.786 412.337 347.315 413.275Z" fill="#FF9500" stroke="#FF9500" stroke-width="5" stroke-linecap="round"/>
<path d="M355.912 417.305C356.868 418.717 357.8 419.699 359.245 420.647L363.166 423.614C364.075 423.969 364.782 424.883 365.899 424.934C366.682 424.97 367.328 425.613 367.981 425.613C368.171 425.613 369.646 425.983 369.705 426.038C370.064 426.369 371.1 426.097 371.493 426.33C371.927 426.586 372.485 426.801 373.039 426.801C374.204 426.801 375.653 426.971 376.947 426.971C379.617 426.971 383.377 427.464 385.798 426.669C386.355 426.487 387.363 426.632 387.982 426.632C388.953 426.632 389.647 426.292 390.625 426.292C392.158 426.292 393.665 425.953 395.223 425.953H397.292C397.694 425.953 399.485 425.744 399.77 425.575C400.042 425.415 400.266 425.443 400.626 425.443C401.086 425.443 400.804 425.175 401.098 425.113C401.582 425.011 402.064 425.001 402.465 424.764C403.2 424.33 404.937 423.77 405.9 423.567C406.068 423.531 406.349 423.272 406.437 423.161C406.71 422.819 407.199 423.023 407.458 422.727C407.762 422.381 408.927 421.69 409.387 421.539C410.916 421.038 411.598 420.482 412.81 419.587C413.089 419.381 414.249 418.545 414.304 418.314C414.358 418.09 415.085 416.936 415.339 416.786C416.064 416.358 416.6 414.888 416.82 414.155C417.109 413.197 417.022 412.113 417.867 411.364C418.21 411.061 417.922 410.35 418.263 410.034C418.614 409.711 418.488 409.121 418.787 408.723C419.173 408.21 418.541 407.574 419.26 407.243C419.544 407.112 419.362 406.125 419.362 405.885C419.362 404.032 419.951 401.47 418.953 399.812C418.551 399.144 419.223 397.689 418.621 397.133C418.193 396.739 418.615 396.112 418.327 395.643C418.043 395.182 417.982 394.631 417.982 394.125C417.982 393.082 417.676 392.125 417.165 391.155C416.513 389.916 416.783 388.669 416.258 387.43C416.063 386.97 416.252 386.272 415.224 386.609C414.637 386.802 414.086 386.969 413.512 387.09C412.972 387.204 412.467 387.667 411.954 387.929C411.337 388.245 410.6 388.571 409.936 388.816C407.646 389.661 405.281 390.69 403.908 392.267C402.972 393.342 404.349 389.616 403.678 388.439C403.16 387.529 403.751 386.337 402.861 385.515C402.596 385.271 402.81 384.336 402.81 384.025C402.81 383.414 402.734 382.711 402.401 382.158C402.129 381.707 402.391 381.147 402.12 380.696C401.796 380.158 401.43 379.346 401.43 378.763C401.43 378.265 401.084 377.538 400.855 377.066C400.714 376.773 400.511 376.531 400.511 376.217C400.511 375.878 400.117 375.829 400.051 375.538C399.939 375.042 399.506 374.424 399.246 373.925L399.21 373.857C398.856 373.175 398.486 372.463 397.88 371.888C397.626 371.648 397.67 371.234 397.471 370.955C397.24 370.631 396.875 370.55 396.832 370.144C396.776 369.605 396.074 369.249 395.887 368.767C395.833 368.627 394.538 367.484 394.374 367.408C393.927 367.202 392.936 366.319 392.601 365.947C391.734 364.987 391.107 364.307 389.987 363.48C389.528 363.141 388.696 362.443 388.326 362.17C387.869 361.833 387.103 361.313 386.509 360.94C385.173 360.102 385.292 359.73 383.655 359.157C382.945 358.909 382.118 358.257 381.496 357.899C380.902 357.558 380.605 357.206 379.871 356.998C379.434 356.874 378.496 356.206 378.096 356.206C377.955 356.206 377.521 357.388 377.521 357.545C377.521 357.854 377.374 358.033 377.304 358.318C377.207 358.714 376.715 358.825 376.615 359.157C376.417 359.813 376.231 360.318 375.81 360.94C375.441 361.485 375.415 362.089 375.044 362.637C374.812 362.98 374.554 363.779 374.188 363.995C373.579 364.355 373.79 364.732 373.332 365.146C373.053 365.398 373.021 365.651 372.898 365.947C372.72 366.375 372.083 366.408 371.991 366.881C371.757 368.094 370.051 368.998 369.692 370.191C369.373 371.251 368.002 372.13 367.432 373.077C366.602 374.454 365.677 375.917 364.315 377.066C363.858 377.452 363.09 378.282 363.038 378.801C362.969 379.493 362.026 379.956 361.876 380.621C361.834 380.809 361.553 380.973 361.378 381.102C360.968 381.405 360.979 381.823 360.612 382.158C359.974 382.739 359.784 383.576 359.245 384.195C358.239 385.351 357.662 387.052 356.423 387.967C356.028 388.258 356.161 388.844 355.784 389.202C355.474 389.497 355.625 389.897 355.35 390.136C354.976 390.461 354.578 390.658 354.532 391.117C354.494 391.5 354.148 391.813 354.085 392.182C354 392.683 353.586 392.688 353.281 393.107C352.872 393.667 352.916 394.466 352.514 395.059C350.866 397.493 350.96 400.489 350.407 403.141C350.019 405.003 350.627 406.878 350.867 408.648C351.099 410.365 352.011 411.983 352.719 413.552C353.014 414.207 353.68 414.943 354.124 415.598C354.55 416.228 355.502 416.7 355.912 417.305Z" fill="#FF0000" stroke="#FF0000" stroke-width="5" stroke-linecap="round"/>
<path d="M802.07 1C802.07 1.50089 802.173 2.13787 802.024 2.61794C801.861 3.14357 801.34 3.73708 801.249 4.23588C801.108 5.01145 800.198 5.44109 800.198 5.9925" stroke="#E6C5C5" stroke-linecap="round"/>
<path d="M642.68 358.606V349.831L651.881 351.293L664.455 352.756L679.789 354.218L692.976 355.096H708.924H727.018L749.713 355.974H765.047H776.394H792.035L822.397 355.096L846.625 353.048L868.706 349.538L867.173 367.089L860.733 386.104L849.385 404.532L834.664 422.669L814.117 437.588L790.195 447.826L766.887 451.921H740.206L721.805 447.826L703.097 441.098L682.856 427.934L668.135 413.893L656.481 397.804L646.667 375.573L642.68 358.606Z" fill="#E71717" stroke="black"/>
<path d="M643.6 349.831L639 346.905V343.103L641.76 340.177L647.894 338.715L660.468 336.96L669.668 336.082L685.003 335.204L707.391 333.742L732.845 332.572H744.193H771.794L820.557 334.619L835.278 335.497L855.212 336.667L868.706 340.177L873 343.103V346.32L868.706 349.538L857.666 351.293L838.345 353.341L815.343 355.096H797.249H773.634H754.313H734.992H713.524L693.59 354.219L672.122 353.341L654.028 351.586L643.6 349.831Z" fill="#272626" stroke="black"/>
<path d="M653.414 349.246L660.161 339.3H664.148L657.708 349.246H653.414Z" fill="#6D6A6A" stroke="black"/>
<path d="M670.589 350.708L678.869 338.422L682.243 338.422L674.575 350.708L670.589 350.708Z" fill="#6D6A6A" stroke="black"/>
<path d="M687.149 352.756L696.043 337.545L700.337 337.545L690.83 352.756L687.149 352.756Z" fill="#6D6A6A" stroke="black"/>
<path d="M704.63 352.756L713.831 337.252L718.431 337.252L708.924 352.756L704.63 352.756Z" fill="#6D6A6A" stroke="black"/>
<path d="M720.885 353.341L731.926 336.667L735.912 336.667L725.792 353.341L720.885 353.341Z" fill="#6D6A6A" stroke="black"/>
<path d="M737.139 352.464L749.407 336.082L754.007 336.082L742.353 352.464L737.139 352.464Z" fill="#6D6A6A" stroke="black"/>
<path d="M753.286 352.289L764.74 336.082L769.341 336.082L758.674 352.289L753.286 352.289Z" fill="#6D6A6A" stroke="black"/>
<path d="M771.487 352.464L783.755 336.082L788.662 336.082L776.701 352.464L771.487 352.464Z" fill="#6D6A6A" stroke="black"/>
<path d="M789.582 352.464L801.742 336.148L807.063 335.79L794.489 352.464L789.582 352.464Z" fill="#6D6A6A" stroke="black"/>
<path d="M806.756 352.756L818.916 336.148L824.304 336.44L811.663 352.756L806.756 352.756Z" fill="#6D6A6A" stroke="black"/>
<path d="M824.437 351.119L834.664 338.13L838.958 338.13L829.824 351.119L824.437 351.119Z" fill="#6D6A6A" stroke="black"/>
<path d="M842.638 350.415L850.612 340.47L854.292 340.469L846.932 350.415L842.638 350.415Z" fill="#6D6A6A" stroke="black"/>
<path d="M870.533 343.625C870.446 344.289 869.79 345.223 869.257 345.505C868.457 345.929 868.485 346.795 867.517 347.164C866.969 347.374 866.836 347.828 866.242 347.828C865.848 347.828 865.206 348.22 864.914 348.443C864.067 349.089 862.287 348.669 861.255 349.106C860.87 349.269 860.228 349.156 859.812 349.156C859.105 349.156 858.606 349.598 857.905 349.598C857.367 349.598 857.041 350.017 856.616 350.04C855.996 350.075 855.236 349.9 854.657 350.151C853.762 350.539 852.552 350.483 851.565 350.483C850.413 350.483 849.336 350.925 848.266 350.925C842.915 350.925 837.546 351.088 832.262 351.368C831.194 351.424 830.176 351.589 829.131 351.589C827.994 351.589 826.845 352.253 825.639 352.253C823.181 352.253 820.876 353.138 818.345 353.138C815.804 353.138 813.439 353.58 810.923 353.58C808.675 353.58 806.515 353.801 804.197 353.801C801.845 353.801 799.503 353.138 797.123 353.138C795.074 353.138 793.025 353.138 790.976 353.138C782.053 353.138 773.062 353.58 764.187 353.58C747.19 353.58 729.848 353.58 712.927 353.58C710.463 353.58 708.118 353.138 705.621 353.138C704.764 353.138 703.246 353.428 702.49 353.027C701.633 352.573 700.205 353.069 699.256 352.904C696.832 352.484 694.379 352.474 691.885 352.474C689.229 352.474 686.755 352.032 684.167 352.032C681.963 352.032 679.76 352.032 677.556 352.032C676.625 352.032 675.421 352.221 674.541 351.921C673.512 351.571 672.322 352.05 671.294 351.7C669.553 351.107 666.821 351.147 665.031 351.147C664.004 351.147 663.164 350.925 662.196 350.925C661.153 350.925 659.634 351.206 658.898 350.581C658.426 350.181 656.503 350.483 655.87 350.483C654.79 350.483 653.575 350.262 652.622 350.262C650.914 350.262 648.764 349.781 647.172 349.106C646.253 348.717 645.459 348.264 644.504 348.062C643.788 347.91 643.079 347.14 642.404 346.956C641.448 346.695 640.909 345.293 640.909 344.288C640.909 343.803 640.677 343.42 640.677 342.863C640.677 342.014 642.949 341.807 643.538 341.584C645.063 341.007 646.844 340.634 648.447 340.294C650.381 339.884 652.587 339.421 654.594 339.421C655.346 339.421 655.957 339.09 656.681 338.991C657.556 338.872 658.067 339.007 658.898 338.635C660.042 338.121 661.967 338.495 663.227 338.266C665.05 337.935 666.993 338.071 668.845 337.885C669.873 337.782 671.014 337.651 672.041 337.651C672.725 337.651 674.166 337.903 674.773 337.541C675.339 337.203 676.551 337.43 677.208 337.43C677.997 337.43 678.773 337.209 679.592 337.209C680.676 337.209 681.785 336.988 682.942 336.988C685.702 336.988 688.361 336.324 691.125 336.324C695.012 336.324 698.899 336.324 702.786 336.324C706.089 336.324 709.392 336.324 712.695 336.324C716.623 336.324 720.521 335.882 724.409 335.882C727.361 335.882 730.151 335.439 733.119 335.439C734.836 335.439 736.564 334.997 738.325 334.997C739.794 334.997 741.263 334.997 742.732 334.997C748.247 334.997 753.855 334.775 759.419 334.775C769.126 334.775 778.834 334.775 788.541 334.775C794.189 334.775 799.837 334.775 805.486 334.775C807.607 334.775 809.729 334.775 811.851 334.775C814.48 334.775 817.006 335.439 819.647 335.439C820.436 335.439 820.976 335.882 821.825 335.882C822.516 335.882 823.221 335.845 823.912 335.882C824.73 335.925 825.58 336.324 826.463 336.324C827.467 336.324 828.462 336.545 829.363 336.545C830.41 336.545 831.711 336.357 832.713 336.656C833.212 336.805 833.715 336.766 834.234 336.766C834.781 336.766 835.212 337.194 835.741 337.209C836.287 337.225 836.945 337.108 837.481 337.221C837.886 337.307 838.388 337.631 838.756 337.651C839.797 337.71 840.858 337.651 841.901 337.651C842.913 337.651 843.863 338.094 844.903 338.094C846.085 338.094 846.953 338.151 848.034 338.586C849.079 339.005 850.136 338.842 851.23 339.151C852.346 339.466 853.468 339.421 854.645 339.421C855.884 339.421 856.919 339.864 858.124 339.864C858.934 339.864 859.36 340.306 860.198 340.306C860.894 340.306 861.324 340.434 861.951 340.7C862.935 341.117 864.412 340.61 865.43 341.019C866.531 341.461 867.819 340.989 868.78 341.855C869.334 342.354 870.702 343.506 870.996 344.067" stroke="#7C7C7C" stroke-width="5" stroke-linecap="round"/>
<path d="M714.741 445.56L666.285 622.244" stroke="black" stroke-width="15" stroke-linecap="round"/>
<path d="M756.153 451.921V645.572" stroke="black" stroke-width="15" stroke-linecap="round"/>
<path d="M796.022 445.486L848.772 632.701" stroke="black" stroke-width="15" stroke-linecap="round"/>
<path d="M697.668 517.159C698.216 517.159 698.632 517.415 699.144 517.415C699.915 517.415 700.607 516.996 701.321 516.789C702.323 516.498 703.603 516.404 704.527 515.993C705.194 515.696 706.214 515.191 706.942 515.125C708.85 514.952 710.54 513.784 712.413 513.561C713.003 513.491 713.254 513.063 713.904 513.063C714.443 513.063 714.762 512.896 715.246 512.793C717.708 512.271 719.53 511.301 722.089 511.03C726.494 510.563 731.162 511.425 735.508 510.504C738.034 509.968 740.771 509.736 743.35 509.736C747.195 509.736 751.213 509.224 755.098 509.224C758.344 509.224 761.526 508.968 764.759 508.968C766.992 508.968 768.963 509.48 771.14 509.48C772.647 509.48 774 509.848 775.494 509.977C776.876 510.097 779.29 509.495 780.473 510.248C781.697 511.026 784.504 510.547 785.96 510.745C786.932 510.878 788.092 511.016 789.046 511.016C791.612 511.016 794.336 511.497 796.828 512.025C797.795 512.23 798.819 512.14 799.795 512.31C801.002 512.519 802.212 512.887 803.403 513.049C804.69 513.224 805.849 513.383 807.041 513.888C807.562 514.109 808.491 514.568 809.039 514.599C809.717 514.637 810.61 515.849 811.186 516.192C811.864 516.596 811.991 517.499 811.991 518.183C811.991 518.752 812.527 518.816 812.527 519.463C812.527 519.887 812.554 520.319 812.527 520.742C812.484 521.441 811.781 522.336 811.245 522.847C810.042 523.995 808.722 524.619 807.429 525.606C806.917 525.997 805.412 526.848 804.745 526.886C802.602 527.006 800.688 527.742 798.438 527.412C796.224 527.087 793.708 527.398 791.461 527.398C786.853 527.398 781.899 526.45 777.387 527.526C774.243 528.275 770.612 528.934 767.383 528.934C765.009 528.934 762.55 529.583 760.197 529.701C755.229 529.951 750.197 529.957 745.169 529.957C743.352 529.957 741.202 530.253 739.414 529.943C737.24 529.566 735.256 529.189 732.958 529.189C728.315 529.189 723.706 528.422 719.003 528.422C717.169 528.422 715.564 527.498 713.77 527.398C713.518 527.384 711.873 526.974 711.683 526.829C710.907 526.237 710.038 526.669 709.208 526.317C708.611 526.064 707.655 525.417 707.061 525.35C705.638 525.19 704.423 523.885 703.155 523.814C702.338 523.768 700.737 523.201 700.084 522.676C699.432 522.153 698.023 521.162 697.668 520.486" stroke="black" stroke-width="10" stroke-linecap="round"/>
<line x1="744.116" y1="332.238" x2="642.111" y2="332.071" stroke="#D2B48C" stroke-width="3"/>
<path d="M733.199 323.612L753.198 323.841L756.003 340.874L733.005 340.611L733.199 323.612Z" fill="#824C2E" stroke="black"/>
<path d="M733.005 340.597L713.014 341.196L709.506 324.294L732.495 323.605L733.005 340.597Z" fill="#824C2E" stroke="black"/>
<path d="M685.008 340.048L665.017 340.647L661.509 323.745L684.498 323.056L685.008 340.048Z" fill="#824C2E" stroke="black"/>
<path d="M687.203 323.086L707.199 323.456L709.885 340.508L686.889 340.084L687.203 323.086Z" fill="#824C2E" stroke="black"/>
<path d="M749.701 337.289C748.075 336.908 746.452 335.629 744.967 334.865C743.716 334.222 742.55 333.332 741.388 332.524C740.831 332.137 739.676 331.358 739.373 330.814C739.109 330.339 738.074 329.389 737.519 329.244" stroke="#E6C5C5" stroke-linecap="round"/>
<path d="M727.343 327.671C727.213 328.622 725.193 329.73 724.493 330.343C723.905 330.856 722.805 331.452 722.095 331.818C720.239 332.773 719.394 334.177 718.512 335.891" stroke="#E6C5C5" stroke-linecap="round"/>
<path d="M719.857 327.377C719.672 328.168 716.941 330.346 716.283 330.665" stroke="#E6C5C5" stroke-linecap="round"/>
<path d="M705.202 335.531C703.441 335.511 701.438 335.756 699.774 335.146C698.86 334.81 697.872 334.552 696.989 334.143C696.568 333.948 696.272 333.489 695.854 333.344C694.309 332.809 693.185 331.756 691.731 331.008" stroke="#E6C5C5" stroke-linecap="round"/>
<path d="M679.287 327.746C679.159 328.992 677.638 329.527 676.605 329.75C675.531 329.981 674.943 330.419 674.095 331.015C673.417 331.491 673.107 332.208 672.366 332.567C671.819 332.833 670.695 333.219 670.687 333.889" stroke="#E6C5C5" stroke-linecap="round"/>
<path d="M669.515 327.218C668.828 327.59 666.584 328.885 666.574 329.681" stroke="#E6C5C5" stroke-linecap="round"/>
<line x1="778.13" y1="336.178" x2="890.125" y2="337.262" stroke="#D2B48C"/>
<path d="M779.664 332.693L776.664 332.664L776.727 326.164L781.727 326.212L784.707 328.241L779.664 332.693Z" fill="white" stroke="black" stroke-width="0.5"/>
<path d="M768.669 332.086L767.645 334.576L772.145 334.62L775.126 336.649L775.14 335.149L775.65 334.154L774.164 332.639L769.684 330.596L768.669 332.086Z" fill="white" stroke="black" stroke-width="0.5"/>
<path d="M772.145 334.62L767.645 334.576L767.14 335.071L767.611 338.076L768.582 341.086L770.063 343.1L771.029 346.61L772.509 348.624L775 349.648L777.509 348.673L775.043 345.148L773.067 342.629L772.582 341.124L773.582 341.134L774.096 339.639L775.125 336.649L772.145 334.62Z" fill="#FF9131" stroke="black" stroke-width="0.5"/>
<path d="M776.664 332.664L775.65 334.154L773.169 332.13L770.184 330.601L771.703 328.615L773.722 326.635L776.727 326.164L776.664 332.664Z" fill="#FF9131" stroke="black" stroke-width="0.5"/>
<path d="M780.649 334.202L779.664 332.692L784.707 328.241L785.202 328.746L787.183 330.765L788.668 332.28L788.644 334.78L780.644 334.702L780.649 334.202Z" fill="#FF9131" stroke="black" stroke-width="0.5"/>
<path d="M780.63 336.202L780.644 334.702L788.644 334.779L788.62 337.279L788.586 340.779L787.567 342.769L780.63 336.202Z" fill="white" stroke="black" stroke-width="0.5"/>
<path d="M785.543 345.25L787.567 342.77L780.63 336.202L780.125 336.697L778.616 337.683L776.601 339.163L776.082 341.158L776.058 343.658L777.534 346.173L779.024 347.187L781.024 347.207L783.528 346.731L785.543 345.25Z" fill="#FF9131" stroke="black" stroke-width="0.5"/>
<path d="M870.66 333.573L867.66 333.544L867.723 327.045L872.722 327.093L875.703 329.122L870.66 333.573Z" fill="white" stroke="black" stroke-width="0.5"/>
<path d="M859.665 332.967L858.641 335.457L863.141 335.501L866.121 337.53L866.136 336.03L866.645 335.035L865.16 333.52L860.68 331.477L859.665 332.967Z" fill="white" stroke="black" stroke-width="0.5"/>
<path d="M863.141 335.501L858.641 335.457L858.136 335.952L858.607 338.957L859.578 341.967L861.058 343.981L862.024 347.491L863.505 349.505L865.995 350.529L868.505 349.553L866.039 346.029L864.063 343.51L863.578 342.005L864.578 342.015L865.092 340.52L866.121 337.53L863.141 335.501Z" fill="#FF9131" stroke="black" stroke-width="0.5"/>
<path d="M867.66 333.544L866.645 335.035L864.165 333.011L861.179 331.482L862.699 329.496L864.718 327.516L867.723 327.045L867.66 333.544Z" fill="#FF9131" stroke="black" stroke-width="0.5"/>
<path d="M871.645 335.083L870.659 333.573L875.703 329.122L876.198 329.627L878.179 331.646L879.664 333.16L879.64 335.66L871.64 335.583L871.645 335.083Z" fill="#FF9131" stroke="black" stroke-width="0.5"/>
<path d="M871.625 337.083L871.64 335.583L879.64 335.66L879.615 338.16L879.581 341.66L878.562 343.65L871.625 337.083Z" fill="white" stroke="black" stroke-width="0.5"/>
<path d="M876.538 346.131L878.563 343.651L871.626 337.083L871.121 337.578L869.611 338.564L867.597 340.044L867.078 342.039L867.053 344.539L868.529 347.054L870.019 348.068L872.019 348.087L874.524 347.612L876.538 346.131Z" fill="#FF9131" stroke="black" stroke-width="0.5"/>
<path d="M824.662 333.128L821.662 333.099L821.725 326.599L826.725 326.648L829.705 328.677L824.662 333.128Z" fill="white" stroke="black" stroke-width="0.5"/>
<path d="M813.668 332.522L812.643 335.012L817.143 335.055L820.124 337.084L820.138 335.584L820.648 334.589L819.162 333.075L814.682 331.031L813.668 332.522Z" fill="white" stroke="black" stroke-width="0.5"/>
<path d="M817.143 335.055L812.643 335.012L812.138 335.507L812.609 338.512L813.58 341.521L815.061 343.536L816.027 347.045L817.507 349.06L819.998 350.084L822.507 349.108L820.041 345.584L818.066 343.065L817.58 341.56L818.58 341.57L819.095 340.075L820.124 337.084L817.143 335.055Z" fill="#FF9131" stroke="black" stroke-width="0.5"/>
<path d="M821.662 333.099L820.648 334.589L818.167 332.565L815.182 331.036L816.701 329.051L818.72 327.07L821.725 326.599L821.662 333.099Z" fill="#FF9131" stroke="black" stroke-width="0.5"/>
<path d="M825.647 334.638L824.662 333.128L829.705 328.677L830.2 329.181L832.181 331.201L833.666 332.715L833.642 335.215L825.643 335.138L825.647 334.638Z" fill="#FF9131" stroke="black" stroke-width="0.5"/>
<path d="M825.628 336.638L825.642 335.138L833.642 335.215L833.618 337.715L833.584 341.215L832.565 343.205L825.628 336.638Z" fill="white" stroke="black" stroke-width="0.5"/>
<path d="M830.541 345.686L832.565 343.205L825.628 336.638L825.123 337.133L823.614 338.118L821.599 339.599L821.08 341.594L821.056 344.094L822.532 346.608L824.022 347.623L826.022 347.642L828.526 347.166L830.541 345.686Z" fill="#FF9131" stroke="black" stroke-width="0.5"/>
<path d="M802.027 346.91L792.028 346.813L790.038 345.794L790.057 343.794L790.591 340.299L793.144 334.823L795.697 329.348L798.731 325.877L802.231 325.911L805.182 330.939L809.09 340.478L810.551 344.492L808.027 346.968L802.027 346.91Z" fill="#FFD900" stroke="black" stroke-width="0.5"/>
<path d="M795.776 335.668C795.781 335.145 796.078 334.776 796.337 334.336C796.705 333.712 797.057 333.068 797.396 332.423C797.585 332.065 797.766 331.765 797.908 331.388C797.974 331.212 798.095 330.834 798.248 330.76" stroke="#F7E9A4" stroke-width="0.5" stroke-linecap="round"/>
<path d="M799.53 336.54C799.551 334.3 799.657 332.025 799.679 329.77" stroke="#F7E9A4" stroke-width="0.5" stroke-linecap="round"/>
<path d="M801.172 331.039C801.221 331.47 801.697 331.89 801.865 332.281C802.112 332.855 802.509 333.381 802.778 333.934C803.019 334.428 803.237 334.917 803.489 335.408C803.7 335.822 803.988 336.153 804.127 336.585" stroke="#F7E9A4" stroke-width="0.5" stroke-linecap="round"/>
<path d="M804.571 342.524C804.851 342.81 804.997 343.154 805.25 343.432C805.464 343.667 805.551 344.16 805.808 344.292" stroke="#F7E9A4" stroke-width="0.5" stroke-linecap="round"/>
<path d="M799.882 343.315C799.878 343.748 799.706 344.191 799.702 344.651" stroke="#F7E9A4" stroke-width="0.5" stroke-linecap="round"/>
<path d="M795.295 342.267C794.929 342.264 794.814 343.341 794.729 343.618C794.563 344.159 794.183 344.861 794.177 345.433" stroke="#F7E9A4" stroke-width="0.5" stroke-linecap="round"/>
<path d="M848.025 347.355L838.026 347.258L836.036 346.239L836.055 344.239L836.589 340.744L839.142 335.268L841.695 329.793L844.729 326.322L848.229 326.356L851.18 331.385L855.088 340.923L856.549 344.937L854.025 347.413L848.025 347.355Z" fill="#FFD900" stroke="black" stroke-width="0.5"/>
<path d="M841.774 336.113C841.779 335.591 842.076 335.221 842.335 334.781C842.703 334.158 843.055 333.513 843.394 332.869C843.583 332.51 843.765 332.21 843.906 331.833C843.972 331.657 844.093 331.28 844.246 331.205" stroke="#F7E9A4" stroke-width="0.5" stroke-linecap="round"/>
<path d="M845.528 336.985C845.55 334.745 845.655 332.471 845.677 330.216" stroke="#F7E9A4" stroke-width="0.5" stroke-linecap="round"/>
<path d="M847.17 331.484C847.219 331.915 847.695 332.336 847.864 332.726C848.111 333.3 848.507 333.826 848.776 334.379C849.017 334.873 849.235 335.362 849.487 335.854C849.698 336.267 849.986 336.598 850.125 337.03" stroke="#F7E9A4" stroke-width="0.5" stroke-linecap="round"/>
<path d="M850.569 342.97C850.849 343.255 850.995 343.6 851.248 343.877C851.462 344.113 851.549 344.605 851.806 344.737" stroke="#F7E9A4" stroke-width="0.5" stroke-linecap="round"/>
<path d="M845.88 343.76C845.876 344.193 845.704 344.636 845.7 345.096" stroke="#F7E9A4" stroke-width="0.5" stroke-linecap="round"/>
<path d="M841.293 342.713C840.927 342.709 840.812 343.786 840.727 344.063C840.561 344.604 840.181 345.306 840.175 345.878" stroke="#F7E9A4" stroke-width="0.5" stroke-linecap="round"/>
<path d="M1661.94 493.572L1789.92 87.4853" stroke="black" stroke-width="15" stroke-linecap="round"/>
<path d="M1534.55 57.7865L1499 74.4543L1507.3 84.4549L1520.92 92.6372L1537.51 97.7891L1561.21 95.9708L1586.99 90.2128L1611.58 79L1617.5 84.4549L1630.24 99.9104L1648.02 112.942L1672.6 118.093L1693.64 112.942L1711.12 102.032L1716.75 108.396L1732.74 126.276L1747.85 139.913L1768.89 145.368L1790.51 143.247L1811.55 139.913L1820.14 149.004L1840.28 164.763L1865.47 178.703H1885.61L1903.68 175.673L1923.24 164.763L1929.46 178.703L1937.46 188.704L1954.34 202.947L1971.23 207.19H1989L2002.63 200.826L2011.82 193.25L1995.52 167.794L1971.23 136.882L1943.08 105.365L1903.68 73.2421L1847.1 39.6036L1803.55 26.8755L1759.41 17.481H1722.08H1680.31L1648.02 22.3297L1603.58 32.6334L1534.55 57.7865Z" fill="white" stroke="black" stroke-width="0.5"/>
<path d="M1602.69 83.5457L1561.51 96.8799H1541.36L1527.74 94.4555L1509.07 86.5762L1499.3 73.8481L1519.74 64.7567L1547.88 52.3316L1586.69 37.4822L1622.24 28.9968L1650.39 21.7236L1672.9 18.6931L1685.34 16.5718H1713.19H1749.63L1771.55 18.6931L1784.29 21.7236L1802.36 26.3853L1818.36 30.5121L1840.28 37.4822L1867.84 51.4225L1897.76 68.3932L1923.83 88.3945L1948.71 110.214L1965.6 131.125L1985.45 155.672L1997.59 171.43L2013 192.644L2001.74 201.129L1988.71 207.19H1969.75L1955.23 203.25L1944.27 195.068L1930.35 179.612L1923.83 164.763L1919.38 145.368L1906.05 116.881L1887.68 94.1525L1867.84 72.6359L1835.54 48.392L1810.66 32.6334L1802.36 26.3853L1808.59 38.3913L1816.58 56.5743L1821.03 76.8786V96.8799V116.881L1812.73 139.004L1789.62 142.337L1771.55 145.368L1752.3 142.337L1731.56 125.973L1710.82 102.638L1731.56 79.9091L1769.78 47.4828L1802.36 26.3853L1765.63 27.1785L1736.89 28.9968L1717.34 31.7243L1692.45 37.4822L1660.46 48.392L1633.2 64.7567L1602.69 83.5457Z" fill="#FB0D0D"/>
<path d="M1802.36 26.3853L1765.63 27.1785L1736.89 28.9968L1717.34 31.7243L1692.45 37.4822L1660.46 48.392L1633.2 64.7567L1602.69 83.5457L1561.51 96.8799H1541.36L1527.74 94.4555L1509.07 86.5762L1499.3 73.8481L1519.74 64.7567L1547.88 52.3316L1586.69 37.4822L1622.24 28.9968L1650.39 21.7236L1672.9 18.6931L1685.34 16.5718H1713.19H1749.63L1771.55 18.6931L1784.29 21.7236L1818.36 30.5121L1840.28 37.4822L1867.84 51.4225L1897.76 68.3932L1923.83 88.3945L1948.71 110.214L1965.6 131.125L1985.45 155.672L1997.59 171.43L2013 192.644L2001.74 201.129L1988.71 207.19H1969.75L1955.23 203.25L1944.27 195.068L1930.35 179.612L1923.83 164.763L1919.38 145.368L1906.05 116.881L1887.68 94.1525L1867.84 72.6359L1835.54 48.392L1810.66 32.6334L1802.36 26.3853ZM1802.36 26.3853L1769.78 47.4828L1731.56 79.9091L1710.82 102.638L1731.56 125.973L1752.3 142.337L1771.55 145.368L1789.62 142.337L1812.73 139.004L1821.03 116.881V96.8799V76.8786L1816.58 56.5743L1808.59 38.3913L1802.36 26.3853Z" stroke="black" stroke-width="0.5"/>
<defs>
<linearGradient id="paint0_linear_57_1843" x1="1121" y1="280.572" x2="1372" y2="511.572" gradientUnits="userSpaceOnUse">
<stop offset="0.705" stop-color="#F5F2F2"/>
<stop offset="1" stop-color="#8F8E8E"/>
</linearGradient>
<linearGradient id="paint1_linear_57_1843" x1="1121" y1="280.572" x2="1372" y2="511.572" gradientUnits="userSpaceOnUse">
<stop offset="0.705" stop-color="#F5F2F2"/>
<stop offset="1" stop-color="#8F8E8E"/>
</linearGradient>
<linearGradient id="paint2_linear_57_1843" x1="138" y1="280.572" x2="389" y2="511.572" gradientUnits="userSpaceOnUse">
<stop offset="0.705" stop-color="#F5F2F2"/>
<stop offset="1" stop-color="#8F8E8E"/>
</linearGradient>
</defs>
</svg>
