<svg width="563" height="236" viewBox="0 0 563 236" fill="none" xmlns="http://www.w3.org/2000/svg">
<path d="M18.8931 30.7197L15.9986 1H1V23.546L5.21013 49.508L18.8931 85.7182L40.7331 123.295L64.9414 149.257L92.3072 175.219L112.832 190.933L144.934 206.647L179.931 219.969L215.454 228.509L249.924 235H271.764H308.603L350.441 228.509L392.279 216.212L430.17 201.181L458.062 183.076L496.743 153.356L517.267 128.077L536.739 99.7241L553.58 57.365L562 23.546V1H546.475V23.546L532.003 67.6131L510.163 106.215L478.587 136.618L443.064 164.288L402.541 183.076L363.071 195.715L302.024 206.647H265.186L225.979 201.181L178.089 190.933L140.461 175.219L103.622 153.356L73.3616 128.077L48.1008 99.7241L29.9447 67.6131L18.8931 30.7197Z" fill="#20A136" stroke="#20A136"/>
<path d="M545.686 2.36646H17.3145V29.3533L31.7868 73.0789L52.3112 107.581L95.7281 147.891L145.46 180.001L199.929 196.399L260.976 206.647H306.235L360.703 196.399L407.804 180.001L445.432 163.604L480.429 135.934L511.215 107.581L529.372 73.0789L545.686 29.3533V2.36646Z" fill="#E41F1F" stroke="#20A136"/>
<ellipse cx="24.1533" cy="12.9033" rx="24.1533" ry="12.9033" transform="matrix(0.56267 -0.826682 0.65711 0.753795 163.913 91.8596)" fill="black"/>
<ellipse cx="24.1533" cy="12.9033" rx="24.1533" ry="12.9033" transform="matrix(0.56267 -0.826682 0.65711 0.753795 224.4 151.273)" fill="black"/>
<ellipse cx="24.1533" cy="12.9033" rx="24.1533" ry="12.9033" transform="matrix(0.56267 -0.826682 0.65711 0.753795 419.645 62.4553)" fill="black"/>
<ellipse cx="24.1533" cy="12.9033" rx="24.1533" ry="12.9033" transform="matrix(0.56267 -0.826682 0.65711 0.753795 281.237 52.2073)" fill="black"/>
<ellipse cx="24.1533" cy="12.9033" rx="24.1533" ry="12.9033" transform="matrix(0.56267 -0.826682 0.65711 0.753795 78.0977 52.2073)" fill="black"/>
<ellipse cx="24.1533" cy="12.9033" rx="24.1533" ry="12.9033" transform="matrix(0.56267 -0.826682 0.65711 0.753795 105.464 115.063)" fill="black"/>
<ellipse cx="24.1533" cy="12.9033" rx="24.1533" ry="12.9033" transform="matrix(0.56267 -0.826682 0.65711 0.753795 222.295 62.4553)" fill="black"/>
<ellipse cx="24.1533" cy="12.9033" rx="24.1533" ry="12.9033" transform="matrix(0.56267 -0.826682 0.65711 0.753795 303.34 115.063)" fill="black"/>
<ellipse cx="24.1344" cy="12.914" rx="24.1344" ry="12.914" transform="matrix(0.565129 -0.825002 0.65472 0.755871 364.387 104.702)" fill="black"/>
</svg>
