<svg width="760" height="314" viewBox="0 0 760 314" fill="none" xmlns="http://www.w3.org/2000/svg" preserveAspectRatio="none">
<path d="M0.5 53.5V308H754V68.5" stroke="black"/>
<path d="M19.4999 48L2.49994 55L0.5 53.5V131L54.4999 121L101.5 90.5L144.5 121L210.5 131.5L262.5 121L311.5 90.5L355.5 121L410.5 131.5L466 120.5L506 90.5L551.5 120.5L608.5 131L650.5 120.5L696 91L727.5 122L750 129.5L759 131V70.5L752 68.5H746.5L739.5 65L744.5 62.5L746.5 52L750 48L746.5 42.5L736.5 41L725 42.5L719 45L711 48L701 52L689 54L677 48V42.5H683.5L693 39V30.5L689 23L680.5 17L671 12L657 10.5L635.5 15L620 20L608.5 27.5L599 32.5L592 39L578 52L571.5 49.5L568 45L573.5 41L582 35.5L584.5 30.5L573.5 26L558.5 23L546.5 26L543 30.5L534 39L525.5 54L511.5 61L500 65L489 61L494.5 57L496 48L500 45V41L494.5 35.5H486L471.5 39L456 45L440.5 49.5L428.5 45L426.5 39L428.5 37.5L442.5 35.5L444 30.5L440.5 20L434.5 13.5L418.5 6.5H407.5L390.5 9L377.5 13.5L359.5 22L343.5 32L326.5 48L319.5 43.5V39L322.5 35.5L331.5 30.5L335 27.5L328 23.5L314.5 18H304.5L294.5 22L287.5 30.5L275.5 48L257 59.5H244.5L238.5 55L244.5 52.5L246.5 43.5L250 41V35.5L244.5 32L235 30.5L221 34L212.5 37.5L190 43.5L178.5 39L176 34L182.5 30.5H193.5V23.5L190 13.5L181 6.5L168.5 1H153.5L142.5 4L119 11.5L101.5 22L88.4999 30.5L77.4999 41H70.4999L68.9999 34L72.4999 30.5L81.9999 26L84.4999 22L77.4999 19L64.9999 13.5H50.4999L43.9999 19L34.4999 27.5L28.4999 41L19.4999 48Z" fill="white" stroke="black"/>
<path d="M54.0001 121.5L1 131V306H758.5V131L727 121.5L696 90.5L650 121.5L607 131L552 121.5L505.5 90.5L464.5 121.5L410.5 131L355.5 121.5L311.5 90.5L262 121.5L209.5 131L145 121.5L102 90.5L54.0001 121.5Z" fill="url(#paint0_linear_24_304)" stroke="black"/>
<path d="M58.0003 197L1 211.5V313.5H758V210.5L726.5 197L694.5 167L665 197L617 208.5L556.5 197L513 167L473 197L412.5 208.5L354 197L309.5 167L256 197L201 208.5L141.5 197L98.0003 167L58.0003 197Z" fill="#5FC8FC" stroke="black"/>
<defs>
<linearGradient id="paint0_linear_24_304" x1="378.5" y1="386" x2="378.5" y2="-115.5" gradientUnits="userSpaceOnUse">
<stop stop-color="#B3E5FC"/>
<stop offset="1" stop-color="#E0F7FA"/>
</linearGradient>
</defs>
</svg>
